<?xml version="1.0" encoding="utf-8" standalone="no"?>
<!DOCTYPE svg PUBLIC "-//W3C//DTD SVG 1.1//EN"
  "http://www.w3.org/Graphics/SVG/1.1/DTD/svg11.dtd">
<!-- Created with matplotlib (http://matplotlib.org/) -->
<svg height="345pt" version="1.1" viewBox="0 0 460 345" width="460pt" xmlns="http://www.w3.org/2000/svg" xmlns:xlink="http://www.w3.org/1999/xlink">
 <defs>
  <style type="text/css">
*{stroke-linecap:butt;stroke-linejoin:round;}
  </style>
 </defs>
 <g id="figure_1">
  <g id="patch_1">
   <path d="M 0 345.6 
L 460.8 345.6 
L 460.8 0 
L 0 0 
z
" style="fill:#ffffff;"/>
  </g>
  <g id="axes_1">
   <g id="patch_2">
    <path d="M 57.6 307.584 
L 414.72 307.584 
L 414.72 41.472 
L 57.6 41.472 
z
" style="fill:#ffffff;"/>
   </g>
   <g id="matplotlib.axis_1">
    <g id="xtick_1">
     <g id="line2d_1">
      <defs>
       <path d="M 0 0 
L 0 3.5 
" id="m2bd67e8cbf" style="stroke:#000000;stroke-width:0.8;"/>
      </defs>
      <g>
       <use style="stroke:#000000;stroke-width:0.8;" x="73.832727" xlink:href="#m2bd67e8cbf" y="307.584"/>
      </g>
     </g>
     <g id="text_1">
      <!-- 0 -->
      <defs>
       <path d="M 31.78125 66.40625 
Q 24.171875 66.40625 20.328125 58.90625 
Q 16.5 51.421875 16.5 36.375 
Q 16.5 21.390625 20.328125 13.890625 
Q 24.171875 6.390625 31.78125 6.390625 
Q 39.453125 6.390625 43.28125 13.890625 
Q 47.125 21.390625 47.125 36.375 
Q 47.125 51.421875 43.28125 58.90625 
Q 39.453125 66.40625 31.78125 66.40625 
z
M 31.78125 74.21875 
Q 44.046875 74.21875 50.515625 64.515625 
Q 56.984375 54.828125 56.984375 36.375 
Q 56.984375 17.96875 50.515625 8.265625 
Q 44.046875 -1.421875 31.78125 -1.421875 
Q 19.53125 -1.421875 13.0625 8.265625 
Q 6.59375 17.96875 6.59375 36.375 
Q 6.59375 54.828125 13.0625 64.515625 
Q 19.53125 74.21875 31.78125 74.21875 
z
" id="DejaVuSans-30"/>
      </defs>
      <g transform="translate(70.651477 322.182437)scale(0.1 -0.1)">
       <use xlink:href="#DejaVuSans-30"/>
      </g>
     </g>
    </g>
    <g id="xtick_2">
     <g id="line2d_2">
      <g>
       <use style="stroke:#000000;stroke-width:0.8;" x="129.567413" xlink:href="#m2bd67e8cbf" y="307.584"/>
      </g>
     </g>
     <g id="text_2">
      <!-- 200 -->
      <defs>
       <path d="M 19.1875 8.296875 
L 53.609375 8.296875 
L 53.609375 0 
L 7.328125 0 
L 7.328125 8.296875 
Q 12.9375 14.109375 22.625 23.890625 
Q 32.328125 33.6875 34.8125 36.53125 
Q 39.546875 41.84375 41.421875 45.53125 
Q 43.3125 49.21875 43.3125 52.78125 
Q 43.3125 58.59375 39.234375 62.25 
Q 35.15625 65.921875 28.609375 65.921875 
Q 23.96875 65.921875 18.8125 64.3125 
Q 13.671875 62.703125 7.8125 59.421875 
L 7.8125 69.390625 
Q 13.765625 71.78125 18.9375 73 
Q 24.125 74.21875 28.421875 74.21875 
Q 39.75 74.21875 46.484375 68.546875 
Q 53.21875 62.890625 53.21875 53.421875 
Q 53.21875 48.921875 51.53125 44.890625 
Q 49.859375 40.875 45.40625 35.40625 
Q 44.1875 33.984375 37.640625 27.21875 
Q 31.109375 20.453125 19.1875 8.296875 
z
" id="DejaVuSans-32"/>
      </defs>
      <g transform="translate(120.023663 322.182437)scale(0.1 -0.1)">
       <use xlink:href="#DejaVuSans-32"/>
       <use x="63.623047" xlink:href="#DejaVuSans-30"/>
       <use x="127.246094" xlink:href="#DejaVuSans-30"/>
      </g>
     </g>
    </g>
    <g id="xtick_3">
     <g id="line2d_3">
      <g>
       <use style="stroke:#000000;stroke-width:0.8;" x="185.302099" xlink:href="#m2bd67e8cbf" y="307.584"/>
      </g>
     </g>
     <g id="text_3">
      <!-- 400 -->
      <defs>
       <path d="M 37.796875 64.3125 
L 12.890625 25.390625 
L 37.796875 25.390625 
z
M 35.203125 72.90625 
L 47.609375 72.90625 
L 47.609375 25.390625 
L 58.015625 25.390625 
L 58.015625 17.1875 
L 47.609375 17.1875 
L 47.609375 0 
L 37.796875 0 
L 37.796875 17.1875 
L 4.890625 17.1875 
L 4.890625 26.703125 
z
" id="DejaVuSans-34"/>
      </defs>
      <g transform="translate(175.758349 322.182437)scale(0.1 -0.1)">
       <use xlink:href="#DejaVuSans-34"/>
       <use x="63.623047" xlink:href="#DejaVuSans-30"/>
       <use x="127.246094" xlink:href="#DejaVuSans-30"/>
      </g>
     </g>
    </g>
    <g id="xtick_4">
     <g id="line2d_4">
      <g>
       <use style="stroke:#000000;stroke-width:0.8;" x="241.036785" xlink:href="#m2bd67e8cbf" y="307.584"/>
      </g>
     </g>
     <g id="text_4">
      <!-- 600 -->
      <defs>
       <path d="M 33.015625 40.375 
Q 26.375 40.375 22.484375 35.828125 
Q 18.609375 31.296875 18.609375 23.390625 
Q 18.609375 15.53125 22.484375 10.953125 
Q 26.375 6.390625 33.015625 6.390625 
Q 39.65625 6.390625 43.53125 10.953125 
Q 47.40625 15.53125 47.40625 23.390625 
Q 47.40625 31.296875 43.53125 35.828125 
Q 39.65625 40.375 33.015625 40.375 
z
M 52.59375 71.296875 
L 52.59375 62.3125 
Q 48.875 64.0625 45.09375 64.984375 
Q 41.3125 65.921875 37.59375 65.921875 
Q 27.828125 65.921875 22.671875 59.328125 
Q 17.53125 52.734375 16.796875 39.40625 
Q 19.671875 43.65625 24.015625 45.921875 
Q 28.375 48.1875 33.59375 48.1875 
Q 44.578125 48.1875 50.953125 41.515625 
Q 57.328125 34.859375 57.328125 23.390625 
Q 57.328125 12.15625 50.6875 5.359375 
Q 44.046875 -1.421875 33.015625 -1.421875 
Q 20.359375 -1.421875 13.671875 8.265625 
Q 6.984375 17.96875 6.984375 36.375 
Q 6.984375 53.65625 15.1875 63.9375 
Q 23.390625 74.21875 37.203125 74.21875 
Q 40.921875 74.21875 44.703125 73.484375 
Q 48.484375 72.75 52.59375 71.296875 
z
" id="DejaVuSans-36"/>
      </defs>
      <g transform="translate(231.493035 322.182437)scale(0.1 -0.1)">
       <use xlink:href="#DejaVuSans-36"/>
       <use x="63.623047" xlink:href="#DejaVuSans-30"/>
       <use x="127.246094" xlink:href="#DejaVuSans-30"/>
      </g>
     </g>
    </g>
    <g id="xtick_5">
     <g id="line2d_5">
      <g>
       <use style="stroke:#000000;stroke-width:0.8;" x="296.771471" xlink:href="#m2bd67e8cbf" y="307.584"/>
      </g>
     </g>
     <g id="text_5">
      <!-- 800 -->
      <defs>
       <path d="M 31.78125 34.625 
Q 24.75 34.625 20.71875 30.859375 
Q 16.703125 27.09375 16.703125 20.515625 
Q 16.703125 13.921875 20.71875 10.15625 
Q 24.75 6.390625 31.78125 6.390625 
Q 38.8125 6.390625 42.859375 10.171875 
Q 46.921875 13.96875 46.921875 20.515625 
Q 46.921875 27.09375 42.890625 30.859375 
Q 38.875 34.625 31.78125 34.625 
z
M 21.921875 38.8125 
Q 15.578125 40.375 12.03125 44.71875 
Q 8.5 49.078125 8.5 55.328125 
Q 8.5 64.0625 14.71875 69.140625 
Q 20.953125 74.21875 31.78125 74.21875 
Q 42.671875 74.21875 48.875 69.140625 
Q 55.078125 64.0625 55.078125 55.328125 
Q 55.078125 49.078125 51.53125 44.71875 
Q 48 40.375 41.703125 38.8125 
Q 48.828125 37.15625 52.796875 32.3125 
Q 56.78125 27.484375 56.78125 20.515625 
Q 56.78125 9.90625 50.3125 4.234375 
Q 43.84375 -1.421875 31.78125 -1.421875 
Q 19.734375 -1.421875 13.25 4.234375 
Q 6.78125 9.90625 6.78125 20.515625 
Q 6.78125 27.484375 10.78125 32.3125 
Q 14.796875 37.15625 21.921875 38.8125 
z
M 18.3125 54.390625 
Q 18.3125 48.734375 21.84375 45.5625 
Q 25.390625 42.390625 31.78125 42.390625 
Q 38.140625 42.390625 41.71875 45.5625 
Q 45.3125 48.734375 45.3125 54.390625 
Q 45.3125 60.0625 41.71875 63.234375 
Q 38.140625 66.40625 31.78125 66.40625 
Q 25.390625 66.40625 21.84375 63.234375 
Q 18.3125 60.0625 18.3125 54.390625 
z
" id="DejaVuSans-38"/>
      </defs>
      <g transform="translate(287.227721 322.182437)scale(0.1 -0.1)">
       <use xlink:href="#DejaVuSans-38"/>
       <use x="63.623047" xlink:href="#DejaVuSans-30"/>
       <use x="127.246094" xlink:href="#DejaVuSans-30"/>
      </g>
     </g>
    </g>
    <g id="xtick_6">
     <g id="line2d_6">
      <g>
       <use style="stroke:#000000;stroke-width:0.8;" x="352.506157" xlink:href="#m2bd67e8cbf" y="307.584"/>
      </g>
     </g>
     <g id="text_6">
      <!-- 1000 -->
      <defs>
       <path d="M 12.40625 8.296875 
L 28.515625 8.296875 
L 28.515625 63.921875 
L 10.984375 60.40625 
L 10.984375 69.390625 
L 28.421875 72.90625 
L 38.28125 72.90625 
L 38.28125 8.296875 
L 54.390625 8.296875 
L 54.390625 0 
L 12.40625 0 
z
" id="DejaVuSans-31"/>
      </defs>
      <g transform="translate(339.781157 322.182437)scale(0.1 -0.1)">
       <use xlink:href="#DejaVuSans-31"/>
       <use x="63.623047" xlink:href="#DejaVuSans-30"/>
       <use x="127.246094" xlink:href="#DejaVuSans-30"/>
       <use x="190.869141" xlink:href="#DejaVuSans-30"/>
      </g>
     </g>
    </g>
    <g id="xtick_7">
     <g id="line2d_7">
      <g>
       <use style="stroke:#000000;stroke-width:0.8;" x="408.240843" xlink:href="#m2bd67e8cbf" y="307.584"/>
      </g>
     </g>
     <g id="text_7">
      <!-- 1200 -->
      <g transform="translate(395.515843 322.182437)scale(0.1 -0.1)">
       <use xlink:href="#DejaVuSans-31"/>
       <use x="63.623047" xlink:href="#DejaVuSans-32"/>
       <use x="127.246094" xlink:href="#DejaVuSans-30"/>
       <use x="190.869141" xlink:href="#DejaVuSans-30"/>
      </g>
     </g>
    </g>
   </g>
   <g id="matplotlib.axis_2">
    <g id="ytick_1">
     <g id="line2d_8">
      <defs>
       <path d="M 0 0 
L -3.5 0 
" id="me28cdeae4c" style="stroke:#000000;stroke-width:0.8;"/>
      </defs>
      <g>
       <use style="stroke:#000000;stroke-width:0.8;" x="57.6" xlink:href="#me28cdeae4c" y="280.205889"/>
      </g>
     </g>
     <g id="text_8">
      <!-- −0.1 -->
      <defs>
       <path d="M 10.59375 35.5 
L 73.1875 35.5 
L 73.1875 27.203125 
L 10.59375 27.203125 
z
" id="DejaVuSans-2212"/>
       <path d="M 10.6875 12.40625 
L 21 12.40625 
L 21 0 
L 10.6875 0 
z
" id="DejaVuSans-2e"/>
      </defs>
      <g transform="translate(26.317187 284.005108)scale(0.1 -0.1)">
       <use xlink:href="#DejaVuSans-2212"/>
       <use x="83.789062" xlink:href="#DejaVuSans-30"/>
       <use x="147.412109" xlink:href="#DejaVuSans-2e"/>
       <use x="179.199219" xlink:href="#DejaVuSans-31"/>
      </g>
     </g>
    </g>
    <g id="ytick_2">
     <g id="line2d_9">
      <g>
       <use style="stroke:#000000;stroke-width:0.8;" x="57.6" xlink:href="#me28cdeae4c" y="246.682063"/>
      </g>
     </g>
     <g id="text_9">
      <!-- 0.0 -->
      <g transform="translate(34.696875 250.481281)scale(0.1 -0.1)">
       <use xlink:href="#DejaVuSans-30"/>
       <use x="63.623047" xlink:href="#DejaVuSans-2e"/>
       <use x="95.410156" xlink:href="#DejaVuSans-30"/>
      </g>
     </g>
    </g>
    <g id="ytick_3">
     <g id="line2d_10">
      <g>
       <use style="stroke:#000000;stroke-width:0.8;" x="57.6" xlink:href="#me28cdeae4c" y="213.158236"/>
      </g>
     </g>
     <g id="text_10">
      <!-- 0.1 -->
      <g transform="translate(34.696875 216.957455)scale(0.1 -0.1)">
       <use xlink:href="#DejaVuSans-30"/>
       <use x="63.623047" xlink:href="#DejaVuSans-2e"/>
       <use x="95.410156" xlink:href="#DejaVuSans-31"/>
      </g>
     </g>
    </g>
    <g id="ytick_4">
     <g id="line2d_11">
      <g>
       <use style="stroke:#000000;stroke-width:0.8;" x="57.6" xlink:href="#me28cdeae4c" y="179.63441"/>
      </g>
     </g>
     <g id="text_11">
      <!-- 0.2 -->
      <g transform="translate(34.696875 183.433629)scale(0.1 -0.1)">
       <use xlink:href="#DejaVuSans-30"/>
       <use x="63.623047" xlink:href="#DejaVuSans-2e"/>
       <use x="95.410156" xlink:href="#DejaVuSans-32"/>
      </g>
     </g>
    </g>
    <g id="ytick_5">
     <g id="line2d_12">
      <g>
       <use style="stroke:#000000;stroke-width:0.8;" x="57.6" xlink:href="#me28cdeae4c" y="146.110584"/>
      </g>
     </g>
     <g id="text_12">
      <!-- 0.3 -->
      <defs>
       <path d="M 40.578125 39.3125 
Q 47.65625 37.796875 51.625 33 
Q 55.609375 28.21875 55.609375 21.1875 
Q 55.609375 10.40625 48.1875 4.484375 
Q 40.765625 -1.421875 27.09375 -1.421875 
Q 22.515625 -1.421875 17.65625 -0.515625 
Q 12.796875 0.390625 7.625 2.203125 
L 7.625 11.71875 
Q 11.71875 9.328125 16.59375 8.109375 
Q 21.484375 6.890625 26.8125 6.890625 
Q 36.078125 6.890625 40.9375 10.546875 
Q 45.796875 14.203125 45.796875 21.1875 
Q 45.796875 27.640625 41.28125 31.265625 
Q 36.765625 34.90625 28.71875 34.90625 
L 20.21875 34.90625 
L 20.21875 43.015625 
L 29.109375 43.015625 
Q 36.375 43.015625 40.234375 45.921875 
Q 44.09375 48.828125 44.09375 54.296875 
Q 44.09375 59.90625 40.109375 62.90625 
Q 36.140625 65.921875 28.71875 65.921875 
Q 24.65625 65.921875 20.015625 65.03125 
Q 15.375 64.15625 9.8125 62.3125 
L 9.8125 71.09375 
Q 15.4375 72.65625 20.34375 73.4375 
Q 25.25 74.21875 29.59375 74.21875 
Q 40.828125 74.21875 47.359375 69.109375 
Q 53.90625 64.015625 53.90625 55.328125 
Q 53.90625 49.265625 50.4375 45.09375 
Q 46.96875 40.921875 40.578125 39.3125 
z
" id="DejaVuSans-33"/>
      </defs>
      <g transform="translate(34.696875 149.909803)scale(0.1 -0.1)">
       <use xlink:href="#DejaVuSans-30"/>
       <use x="63.623047" xlink:href="#DejaVuSans-2e"/>
       <use x="95.410156" xlink:href="#DejaVuSans-33"/>
      </g>
     </g>
    </g>
    <g id="ytick_6">
     <g id="line2d_13">
      <g>
       <use style="stroke:#000000;stroke-width:0.8;" x="57.6" xlink:href="#me28cdeae4c" y="112.586758"/>
      </g>
     </g>
     <g id="text_13">
      <!-- 0.4 -->
      <g transform="translate(34.696875 116.385976)scale(0.1 -0.1)">
       <use xlink:href="#DejaVuSans-30"/>
       <use x="63.623047" xlink:href="#DejaVuSans-2e"/>
       <use x="95.410156" xlink:href="#DejaVuSans-34"/>
      </g>
     </g>
    </g>
    <g id="ytick_7">
     <g id="line2d_14">
      <g>
       <use style="stroke:#000000;stroke-width:0.8;" x="57.6" xlink:href="#me28cdeae4c" y="79.062931"/>
      </g>
     </g>
     <g id="text_14">
      <!-- 0.5 -->
      <defs>
       <path d="M 10.796875 72.90625 
L 49.515625 72.90625 
L 49.515625 64.59375 
L 19.828125 64.59375 
L 19.828125 46.734375 
Q 21.96875 47.46875 24.109375 47.828125 
Q 26.265625 48.1875 28.421875 48.1875 
Q 40.625 48.1875 47.75 41.5 
Q 54.890625 34.8125 54.890625 23.390625 
Q 54.890625 11.625 47.5625 5.09375 
Q 40.234375 -1.421875 26.90625 -1.421875 
Q 22.3125 -1.421875 17.546875 -0.640625 
Q 12.796875 0.140625 7.71875 1.703125 
L 7.71875 11.625 
Q 12.109375 9.234375 16.796875 8.0625 
Q 21.484375 6.890625 26.703125 6.890625 
Q 35.15625 6.890625 40.078125 11.328125 
Q 45.015625 15.765625 45.015625 23.390625 
Q 45.015625 31 40.078125 35.4375 
Q 35.15625 39.890625 26.703125 39.890625 
Q 22.75 39.890625 18.8125 39.015625 
Q 14.890625 38.140625 10.796875 36.28125 
z
" id="DejaVuSans-35"/>
      </defs>
      <g transform="translate(34.696875 82.86215)scale(0.1 -0.1)">
       <use xlink:href="#DejaVuSans-30"/>
       <use x="63.623047" xlink:href="#DejaVuSans-2e"/>
       <use x="95.410156" xlink:href="#DejaVuSans-35"/>
      </g>
     </g>
    </g>
    <g id="ytick_8">
     <g id="line2d_15">
      <g>
       <use style="stroke:#000000;stroke-width:0.8;" x="57.6" xlink:href="#me28cdeae4c" y="45.539105"/>
      </g>
     </g>
     <g id="text_15">
      <!-- 0.6 -->
      <g transform="translate(34.696875 49.338324)scale(0.1 -0.1)">
       <use xlink:href="#DejaVuSans-30"/>
       <use x="63.623047" xlink:href="#DejaVuSans-2e"/>
       <use x="95.410156" xlink:href="#DejaVuSans-36"/>
      </g>
     </g>
    </g>
   </g>
   <g id="line2d_16">
    <path clip-path="url(#p34c6e2a904)" d="M 73.832727 54.537723 
L 84.700991 54.537723 
L 84.979664 53.708978 
L 85.258338 53.569952 
L 86.094358 53.610005 
L 86.930378 53.593307 
L 95.569255 53.593866 
L 96.405275 56.990345 
L 96.962622 57.820098 
L 97.241295 59.330083 
L 97.519969 60.068725 
L 97.798642 60.307904 
L 98.355989 62.203383 
L 98.634663 62.282878 
L 99.192009 63.721212 
L 99.470683 63.863777 
L 99.749356 64.262201 
L 100.306703 65.357309 
L 100.585377 65.490152 
L 100.86405 66.0932 
L 101.978744 67.206247 
L 102.536091 67.512309 
L 103.093437 68.031443 
L 103.650784 68.338042 
L 104.208131 68.665077 
L 104.486805 68.714593 
L 104.765478 69.000468 
L 105.044151 69.026778 
L 105.880172 69.423286 
L 106.158845 69.350352 
L 106.437519 69.581324 
L 106.716192 69.604162 
L 106.994865 69.743845 
L 107.273539 69.677039 
L 107.552212 69.918166 
L 108.109559 69.969779 
L 112.568334 70.609716 
L 113.125681 70.644678 
L 119.53517 70.885769 
L 127.616699 70.948706 
L 135.140882 70.960499 
L 143.779758 70.930755 
L 144.058432 68.088567 
L 144.337105 69.591713 
L 144.615778 67.90226 
L 144.894452 65.492321 
L 145.173125 67.207225 
L 145.451799 67.979052 
L 145.730472 64.634759 
L 146.009146 65.978149 
L 146.287819 66.024936 
L 146.566492 64.525148 
L 146.845166 64.663359 
L 147.123839 65.007854 
L 147.402513 64.815113 
L 147.681186 64.236364 
L 147.95986 63.939721 
L 148.238533 64.492856 
L 148.79588 63.508451 
L 149.074553 64.305587 
L 149.353227 64.223756 
L 149.6319 63.610891 
L 149.910574 64.056667 
L 150.46792 64.078137 
L 150.746594 64.02204 
L 151.303941 64.488587 
L 151.582614 64.185622 
L 152.139961 64.603464 
L 152.418634 64.604882 
L 152.697308 64.771308 
L 152.975981 64.733831 
L 153.254655 64.899067 
L 153.533328 65.220041 
L 153.812002 65.055767 
L 154.648022 65.531014 
L 155.484042 65.903393 
L 156.041389 66.06328 
L 160.22149 67.737962 
L 163.008225 68.607229 
L 168.860367 69.82136 
L 170.811081 69.873444 
L 183.908732 69.971586 
L 224.873726 69.99681 
L 298.164838 69.997582 
L 304.574327 69.93852 
L 304.853 72.224221 
L 305.131674 68.666475 
L 305.410347 63.539442 
L 305.689021 68.356142 
L 305.967694 67.207964 
L 306.246368 62.883935 
L 306.525041 65.068935 
L 306.803714 65.059176 
L 307.361061 62.58189 
L 307.918408 64.118729 
L 308.197082 62.240721 
L 308.475755 62.529948 
L 308.754428 63.623197 
L 309.033102 62.493886 
L 309.311775 62.125615 
L 309.590449 62.896373 
L 309.869122 63.012378 
L 310.147796 62.402931 
L 310.426469 62.501378 
L 310.705142 62.987943 
L 311.262489 62.567989 
L 311.819836 63.260383 
L 312.09851 63.037994 
L 312.377183 62.982946 
L 312.655856 63.493289 
L 312.93453 63.531285 
L 313.213203 63.342171 
L 313.77055 63.847495 
L 314.049224 63.84242 
L 314.885244 64.273541 
L 315.999938 64.790883 
L 316.278611 64.837821 
L 316.835958 65.184303 
L 317.114631 65.182007 
L 317.671978 65.546282 
L 317.950652 65.562908 
L 318.507998 65.915267 
L 318.786672 65.946725 
L 319.622692 66.341357 
L 321.016059 66.90835 
L 322.966773 67.710191 
L 323.245447 67.701786 
L 323.802794 67.958838 
L 324.081467 67.992097 
L 324.638814 68.198805 
L 329.376262 69.329942 
L 332.162996 69.788939 
L 332.720343 69.847834 
L 336.064425 70.152787 
L 338.851159 70.314487 
L 339.129832 70.049574 
L 339.408506 70.183563 
L 339.687179 69.794069 
L 339.965853 69.060058 
L 340.244526 69.916186 
L 340.523199 68.625944 
L 340.801873 68.360777 
L 341.080546 68.752755 
L 341.35922 68.435802 
L 341.637893 67.557236 
L 341.916567 67.90484 
L 342.473913 66.836342 
L 342.752587 66.95309 
L 343.588607 65.796157 
L 343.867281 66.055126 
L 344.145954 65.706144 
L 344.424627 65.06289 
L 344.981974 65.086515 
L 345.539321 64.230962 
L 345.817995 64.181436 
L 346.096668 63.758048 
L 348.604729 61.653924 
L 348.883402 61.370477 
L 349.440749 61.038108 
L 351.11279 60.039934 
L 351.391463 59.737744 
L 351.670137 59.660452 
L 352.227483 59.335635 
L 353.063504 58.908725 
L 353.899524 58.553381 
L 354.178197 58.539335 
L 354.735544 58.238508 
L 355.850238 57.788529 
L 356.407585 57.627832 
L 356.686258 57.448143 
L 357.243605 57.336832 
L 358.915646 56.837762 
L 360.587686 56.400895 
L 361.70238 56.196102 
L 363.095747 55.924177 
L 363.931767 55.766672 
L 365.325135 55.502052 
L 366.161155 55.401144 
L 367.554522 55.274806 
L 369.783909 55.03736 
L 374.521358 54.739318 
L 379.816153 54.552704 
L 392.356457 54.419489 
L 398.487273 54.419361 
L 398.487273 54.419361 
" style="fill:none;stroke:#ff0000;stroke-dasharray:5.55,2.4;stroke-dashoffset:0;stroke-width:1.5;"/>
   </g>
   <g id="line2d_17">
    <path clip-path="url(#p34c6e2a904)" d="M 73.832727 189.114479 
L 84.700991 189.114479 
L 84.979664 186.173678 
L 85.258338 185.717088 
L 85.537011 185.789035 
L 85.815685 185.686046 
L 86.094358 185.791152 
L 86.373032 185.702536 
L 86.930378 185.746624 
L 91.9465 185.753738 
L 95.847928 185.890785 
L 96.126602 186.372522 
L 96.405275 186.186427 
L 96.962622 188.394691 
L 97.241295 188.334138 
L 97.519969 189.440175 
L 98.355989 190.336606 
L 98.634663 190.487072 
L 98.913336 190.89129 
L 99.192009 190.804551 
L 99.470683 191.289598 
L 100.02803 191.675295 
L 100.86405 192.490135 
L 101.142723 192.583455 
L 101.421397 192.899438 
L 101.978744 193.098212 
L 103.650784 193.869192 
L 103.929458 193.914606 
L 104.486805 194.184409 
L 104.765478 194.159748 
L 105.322825 194.389569 
L 107.273539 194.85236 
L 108.666906 195.009056 
L 108.945579 195.132091 
L 109.7816 195.198958 
L 113.961701 195.526126 
L 133.190168 195.793817 
L 144.058432 195.745988 
L 144.337105 193.933836 
L 144.615778 195.812092 
L 145.173125 194.730631 
L 145.451799 195.448258 
L 145.730472 195.492815 
L 146.009146 196.062707 
L 146.287819 195.264178 
L 146.566492 195.658866 
L 146.845166 196.39466 
L 147.123839 195.436662 
L 147.402513 195.157016 
L 147.681186 195.955645 
L 147.95986 195.289 
L 148.238533 195.071977 
L 148.517206 195.543257 
L 148.79588 195.263552 
L 149.353227 195.20845 
L 149.910574 195.297241 
L 150.189247 195.034912 
L 150.746594 195.217652 
L 151.025267 194.843925 
L 151.303941 195.064394 
L 151.582614 195.077707 
L 151.861288 194.843539 
L 152.139961 195.003995 
L 152.418634 194.700329 
L 152.697308 194.868149 
L 152.975981 194.832838 
L 153.254655 194.624253 
L 153.533328 194.787554 
L 154.090675 194.638559 
L 154.369348 194.725357 
L 154.648022 194.463971 
L 155.205369 194.59825 
L 155.484042 194.37565 
L 155.762716 194.49937 
L 156.598736 194.319476 
L 158.270776 194.203113 
L 158.54945 194.100491 
L 159.106797 194.109366 
L 161.336184 193.905233 
L 165.516286 193.622926 
L 166.630979 193.568561 
L 169.97506 193.477839 
L 173.876488 193.409532 
L 174.155162 193.507724 
L 174.991182 193.388868 
L 175.548529 193.347814 
L 177.499243 193.377966 
L 178.05659 193.328025 
L 178.613937 193.370979 
L 196.449036 193.263899 
L 196.72771 193.321977 
L 197.56373 193.241309 
L 198.121077 193.294019 
L 198.678424 193.238966 
L 199.235771 193.283705 
L 201.743831 193.247859 
L 202.301178 193.298067 
L 202.858525 193.253121 
L 203.415872 193.259941 
L 204.530566 193.272624 
L 204.809239 193.325269 
L 205.366586 193.229823 
L 205.923933 193.318233 
L 206.48128 193.228392 
L 207.038627 193.25695 
L 209.825361 193.251987 
L 210.382708 193.296061 
L 210.940055 193.252916 
L 211.497401 193.311077 
L 212.054748 193.22206 
L 213.726789 193.283706 
L 214.284136 193.26255 
L 214.841483 193.239867 
L 215.120156 193.226457 
L 215.398829 193.334069 
L 215.956176 193.223015 
L 216.513523 193.284111 
L 217.07087 193.288084 
L 218.185564 193.295754 
L 218.742911 193.243741 
L 219.578931 193.296188 
L 220.414951 193.226939 
L 221.250972 193.317115 
L 283.952493 193.285544 
L 284.231167 193.324079 
L 284.788513 193.231193 
L 285.34586 193.258793 
L 285.903207 193.231434 
L 286.460554 193.226767 
L 287.296574 193.261285 
L 297.050144 193.290318 
L 297.328818 193.315019 
L 297.607491 193.220097 
L 298.164838 193.219636 
L 304.574327 193.324315 
L 304.853 192.540068 
L 305.131674 195.609252 
L 305.689021 193.111028 
L 305.967694 193.360139 
L 306.246368 192.846868 
L 306.525041 192.970026 
L 306.803714 190.543729 
L 307.082388 192.079406 
L 307.361061 192.530191 
L 307.639735 190.753707 
L 308.197082 192.147511 
L 308.475755 191.536112 
L 308.754428 191.712832 
L 309.033102 191.590206 
L 309.311775 192.088842 
L 309.869122 191.260243 
L 310.147796 191.736127 
L 310.705142 191.215104 
L 310.983816 191.460303 
L 311.262489 191.506394 
L 311.541163 191.334113 
L 311.819836 191.319591 
L 312.09851 191.500204 
L 312.377183 191.518288 
L 312.655856 191.34409 
L 313.213203 191.502231 
L 318.229325 191.731336 
L 319.065345 191.840819 
L 319.344019 191.78714 
L 319.901366 191.893721 
L 320.458712 191.912948 
L 322.130753 192.022308 
L 322.966773 192.078342 
L 330.769629 192.451101 
L 332.999017 192.502209 
L 335.507078 192.55005 
L 338.851159 192.593608 
L 339.129832 192.910286 
L 339.408506 191.852979 
L 339.687179 193.022716 
L 339.965853 192.348605 
L 340.244526 192.225606 
L 340.523199 192.438939 
L 340.801873 191.991599 
L 341.080546 192.107174 
L 341.35922 191.698312 
L 341.637893 191.928096 
L 342.19524 191.407672 
L 342.473913 191.631008 
L 342.752587 191.171377 
L 343.03126 191.075949 
L 343.588607 191.042339 
L 343.867281 190.748697 
L 344.145954 190.777194 
L 344.424627 190.594222 
L 344.981974 190.486985 
L 345.260648 190.269738 
L 345.539321 190.344941 
L 345.817995 190.008796 
L 346.096668 189.999354 
L 346.932688 189.626472 
L 347.768709 189.36743 
L 349.998096 188.56743 
L 351.11279 188.304815 
L 351.94881 188.038656 
L 356.964932 187.161665 
L 358.636972 186.937098 
L 364.767788 186.386563 
L 365.882481 186.335941 
L 366.718502 186.271504 
L 369.505236 186.128844 
L 372.013297 186.070449 
L 373.406664 186.020158 
L 390.684417 185.862123 
L 398.487273 185.861948 
L 398.487273 185.861948 
" style="fill:none;stroke:#008000;stroke-linecap:square;stroke-width:1.5;"/>
   </g>
   <g id="line2d_18">
    <path clip-path="url(#p34c6e2a904)" d="M 73.832727 220.104431 
L 95.569255 220.037828 
L 95.847928 219.59738 
L 96.126602 220.916919 
L 96.405275 221.212645 
L 96.962622 221.198064 
L 97.519969 222.029716 
L 97.798642 221.829658 
L 98.355989 222.344353 
L 98.634663 222.183559 
L 98.913336 222.239106 
L 99.192009 222.414299 
L 99.470683 222.419883 
L 99.749356 222.228655 
L 100.02803 222.374228 
L 103.093437 221.451092 
L 104.208131 220.975731 
L 104.765478 220.804615 
L 106.158845 220.31473 
L 106.437519 220.154749 
L 106.716192 220.136467 
L 107.273539 219.891907 
L 108.666906 219.364686 
L 113.125681 218.105158 
L 120.649863 216.818654 
L 129.010066 216.22116 
L 134.583535 216.038686 
L 143.779758 215.952715 
L 144.337105 223.928707 
L 144.894452 227.291773 
L 145.730472 233.822879 
L 146.566492 240.124328 
L 146.845166 241.370903 
L 147.402513 245.362576 
L 147.681186 246.569112 
L 148.238533 250.291475 
L 149.6319 257.405535 
L 151.303941 265.406327 
L 153.533328 273.190604 
L 155.762716 279.003337 
L 158.828123 284.980163 
L 161.614858 288.771378 
L 164.680265 291.691787 
L 165.794959 292.411572 
L 166.630979 293.049639 
L 168.024346 293.849461 
L 169.13904 294.336429 
L 171.925774 294.855075 
L 173.319142 295.099295 
L 174.155162 295.4551 
L 177.22057 295.449657 
L 180.285977 295.464839 
L 304.295654 295.484238 
L 304.574327 295.220352 
L 305.689021 283.367865 
L 305.967694 281.288094 
L 306.246368 277.035582 
L 306.525041 275.447572 
L 306.803714 274.510166 
L 307.361061 269.172324 
L 307.639735 268.317538 
L 307.918408 266.651496 
L 308.197082 263.937587 
L 309.590449 256.357012 
L 309.869122 255.419869 
L 310.426469 251.916107 
L 310.705142 250.959554 
L 311.541163 247.107838 
L 312.09851 245.088265 
L 312.655856 243.148726 
L 315.163917 235.631112 
L 318.507998 228.981468 
L 320.737386 225.548082 
L 321.294733 224.832978 
L 322.6881 223.056907 
L 325.753508 220.219282 
L 326.868201 219.418371 
L 330.490956 217.461222 
L 335.228404 216.026579 
L 338.851159 215.478816 
L 339.129832 216.722668 
L 339.408506 217.031384 
L 339.687179 216.969145 
L 340.244526 218.080987 
L 340.801873 218.329948 
L 341.080546 218.936078 
L 341.637893 219.164537 
L 341.916567 219.526532 
L 342.19524 219.694379 
L 342.473913 219.724473 
L 343.03126 220.25259 
L 343.309934 220.095408 
L 343.588607 220.315486 
L 343.867281 220.355278 
L 344.145954 220.572915 
L 344.703301 220.573401 
L 345.260648 220.713044 
L 347.768709 221.004029 
L 350.276769 220.893167 
L 350.834116 220.852946 
L 354.735544 220.567402 
L 356.407585 220.429877 
L 368.111869 219.75183 
L 384.274928 219.510651 
L 398.487273 219.49543 
L 398.487273 219.49543 
" style="fill:none;stroke:#0000ff;stroke-dasharray:5.55,2.4;stroke-dashoffset:0;stroke-width:1.5;"/>
   </g>
   <g id="line2d_19">
    <path clip-path="url(#p34c6e2a904)" d="M 305.410347 307.584 
L 305.410347 41.472 
" style="fill:none;stroke:#bf00bf;stroke-linecap:square;stroke-width:1.5;"/>
   </g>
   <g id="line2d_20">
    <path clip-path="url(#p34c6e2a904)" d="M 304.574327 307.584 
L 304.574327 41.472 
" style="fill:none;stroke:#bf00bf;stroke-linecap:square;stroke-width:1.5;"/>
   </g>
   <g id="line2d_21">
    <path clip-path="url(#p34c6e2a904)" d="M 306.803714 307.584 
L 306.803714 41.472 
" style="fill:none;stroke:#bf00bf;stroke-linecap:square;stroke-width:1.5;"/>
   </g>
   <g id="line2d_22">
    <path clip-path="url(#p34c6e2a904)" d="M 304.853 307.584 
L 304.853 41.472 
" style="fill:none;stroke:#bf00bf;stroke-linecap:square;stroke-width:1.5;"/>
   </g>
   <g id="line2d_23">
    <path clip-path="url(#p34c6e2a904)" d="M 322.409426 307.584 
L 322.409426 41.472 
" style="fill:none;stroke:#bf00bf;stroke-linecap:square;stroke-width:1.5;"/>
   </g>
   <g id="line2d_24">
    <path clip-path="url(#p34c6e2a904)" d="M 307.918408 307.584 
L 307.918408 41.472 
" style="fill:none;stroke:#bf00bf;stroke-linecap:square;stroke-width:1.5;"/>
   </g>
   <g id="line2d_25">
    <path clip-path="url(#p34c6e2a904)" d="M 304.853 307.584 
L 304.853 41.472 
" style="fill:none;stroke:#bf00bf;stroke-linecap:square;stroke-width:1.5;"/>
   </g>
   <g id="line2d_26">
    <path clip-path="url(#p34c6e2a904)" d="M 304.01698 307.584 
L 304.01698 41.472 
" style="fill:none;stroke:#bf00bf;stroke-linecap:square;stroke-width:1.5;"/>
   </g>
   <g id="line2d_27">
    <path clip-path="url(#p34c6e2a904)" d="M 316.557284 307.584 
L 316.557284 41.472 
" style="fill:none;stroke:#bf00bf;stroke-linecap:square;stroke-width:1.5;"/>
   </g>
   <g id="line2d_28">
    <path clip-path="url(#p34c6e2a904)" d="M 312.09851 307.584 
L 312.09851 41.472 
" style="fill:none;stroke:#bf00bf;stroke-linecap:square;stroke-width:1.5;"/>
   </g>
   <g id="line2d_29">
    <path clip-path="url(#p34c6e2a904)" d="M 356.686258 307.584 
L 356.686258 41.472 
" style="fill:none;stroke:#00bfbf;stroke-linecap:square;stroke-width:1.5;"/>
   </g>
   <g id="line2d_30">
    <path clip-path="url(#p34c6e2a904)" d="M 348.047382 307.584 
L 348.047382 41.472 
" style="fill:none;stroke:#00bfbf;stroke-linecap:square;stroke-width:1.5;"/>
   </g>
   <g id="line2d_31">
    <path clip-path="url(#p34c6e2a904)" d="M 387.897682 307.584 
L 387.897682 41.472 
" style="fill:none;stroke:#00bfbf;stroke-linecap:square;stroke-width:1.5;"/>
   </g>
   <g id="line2d_32">
    <path clip-path="url(#p34c6e2a904)" d="M 371.45595 307.584 
L 371.45595 41.472 
" style="fill:none;stroke:#00bfbf;stroke-linecap:square;stroke-width:1.5;"/>
   </g>
   <g id="line2d_33">
    <path clip-path="url(#p34c6e2a904)" d="M 356.407585 307.584 
L 356.407585 41.472 
" style="fill:none;stroke:#00bfbf;stroke-linecap:square;stroke-width:1.5;"/>
   </g>
   <g id="line2d_34">
    <path clip-path="url(#p34c6e2a904)" d="M 343.867281 307.584 
L 343.867281 41.472 
" style="fill:none;stroke:#00bfbf;stroke-linecap:square;stroke-width:1.5;"/>
   </g>
   <g id="line2d_35">
    <path clip-path="url(#p34c6e2a904)" d="M 386.782989 307.584 
L 386.782989 41.472 
" style="fill:none;stroke:#00bfbf;stroke-linecap:square;stroke-width:1.5;"/>
   </g>
   <g id="line2d_36">
    <path clip-path="url(#p34c6e2a904)" d="M 371.177277 307.584 
L 371.177277 41.472 
" style="fill:none;stroke:#00bfbf;stroke-linecap:square;stroke-width:1.5;"/>
   </g>
   <g id="line2d_37">
    <path clip-path="url(#p34c6e2a904)" d="M 387.619009 307.584 
L 387.619009 41.472 
" style="fill:none;stroke:#00bfbf;stroke-linecap:square;stroke-width:1.5;"/>
   </g>
   <g id="line2d_38">
    <path clip-path="url(#p34c6e2a904)" d="M 365.046461 307.584 
L 365.046461 41.472 
" style="fill:none;stroke:#00bfbf;stroke-linecap:square;stroke-width:1.5;"/>
   </g>
   <g id="line2d_39">
    <path clip-path="url(#p34c6e2a904)" d="M 342.752587 307.584 
L 342.752587 41.472 
" style="fill:none;stroke:#00bfbf;stroke-linecap:square;stroke-width:1.5;"/>
   </g>
   <g id="line2d_40">
    <path clip-path="url(#p34c6e2a904)" d="M 84.979664 307.584 
L 84.979664 41.472 
" style="fill:none;stroke:#bfbf00;stroke-linecap:square;stroke-width:1.5;"/>
   </g>
   <g id="line2d_41">
    <path clip-path="url(#p34c6e2a904)" d="M 95.847928 307.584 
L 95.847928 41.472 
" style="fill:none;stroke:#bfbf00;stroke-linecap:square;stroke-width:1.5;"/>
   </g>
   <g id="line2d_42">
    <path clip-path="url(#p34c6e2a904)" d="M 168.024346 307.584 
L 168.024346 41.472 
" style="fill:none;stroke:#bfbf00;stroke-linecap:square;stroke-width:1.5;"/>
   </g>
   <g id="line2d_43">
    <path clip-path="url(#p34c6e2a904)" d="M 100.306703 307.584 
L 100.306703 41.472 
" style="fill:none;stroke:#bfbf00;stroke-linecap:square;stroke-width:1.5;"/>
   </g>
   <g id="line2d_44">
    <path clip-path="url(#p34c6e2a904)" d="M 144.615778 307.584 
L 144.615778 41.472 
" style="fill:none;stroke:#bfbf00;stroke-linecap:square;stroke-width:1.5;"/>
   </g>
   <g id="line2d_45">
    <path clip-path="url(#p34c6e2a904)" d="M 108.666906 307.584 
L 108.666906 41.472 
" style="fill:none;stroke:#bfbf00;stroke-linecap:square;stroke-width:1.5;"/>
   </g>
   <g id="line2d_46">
    <path clip-path="url(#p34c6e2a904)" d="M 158.54945 307.584 
L 158.54945 41.472 
" style="fill:none;stroke:#bfbf00;stroke-linecap:square;stroke-width:1.5;"/>
   </g>
   <g id="line2d_47">
    <path clip-path="url(#p34c6e2a904)" d="M 188.924854 307.584 
L 188.924854 41.472 
" style="fill:none;stroke:#bfbf00;stroke-linecap:square;stroke-width:1.5;"/>
   </g>
   <g id="line2d_48">
    <path clip-path="url(#p34c6e2a904)" d="M 84.979664 307.584 
L 84.979664 41.472 
" style="fill:none;stroke:#bfbf00;stroke-linecap:square;stroke-width:1.5;"/>
   </g>
   <g id="line2d_49">
    <path clip-path="url(#p34c6e2a904)" d="M 96.126602 307.584 
L 96.126602 41.472 
" style="fill:none;stroke:#bfbf00;stroke-linecap:square;stroke-width:1.5;"/>
   </g>
   <g id="line2d_50">
    <path clip-path="url(#p34c6e2a904)" d="M 166.073632 307.584 
L 166.073632 41.472 
" style="fill:none;stroke:#bfbf00;stroke-linecap:square;stroke-width:1.5;"/>
   </g>
   <g id="line2d_51">
    <path clip-path="url(#p34c6e2a904)" d="M 103.650784 307.584 
L 103.650784 41.472 
" style="fill:none;stroke:#bfbf00;stroke-linecap:square;stroke-width:1.5;"/>
   </g>
   <g id="line2d_52">
    <path clip-path="url(#p34c6e2a904)" d="M 154.648022 307.584 
L 154.648022 41.472 
" style="fill:none;stroke:#bfbf00;stroke-linecap:square;stroke-width:1.5;"/>
   </g>
   <g id="line2d_53">
    <path clip-path="url(#p34c6e2a904)" d="M 181.121998 307.584 
L 181.121998 41.472 
" style="fill:none;stroke:#bfbf00;stroke-linecap:square;stroke-width:1.5;"/>
   </g>
   <g id="line2d_54">
    <path clip-path="url(#p34c6e2a904)" d="M 144.894452 307.584 
L 144.894452 41.472 
" style="fill:none;stroke:#bfbf00;stroke-linecap:square;stroke-width:1.5;"/>
   </g>
   <g id="line2d_55">
    <path clip-path="url(#p34c6e2a904)" d="M 84.979664 307.584 
L 84.979664 41.472 
" style="fill:none;stroke:#bfbf00;stroke-linecap:square;stroke-width:1.5;"/>
   </g>
   <g id="line2d_56">
    <path clip-path="url(#p34c6e2a904)" d="M 95.847928 307.584 
L 95.847928 41.472 
" style="fill:none;stroke:#bfbf00;stroke-linecap:square;stroke-width:1.5;"/>
   </g>
   <g id="line2d_57">
    <path clip-path="url(#p34c6e2a904)" d="M 108.945579 307.584 
L 108.945579 41.472 
" style="fill:none;stroke:#bfbf00;stroke-linecap:square;stroke-width:1.5;"/>
   </g>
   <g id="line2d_58">
    <path clip-path="url(#p34c6e2a904)" d="M 144.058432 307.584 
L 144.058432 41.472 
" style="fill:none;stroke:#bfbf00;stroke-linecap:square;stroke-width:1.5;"/>
   </g>
   <g id="line2d_59">
    <path clip-path="url(#p34c6e2a904)" d="M 126.780679 307.584 
L 126.780679 41.472 
" style="fill:none;stroke:#bfbf00;stroke-linecap:square;stroke-width:1.5;"/>
   </g>
   <g id="line2d_60">
    <path clip-path="url(#p34c6e2a904)" d="M 117.863129 307.584 
L 117.863129 41.472 
" style="fill:none;stroke:#bfbf00;stroke-linecap:square;stroke-width:1.5;"/>
   </g>
   <g id="line2d_61">
    <path clip-path="url(#p34c6e2a904)" d="M 161.614858 307.584 
L 161.614858 41.472 
" style="fill:none;stroke:#bfbf00;stroke-linecap:square;stroke-width:1.5;"/>
   </g>
   <g id="line2d_62">
    <path clip-path="url(#p34c6e2a904)" d="M 151.025267 307.584 
L 151.025267 41.472 
" style="fill:none;stroke:#bfbf00;stroke-linecap:square;stroke-width:1.5;"/>
   </g>
   <g id="line2d_63">
    <path clip-path="url(#p34c6e2a904)" d="M 155.762716 307.584 
L 155.762716 41.472 
" style="fill:none;stroke:#bfbf00;stroke-linecap:square;stroke-width:1.5;"/>
   </g>
   <g id="line2d_64">
    <path clip-path="url(#p34c6e2a904)" d="M 174.155162 307.584 
L 174.155162 41.472 
" style="fill:none;stroke:#bfbf00;stroke-linecap:square;stroke-width:1.5;"/>
   </g>
   <g id="line2d_65">
    <path clip-path="url(#p34c6e2a904)" d="M 167.745673 307.584 
L 167.745673 41.472 
" style="fill:none;stroke:#bfbf00;stroke-linecap:square;stroke-width:1.5;"/>
   </g>
   <g id="line2d_66">
    <path clip-path="url(#p34c6e2a904)" d="M 189.203527 307.584 
L 189.203527 41.472 
" style="fill:none;stroke:#bfbf00;stroke-linecap:square;stroke-width:1.5;"/>
   </g>
   <g id="line2d_67">
    <path clip-path="url(#p34c6e2a904)" d="M 342.752587 307.584 
L 342.752587 41.472 
" style="fill:none;stroke:#000000;stroke-linecap:square;stroke-width:1.5;"/>
   </g>
   <g id="line2d_68">
    <path clip-path="url(#p34c6e2a904)" d="M 387.897682 307.584 
L 387.897682 41.472 
" style="fill:none;stroke:#000000;stroke-linecap:square;stroke-width:1.5;"/>
   </g>
   <g id="line2d_69">
    <path clip-path="url(#p34c6e2a904)" d="M 365.249133 307.584 
L 365.249133 41.472 
" style="fill:none;stroke:#000000;stroke-linecap:square;stroke-width:1.5;"/>
   </g>
   <g id="line2d_70">
    <path clip-path="url(#p34c6e2a904)" d="M 84.979664 307.584 
L 84.979664 41.472 
" style="fill:none;stroke:#000000;stroke-linecap:square;stroke-width:1.5;"/>
   </g>
   <g id="line2d_71">
    <path clip-path="url(#p34c6e2a904)" d="M 189.203527 307.584 
L 189.203527 41.472 
" style="fill:none;stroke:#000000;stroke-linecap:square;stroke-width:1.5;"/>
   </g>
   <g id="line2d_72">
    <path clip-path="url(#p34c6e2a904)" d="M 135.533089 307.584 
L 135.533089 41.472 
" style="fill:none;stroke:#000000;stroke-linecap:square;stroke-width:1.5;"/>
   </g>
   <g id="patch_3">
    <path d="M 57.6 307.584 
L 57.6 41.472 
" style="fill:none;stroke:#000000;stroke-linecap:square;stroke-linejoin:miter;stroke-width:0.8;"/>
   </g>
   <g id="patch_4">
    <path d="M 414.72 307.584 
L 414.72 41.472 
" style="fill:none;stroke:#000000;stroke-linecap:square;stroke-linejoin:miter;stroke-width:0.8;"/>
   </g>
   <g id="patch_5">
    <path d="M 57.6 307.584 
L 414.72 307.584 
" style="fill:none;stroke:#000000;stroke-linecap:square;stroke-linejoin:miter;stroke-width:0.8;"/>
   </g>
   <g id="patch_6">
    <path d="M 57.6 41.472 
L 414.72 41.472 
" style="fill:none;stroke:#000000;stroke-linecap:square;stroke-linejoin:miter;stroke-width:0.8;"/>
   </g>
  </g>
 </g>
 <defs>
  <clipPath id="p34c6e2a904">
   <rect height="266.112" width="357.12" x="57.6" y="41.472"/>
  </clipPath>
 </defs>
</svg>
