<?xml version="1.0" encoding="utf-8" standalone="no"?>
<!DOCTYPE svg PUBLIC "-//W3C//DTD SVG 1.1//EN"
  "http://www.w3.org/Graphics/SVG/1.1/DTD/svg11.dtd">
<!-- Created with matplotlib (http://matplotlib.org/) -->
<svg height="345pt" version="1.1" viewBox="0 0 460 345" width="460pt" xmlns="http://www.w3.org/2000/svg" xmlns:xlink="http://www.w3.org/1999/xlink">
 <defs>
  <style type="text/css">
*{stroke-linecap:butt;stroke-linejoin:round;}
  </style>
 </defs>
 <g id="figure_1">
  <g id="patch_1">
   <path d="M 0 345.6 
L 460.8 345.6 
L 460.8 0 
L 0 0 
z
" style="fill:#ffffff;"/>
  </g>
  <g id="axes_1">
   <g id="patch_2">
    <path d="M 57.6 307.584 
L 414.72 307.584 
L 414.72 41.472 
L 57.6 41.472 
z
" style="fill:#ffffff;"/>
   </g>
   <g id="matplotlib.axis_1">
    <g id="xtick_1">
     <g id="line2d_1">
      <defs>
       <path d="M 0 0 
L 0 3.5 
" id="m9e84ea3ebd" style="stroke:#000000;stroke-width:0.8;"/>
      </defs>
      <g>
       <use style="stroke:#000000;stroke-width:0.8;" x="73.832727" xlink:href="#m9e84ea3ebd" y="307.584"/>
      </g>
     </g>
     <g id="text_1">
      <!-- 0 -->
      <defs>
       <path d="M 31.78125 66.40625 
Q 24.171875 66.40625 20.328125 58.90625 
Q 16.5 51.421875 16.5 36.375 
Q 16.5 21.390625 20.328125 13.890625 
Q 24.171875 6.390625 31.78125 6.390625 
Q 39.453125 6.390625 43.28125 13.890625 
Q 47.125 21.390625 47.125 36.375 
Q 47.125 51.421875 43.28125 58.90625 
Q 39.453125 66.40625 31.78125 66.40625 
z
M 31.78125 74.21875 
Q 44.046875 74.21875 50.515625 64.515625 
Q 56.984375 54.828125 56.984375 36.375 
Q 56.984375 17.96875 50.515625 8.265625 
Q 44.046875 -1.421875 31.78125 -1.421875 
Q 19.53125 -1.421875 13.0625 8.265625 
Q 6.59375 17.96875 6.59375 36.375 
Q 6.59375 54.828125 13.0625 64.515625 
Q 19.53125 74.21875 31.78125 74.21875 
z
" id="DejaVuSans-30"/>
      </defs>
      <g transform="translate(70.651477 322.182437)scale(0.1 -0.1)">
       <use xlink:href="#DejaVuSans-30"/>
      </g>
     </g>
    </g>
    <g id="xtick_2">
     <g id="line2d_2">
      <g>
       <use style="stroke:#000000;stroke-width:0.8;" x="119.270732" xlink:href="#m9e84ea3ebd" y="307.584"/>
      </g>
     </g>
     <g id="text_2">
      <!-- 200 -->
      <defs>
       <path d="M 19.1875 8.296875 
L 53.609375 8.296875 
L 53.609375 0 
L 7.328125 0 
L 7.328125 8.296875 
Q 12.9375 14.109375 22.625 23.890625 
Q 32.328125 33.6875 34.8125 36.53125 
Q 39.546875 41.84375 41.421875 45.53125 
Q 43.3125 49.21875 43.3125 52.78125 
Q 43.3125 58.59375 39.234375 62.25 
Q 35.15625 65.921875 28.609375 65.921875 
Q 23.96875 65.921875 18.8125 64.3125 
Q 13.671875 62.703125 7.8125 59.421875 
L 7.8125 69.390625 
Q 13.765625 71.78125 18.9375 73 
Q 24.125 74.21875 28.421875 74.21875 
Q 39.75 74.21875 46.484375 68.546875 
Q 53.21875 62.890625 53.21875 53.421875 
Q 53.21875 48.921875 51.53125 44.890625 
Q 49.859375 40.875 45.40625 35.40625 
Q 44.1875 33.984375 37.640625 27.21875 
Q 31.109375 20.453125 19.1875 8.296875 
z
" id="DejaVuSans-32"/>
      </defs>
      <g transform="translate(109.726982 322.182437)scale(0.1 -0.1)">
       <use xlink:href="#DejaVuSans-32"/>
       <use x="63.623047" xlink:href="#DejaVuSans-30"/>
       <use x="127.246094" xlink:href="#DejaVuSans-30"/>
      </g>
     </g>
    </g>
    <g id="xtick_3">
     <g id="line2d_3">
      <g>
       <use style="stroke:#000000;stroke-width:0.8;" x="164.708737" xlink:href="#m9e84ea3ebd" y="307.584"/>
      </g>
     </g>
     <g id="text_3">
      <!-- 400 -->
      <defs>
       <path d="M 37.796875 64.3125 
L 12.890625 25.390625 
L 37.796875 25.390625 
z
M 35.203125 72.90625 
L 47.609375 72.90625 
L 47.609375 25.390625 
L 58.015625 25.390625 
L 58.015625 17.1875 
L 47.609375 17.1875 
L 47.609375 0 
L 37.796875 0 
L 37.796875 17.1875 
L 4.890625 17.1875 
L 4.890625 26.703125 
z
" id="DejaVuSans-34"/>
      </defs>
      <g transform="translate(155.164987 322.182437)scale(0.1 -0.1)">
       <use xlink:href="#DejaVuSans-34"/>
       <use x="63.623047" xlink:href="#DejaVuSans-30"/>
       <use x="127.246094" xlink:href="#DejaVuSans-30"/>
      </g>
     </g>
    </g>
    <g id="xtick_4">
     <g id="line2d_4">
      <g>
       <use style="stroke:#000000;stroke-width:0.8;" x="210.146742" xlink:href="#m9e84ea3ebd" y="307.584"/>
      </g>
     </g>
     <g id="text_4">
      <!-- 600 -->
      <defs>
       <path d="M 33.015625 40.375 
Q 26.375 40.375 22.484375 35.828125 
Q 18.609375 31.296875 18.609375 23.390625 
Q 18.609375 15.53125 22.484375 10.953125 
Q 26.375 6.390625 33.015625 6.390625 
Q 39.65625 6.390625 43.53125 10.953125 
Q 47.40625 15.53125 47.40625 23.390625 
Q 47.40625 31.296875 43.53125 35.828125 
Q 39.65625 40.375 33.015625 40.375 
z
M 52.59375 71.296875 
L 52.59375 62.3125 
Q 48.875 64.0625 45.09375 64.984375 
Q 41.3125 65.921875 37.59375 65.921875 
Q 27.828125 65.921875 22.671875 59.328125 
Q 17.53125 52.734375 16.796875 39.40625 
Q 19.671875 43.65625 24.015625 45.921875 
Q 28.375 48.1875 33.59375 48.1875 
Q 44.578125 48.1875 50.953125 41.515625 
Q 57.328125 34.859375 57.328125 23.390625 
Q 57.328125 12.15625 50.6875 5.359375 
Q 44.046875 -1.421875 33.015625 -1.421875 
Q 20.359375 -1.421875 13.671875 8.265625 
Q 6.984375 17.96875 6.984375 36.375 
Q 6.984375 53.65625 15.1875 63.9375 
Q 23.390625 74.21875 37.203125 74.21875 
Q 40.921875 74.21875 44.703125 73.484375 
Q 48.484375 72.75 52.59375 71.296875 
z
" id="DejaVuSans-36"/>
      </defs>
      <g transform="translate(200.602992 322.182437)scale(0.1 -0.1)">
       <use xlink:href="#DejaVuSans-36"/>
       <use x="63.623047" xlink:href="#DejaVuSans-30"/>
       <use x="127.246094" xlink:href="#DejaVuSans-30"/>
      </g>
     </g>
    </g>
    <g id="xtick_5">
     <g id="line2d_5">
      <g>
       <use style="stroke:#000000;stroke-width:0.8;" x="255.584747" xlink:href="#m9e84ea3ebd" y="307.584"/>
      </g>
     </g>
     <g id="text_5">
      <!-- 800 -->
      <defs>
       <path d="M 31.78125 34.625 
Q 24.75 34.625 20.71875 30.859375 
Q 16.703125 27.09375 16.703125 20.515625 
Q 16.703125 13.921875 20.71875 10.15625 
Q 24.75 6.390625 31.78125 6.390625 
Q 38.8125 6.390625 42.859375 10.171875 
Q 46.921875 13.96875 46.921875 20.515625 
Q 46.921875 27.09375 42.890625 30.859375 
Q 38.875 34.625 31.78125 34.625 
z
M 21.921875 38.8125 
Q 15.578125 40.375 12.03125 44.71875 
Q 8.5 49.078125 8.5 55.328125 
Q 8.5 64.0625 14.71875 69.140625 
Q 20.953125 74.21875 31.78125 74.21875 
Q 42.671875 74.21875 48.875 69.140625 
Q 55.078125 64.0625 55.078125 55.328125 
Q 55.078125 49.078125 51.53125 44.71875 
Q 48 40.375 41.703125 38.8125 
Q 48.828125 37.15625 52.796875 32.3125 
Q 56.78125 27.484375 56.78125 20.515625 
Q 56.78125 9.90625 50.3125 4.234375 
Q 43.84375 -1.421875 31.78125 -1.421875 
Q 19.734375 -1.421875 13.25 4.234375 
Q 6.78125 9.90625 6.78125 20.515625 
Q 6.78125 27.484375 10.78125 32.3125 
Q 14.796875 37.15625 21.921875 38.8125 
z
M 18.3125 54.390625 
Q 18.3125 48.734375 21.84375 45.5625 
Q 25.390625 42.390625 31.78125 42.390625 
Q 38.140625 42.390625 41.71875 45.5625 
Q 45.3125 48.734375 45.3125 54.390625 
Q 45.3125 60.0625 41.71875 63.234375 
Q 38.140625 66.40625 31.78125 66.40625 
Q 25.390625 66.40625 21.84375 63.234375 
Q 18.3125 60.0625 18.3125 54.390625 
z
" id="DejaVuSans-38"/>
      </defs>
      <g transform="translate(246.040997 322.182437)scale(0.1 -0.1)">
       <use xlink:href="#DejaVuSans-38"/>
       <use x="63.623047" xlink:href="#DejaVuSans-30"/>
       <use x="127.246094" xlink:href="#DejaVuSans-30"/>
      </g>
     </g>
    </g>
    <g id="xtick_6">
     <g id="line2d_6">
      <g>
       <use style="stroke:#000000;stroke-width:0.8;" x="301.022752" xlink:href="#m9e84ea3ebd" y="307.584"/>
      </g>
     </g>
     <g id="text_6">
      <!-- 1000 -->
      <defs>
       <path d="M 12.40625 8.296875 
L 28.515625 8.296875 
L 28.515625 63.921875 
L 10.984375 60.40625 
L 10.984375 69.390625 
L 28.421875 72.90625 
L 38.28125 72.90625 
L 38.28125 8.296875 
L 54.390625 8.296875 
L 54.390625 0 
L 12.40625 0 
z
" id="DejaVuSans-31"/>
      </defs>
      <g transform="translate(288.297752 322.182437)scale(0.1 -0.1)">
       <use xlink:href="#DejaVuSans-31"/>
       <use x="63.623047" xlink:href="#DejaVuSans-30"/>
       <use x="127.246094" xlink:href="#DejaVuSans-30"/>
       <use x="190.869141" xlink:href="#DejaVuSans-30"/>
      </g>
     </g>
    </g>
    <g id="xtick_7">
     <g id="line2d_7">
      <g>
       <use style="stroke:#000000;stroke-width:0.8;" x="346.460757" xlink:href="#m9e84ea3ebd" y="307.584"/>
      </g>
     </g>
     <g id="text_7">
      <!-- 1200 -->
      <g transform="translate(333.735757 322.182437)scale(0.1 -0.1)">
       <use xlink:href="#DejaVuSans-31"/>
       <use x="63.623047" xlink:href="#DejaVuSans-32"/>
       <use x="127.246094" xlink:href="#DejaVuSans-30"/>
       <use x="190.869141" xlink:href="#DejaVuSans-30"/>
      </g>
     </g>
    </g>
    <g id="xtick_8">
     <g id="line2d_8">
      <g>
       <use style="stroke:#000000;stroke-width:0.8;" x="391.898762" xlink:href="#m9e84ea3ebd" y="307.584"/>
      </g>
     </g>
     <g id="text_8">
      <!-- 1400 -->
      <g transform="translate(379.173762 322.182437)scale(0.1 -0.1)">
       <use xlink:href="#DejaVuSans-31"/>
       <use x="63.623047" xlink:href="#DejaVuSans-34"/>
       <use x="127.246094" xlink:href="#DejaVuSans-30"/>
       <use x="190.869141" xlink:href="#DejaVuSans-30"/>
      </g>
     </g>
    </g>
   </g>
   <g id="matplotlib.axis_2">
    <g id="ytick_1">
     <g id="line2d_9">
      <defs>
       <path d="M 0 0 
L -3.5 0 
" id="m2d8cb7ff3d" style="stroke:#000000;stroke-width:0.8;"/>
      </defs>
      <g>
       <use style="stroke:#000000;stroke-width:0.8;" x="57.6" xlink:href="#m2d8cb7ff3d" y="272.69637"/>
      </g>
     </g>
     <g id="text_9">
      <!-- −0.2 -->
      <defs>
       <path d="M 10.59375 35.5 
L 73.1875 35.5 
L 73.1875 27.203125 
L 10.59375 27.203125 
z
" id="DejaVuSans-2212"/>
       <path d="M 10.6875 12.40625 
L 21 12.40625 
L 21 0 
L 10.6875 0 
z
" id="DejaVuSans-2e"/>
      </defs>
      <g transform="translate(26.317187 276.495589)scale(0.1 -0.1)">
       <use xlink:href="#DejaVuSans-2212"/>
       <use x="83.789062" xlink:href="#DejaVuSans-30"/>
       <use x="147.412109" xlink:href="#DejaVuSans-2e"/>
       <use x="179.199219" xlink:href="#DejaVuSans-32"/>
      </g>
     </g>
    </g>
    <g id="ytick_2">
     <g id="line2d_10">
      <g>
       <use style="stroke:#000000;stroke-width:0.8;" x="57.6" xlink:href="#m2d8cb7ff3d" y="219.202374"/>
      </g>
     </g>
     <g id="text_10">
      <!-- 0.0 -->
      <g transform="translate(34.696875 223.001593)scale(0.1 -0.1)">
       <use xlink:href="#DejaVuSans-30"/>
       <use x="63.623047" xlink:href="#DejaVuSans-2e"/>
       <use x="95.410156" xlink:href="#DejaVuSans-30"/>
      </g>
     </g>
    </g>
    <g id="ytick_3">
     <g id="line2d_11">
      <g>
       <use style="stroke:#000000;stroke-width:0.8;" x="57.6" xlink:href="#m2d8cb7ff3d" y="165.708378"/>
      </g>
     </g>
     <g id="text_11">
      <!-- 0.2 -->
      <g transform="translate(34.696875 169.507597)scale(0.1 -0.1)">
       <use xlink:href="#DejaVuSans-30"/>
       <use x="63.623047" xlink:href="#DejaVuSans-2e"/>
       <use x="95.410156" xlink:href="#DejaVuSans-32"/>
      </g>
     </g>
    </g>
    <g id="ytick_4">
     <g id="line2d_12">
      <g>
       <use style="stroke:#000000;stroke-width:0.8;" x="57.6" xlink:href="#m2d8cb7ff3d" y="112.214382"/>
      </g>
     </g>
     <g id="text_12">
      <!-- 0.4 -->
      <g transform="translate(34.696875 116.013601)scale(0.1 -0.1)">
       <use xlink:href="#DejaVuSans-30"/>
       <use x="63.623047" xlink:href="#DejaVuSans-2e"/>
       <use x="95.410156" xlink:href="#DejaVuSans-34"/>
      </g>
     </g>
    </g>
    <g id="ytick_5">
     <g id="line2d_13">
      <g>
       <use style="stroke:#000000;stroke-width:0.8;" x="57.6" xlink:href="#m2d8cb7ff3d" y="58.720386"/>
      </g>
     </g>
     <g id="text_13">
      <!-- 0.6 -->
      <g transform="translate(34.696875 62.519605)scale(0.1 -0.1)">
       <use xlink:href="#DejaVuSans-30"/>
       <use x="63.623047" xlink:href="#DejaVuSans-2e"/>
       <use x="95.410156" xlink:href="#DejaVuSans-36"/>
      </g>
     </g>
    </g>
   </g>
   <g id="line2d_14">
    <path clip-path="url(#pfa0fefa639)" d="M 73.832727 76.362344 
L 75.877437 76.362344 
L 76.104628 77.793 
L 76.331818 84.524941 
L 76.559008 87.754392 
L 76.786198 85.866273 
L 77.240578 74.871758 
L 77.467768 74.844074 
L 77.694958 72.774421 
L 78.149338 63.022497 
L 78.376528 61.073718 
L 78.603718 60.863834 
L 78.830908 56.213103 
L 79.058098 54.795062 
L 79.285288 54.711315 
L 79.512478 53.568 
L 79.739668 53.864298 
L 79.966858 53.952449 
L 80.648428 55.634757 
L 81.329998 56.401899 
L 81.557188 56.455171 
L 81.784378 56.023825 
L 82.011568 56.057636 
L 82.238758 55.859383 
L 82.465948 55.490499 
L 83.374708 55.66191 
L 83.601898 56.109332 
L 84.510658 56.759494 
L 84.737848 57.102642 
L 84.965038 57.055711 
L 87.009749 58.415515 
L 87.236939 58.677628 
L 87.464129 58.749253 
L 87.918509 59.147174 
L 88.145699 59.20668 
L 88.372889 59.429105 
L 88.600079 59.480596 
L 89.508839 60.159862 
L 89.963219 60.370922 
L 90.417599 60.714657 
L 91.326359 61.28841 
L 91.780739 61.48943 
L 96.32454 63.384438 
L 99.5052 64.198842 
L 105.866521 65.057157 
L 110.864701 65.384875 
L 116.090072 65.552774 
L 123.360153 65.554482 
L 134.719654 65.637932 
L 135.401224 68.292919 
L 135.855604 68.864276 
L 136.082794 70.308912 
L 136.309984 70.551735 
L 136.537174 70.507057 
L 136.991554 72.152735 
L 137.218744 72.08192 
L 137.673124 73.221321 
L 138.127504 73.529468 
L 138.354694 74.113703 
L 138.581884 74.38024 
L 138.809074 74.470676 
L 139.490644 75.402457 
L 139.717834 75.450027 
L 139.945024 75.638384 
L 140.172215 75.988503 
L 140.399405 76.042753 
L 140.626595 76.255741 
L 140.853785 76.311422 
L 141.308165 76.661818 
L 144.488825 77.971289 
L 144.943205 78.081558 
L 149.941386 78.720555 
L 155.393946 78.913843 
L 161.300887 78.975079 
L 168.798158 78.990367 
L 176.749809 78.997168 
L 176.976999 78.838359 
L 177.204189 76.84431 
L 177.431379 77.165672 
L 177.658569 78.00067 
L 178.112949 74.530944 
L 178.340139 76.697007 
L 178.567329 75.776417 
L 178.794519 73.88515 
L 179.021709 74.853938 
L 179.248899 75.316845 
L 179.476089 73.862651 
L 179.930469 74.146495 
L 180.384849 73.743078 
L 180.612039 73.379672 
L 180.839229 73.44267 
L 181.066419 73.80575 
L 181.520799 73.121362 
L 181.747989 73.597204 
L 182.202369 73.277076 
L 182.429559 73.324524 
L 182.656749 73.542027 
L 183.111129 73.387576 
L 183.565509 73.708496 
L 183.792699 73.546234 
L 184.247079 73.864779 
L 184.701459 73.840095 
L 185.155839 74.122306 
L 185.83741 74.274613 
L 186.0646 74.505717 
L 186.51898 74.44473 
L 186.74617 74.787529 
L 186.97336 74.854315 
L 187.20055 74.77695 
L 187.88212 75.128984 
L 189.24526 75.622568 
L 189.47245 75.80394 
L 190.15402 75.983976 
L 190.6084 76.134269 
L 191.06278 76.272432 
L 192.19873 76.627049 
L 197.651291 77.862673 
L 201.059141 78.139613 
L 211.509882 78.216367 
L 240.363015 78.241439 
L 316.471674 78.176746 
L 316.698864 80.018825 
L 317.153244 73.085206 
L 317.380434 76.092855 
L 317.607624 77.504079 
L 317.834814 73.748348 
L 318.062004 72.977244 
L 318.289194 74.395387 
L 318.516384 74.038784 
L 318.743574 72.82559 
L 318.970764 72.466694 
L 319.197954 73.217857 
L 319.425144 73.308041 
L 319.652334 72.172352 
L 319.879524 72.168586 
L 320.106714 72.933469 
L 320.561094 72.075477 
L 320.788284 72.390748 
L 321.015474 72.451436 
L 321.469854 72.224563 
L 321.697044 72.307784 
L 321.924234 72.543295 
L 322.151424 72.364415 
L 322.378614 72.377396 
L 322.605804 72.653272 
L 322.832994 72.698377 
L 323.060184 72.563442 
L 323.514565 72.970194 
L 323.741755 72.885936 
L 330.103075 75.592515 
L 330.557455 75.758239 
L 332.602166 76.426946 
L 333.510926 76.682204 
L 334.646876 77.010634 
L 335.555636 77.188624 
L 339.190676 77.83366 
L 341.008196 78.064347 
L 346.460757 78.497217 
L 346.687947 78.329118 
L 347.142327 78.27713 
L 347.369517 77.63713 
L 347.596707 77.664119 
L 347.823897 77.869071 
L 348.051087 76.968049 
L 348.278277 76.977615 
L 348.505467 77.308395 
L 348.732657 76.605658 
L 348.959847 76.320548 
L 349.187037 76.403617 
L 349.414227 76.298209 
L 349.641417 75.831322 
L 350.322987 75.429334 
L 350.550177 75.015225 
L 351.004558 74.733897 
L 351.458938 74.290391 
L 353.276458 72.734816 
L 353.730838 72.46497 
L 357.365878 70.106653 
L 362.136869 68.10558 
L 365.544719 67.300376 
L 369.63414 66.633381 
L 374.17794 66.230389 
L 378.04017 66.033155 
L 384.628681 65.860179 
L 396.442563 65.803854 
L 398.487273 65.803802 
L 398.487273 65.803802 
" style="fill:none;stroke:#ff0000;stroke-dasharray:5.55,2.4;stroke-dashoffset:0;stroke-width:1.5;"/>
   </g>
   <g id="line2d_15">
    <path clip-path="url(#pfa0fefa639)" d="M 73.832727 293.23817 
L 75.877437 293.23817 
L 76.104628 295.488 
L 76.331818 293.667813 
L 76.786198 283.181757 
L 77.013388 282.064244 
L 77.240578 280.132214 
L 77.694958 262.415449 
L 77.922148 260.874717 
L 78.149338 258.23532 
L 78.603718 243.595767 
L 79.512478 228.366565 
L 79.966858 225.690731 
L 80.194048 224.942204 
L 80.648428 224.161183 
L 81.102808 222.371856 
L 81.784378 217.64217 
L 82.920328 208.488232 
L 83.829088 204.10823 
L 85.192229 198.557692 
L 86.328179 193.861849 
L 86.782559 192.336612 
L 87.691319 189.617921 
L 88.600079 187.202318 
L 90.417599 183.412501 
L 91.326359 181.897264 
L 92.007929 180.852749 
L 93.825449 178.542062 
L 95.41578 176.972888 
L 97.2333 175.490597 
L 98.59644 174.635447 
L 99.95958 173.956639 
L 101.7771 173.223672 
L 104.276191 172.518696 
L 106.775281 171.989144 
L 109.047181 171.634331 
L 114.499742 171.123324 
L 117.226022 171.049064 
L 134.719654 171.034854 
L 134.946844 171.375603 
L 135.174034 171.353158 
L 135.401224 171.585587 
L 135.628414 172.681564 
L 136.082794 173.190407 
L 136.309984 173.776335 
L 136.537174 173.888161 
L 136.764364 174.245081 
L 136.991554 174.294077 
L 137.445934 174.791093 
L 137.673124 174.776318 
L 137.900314 175.090073 
L 138.127504 175.173823 
L 138.354694 175.429851 
L 138.581884 175.511638 
L 139.036264 175.863505 
L 139.717834 176.322733 
L 140.399405 176.558691 
L 140.853785 176.788969 
L 141.080975 176.802211 
L 141.308165 177.000235 
L 141.762545 177.116035 
L 143.352875 177.581317 
L 143.580065 177.555 
L 143.807255 177.709969 
L 144.034445 177.656917 
L 144.716015 177.879212 
L 145.170395 177.895495 
L 145.624775 177.971918 
L 151.758906 178.429424 
L 173.569148 178.593188 
L 177.204189 178.681243 
L 177.431379 176.991731 
L 177.885759 178.567126 
L 178.112949 177.85077 
L 178.340139 177.754205 
L 178.567329 178.279691 
L 178.794519 178.398582 
L 179.021709 178.852308 
L 179.248899 178.225337 
L 179.703279 179.010397 
L 179.930469 178.337206 
L 180.157659 178.172255 
L 180.384849 178.634881 
L 180.839229 178.083452 
L 181.293609 178.271816 
L 181.747989 178.163071 
L 182.202369 178.126531 
L 182.429559 178.287736 
L 182.656749 178.002271 
L 183.111129 178.181873 
L 183.338319 177.943082 
L 183.792699 178.018409 
L 184.019889 177.878198 
L 184.247079 177.948603 
L 184.474269 177.831245 
L 184.701459 177.916888 
L 185.155839 177.804232 
L 186.0646 177.641564 
L 186.29179 177.729464 
L 187.88212 177.497713 
L 189.01807 177.442731 
L 189.47245 177.33331 
L 190.38121 177.25209 
L 194.24344 176.976926 
L 199.014431 176.765073 
L 201.059141 176.722642 
L 205.375752 176.645081 
L 205.830132 176.679771 
L 206.284512 176.719272 
L 207.193272 176.618538 
L 210.601122 176.633614 
L 211.055502 176.600766 
L 214.008973 176.60771 
L 215.372113 176.598206 
L 216.053683 176.593862 
L 216.508063 176.636275 
L 216.962443 176.554651 
L 222.187813 176.557706 
L 223.323764 176.580798 
L 223.778144 176.58392 
L 224.686904 176.537428 
L 226.277234 176.587613 
L 228.549134 176.545003 
L 231.048224 176.525339 
L 231.502604 176.585543 
L 232.184175 176.525161 
L 232.638555 176.590115 
L 233.774505 176.55208 
L 234.228885 176.568977 
L 235.364835 176.539087 
L 235.819215 176.540777 
L 237.636735 176.552785 
L 238.999875 176.543978 
L 239.908635 176.542565 
L 240.590205 176.5729 
L 241.271776 176.549452 
L 241.953346 176.553937 
L 242.407726 176.540971 
L 245.361196 176.565742 
L 246.269956 176.599903 
L 249.223426 176.547364 
L 250.132187 176.598116 
L 251.495327 176.540349 
L 257.175077 176.543588 
L 257.629457 176.549354 
L 258.765407 176.554597 
L 259.446978 176.544931 
L 261.718878 176.548092 
L 262.627638 176.604589 
L 264.217968 176.560825 
L 264.672348 176.585015 
L 265.126728 176.557456 
L 266.035488 176.527131 
L 266.489868 176.553256 
L 273.078379 176.556664 
L 273.532759 176.56447 
L 274.214329 176.540909 
L 274.668709 176.562508 
L 275.350279 176.558237 
L 275.577469 176.614545 
L 276.031849 176.55072 
L 277.39499 176.579016 
L 278.07656 176.565424 
L 278.53094 176.598398 
L 279.21251 176.547027 
L 280.12127 176.540768 
L 284.89226 176.539986 
L 285.34664 176.604053 
L 287.391351 176.557042 
L 287.845731 176.59604 
L 288.300111 176.548209 
L 288.754491 176.548402 
L 291.026391 176.536511 
L 291.480771 176.571683 
L 292.162341 176.567613 
L 293.298291 176.595419 
L 296.024572 176.56957 
L 296.706142 176.546873 
L 299.659612 176.542887 
L 300.113992 176.61016 
L 300.795562 176.548645 
L 301.249942 176.600835 
L 301.704322 176.519121 
L 302.385892 176.57157 
L 303.294652 176.559114 
L 305.566553 176.51845 
L 306.248123 176.564722 
L 306.929693 176.575228 
L 307.384073 176.556342 
L 308.974403 176.545127 
L 309.428783 176.584937 
L 310.110353 176.533868 
L 310.791923 176.588426 
L 311.246303 176.526946 
L 311.700683 176.569168 
L 312.382253 176.565934 
L 313.291013 176.600102 
L 313.745393 176.552823 
L 314.199774 176.586112 
L 314.881344 176.541921 
L 315.562914 176.566078 
L 316.017294 176.542014 
L 316.471674 176.591017 
L 316.698864 175.968607 
L 316.926054 178.699961 
L 317.153244 177.810026 
L 317.380434 176.417039 
L 317.607624 176.619772 
L 317.834814 176.340139 
L 318.062004 176.422652 
L 318.289194 176.142223 
L 318.516384 174.424818 
L 318.743574 175.895984 
L 319.197954 174.613153 
L 319.425144 175.261848 
L 319.652334 175.521798 
L 319.879524 175.205419 
L 320.106714 175.319892 
L 320.333904 175.24505 
L 320.788284 175.415343 
L 321.015474 175.028615 
L 321.469854 175.283329 
L 321.697044 174.963588 
L 322.151424 175.111178 
L 322.378614 175.006259 
L 323.287375 175.066774 
L 323.968945 175.101876 
L 325.332085 175.139498 
L 331.693405 175.527766 
L 332.374976 175.589986 
L 337.373156 175.820035 
L 346.460757 176.009609 
L 346.687947 176.226261 
L 346.915137 175.629923 
L 347.369517 176.257981 
L 347.596707 175.441732 
L 347.823897 175.864961 
L 348.051087 175.614416 
L 348.278277 175.546764 
L 348.505467 175.597538 
L 348.732657 175.302462 
L 348.959847 175.40788 
L 349.187037 175.384672 
L 349.414227 175.051449 
L 349.868607 175.070241 
L 350.095797 174.850901 
L 350.777368 174.661962 
L 351.686128 174.301664 
L 357.593068 172.475862 
L 358.274638 172.363055 
L 358.501828 172.236056 
L 358.729018 172.291532 
L 358.956208 172.165846 
L 359.410588 172.088924 
L 360.092159 171.996747 
L 362.591249 171.614898 
L 364.863149 171.385206 
L 365.999099 171.269759 
L 368.043809 171.130938 
L 372.13323 170.93072 
L 378.948931 170.760392 
L 396.442563 170.676326 
L 398.487273 170.67634 
L 398.487273 170.67634 
" style="fill:none;stroke:#008000;stroke-linecap:square;stroke-width:1.5;"/>
   </g>
   <g id="line2d_16">
    <path clip-path="url(#pfa0fefa639)" d="M 73.832727 215.253319 
L 75.877437 215.253319 
L 76.104628 215.054387 
L 77.013388 203.571976 
L 77.240578 204.244779 
L 77.467768 205.771801 
L 77.694958 206.308024 
L 78.149338 202.729479 
L 78.376528 202.937411 
L 78.603718 203.996038 
L 79.058098 201.876473 
L 79.512478 202.156324 
L 79.966858 200.963805 
L 80.421238 200.705288 
L 81.102808 199.948421 
L 81.557188 199.643685 
L 82.011568 199.305703 
L 82.465948 199.058417 
L 83.147518 198.719891 
L 84.283468 198.220115 
L 85.646609 197.913642 
L 86.100989 197.800825 
L 92.007929 197.37627 
L 94.50702 197.36279 
L 102.91305 197.431671 
L 134.946844 197.37942 
L 135.174034 198.227969 
L 135.401224 198.458778 
L 135.628414 198.300263 
L 136.309984 199.03504 
L 136.537174 198.954537 
L 136.991554 199.328783 
L 137.218744 199.321434 
L 137.445934 199.183075 
L 137.673124 199.438472 
L 137.900314 199.455643 
L 138.127504 199.352677 
L 138.809074 199.387157 
L 139.036264 199.238995 
L 139.263454 199.317415 
L 139.945024 199.114207 
L 140.399405 199.045631 
L 140.853785 198.905376 
L 146.760725 196.993435 
L 147.669485 196.78026 
L 150.850146 196.098706 
L 155.621136 195.41894 
L 161.755267 194.967006 
L 166.071877 194.803894 
L 176.295428 194.651408 
L 176.749809 194.648271 
L 176.976999 194.807129 
L 177.431379 200.395769 
L 178.112949 204.284784 
L 178.567329 208.094045 
L 178.794519 208.963801 
L 180.384849 219.290322 
L 183.111129 231.984389 
L 184.247079 236.122787 
L 186.0646 241.374444 
L 186.51898 242.428327 
L 186.97336 243.64144 
L 189.69964 248.865552 
L 191.51716 251.321321 
L 192.19873 252.085354 
L 193.10749 253.097917 
L 194.47063 254.281135 
L 197.196911 256.147165 
L 199.014431 257.018628 
L 199.696001 257.228605 
L 203.785421 257.997811 
L 204.239802 258.116125 
L 206.738892 258.12623 
L 225.368474 258.139978 
L 229.685084 258.136312 
L 237.182355 258.141695 
L 294.661431 258.138753 
L 299.205232 258.13158 
L 305.339363 258.142675 
L 316.244484 258.13285 
L 316.471674 257.872 
L 317.153244 249.365396 
L 317.607624 247.782849 
L 318.062004 242.893365 
L 318.516384 241.04773 
L 318.970764 236.993432 
L 319.197954 236.253079 
L 320.788284 227.293654 
L 321.015474 226.458172 
L 321.469854 224.081817 
L 323.968945 214.881559 
L 326.013655 209.661287 
L 326.922415 207.727897 
L 327.603985 206.438237 
L 328.285555 205.184216 
L 329.421505 203.425398 
L 331.239025 201.225183 
L 334.192496 198.538913 
L 336.010016 197.366465 
L 340.099436 195.621995 
L 343.052907 194.82257 
L 345.551997 194.373951 
L 346.460757 194.252695 
L 346.915137 195.392758 
L 347.142327 195.414472 
L 347.369517 195.589816 
L 347.596707 196.101764 
L 347.823897 196.323597 
L 348.051087 196.386382 
L 348.505467 196.88002 
L 348.732657 197.107216 
L 348.959847 197.044008 
L 349.641417 197.585553 
L 349.868607 197.547486 
L 350.095797 197.83857 
L 352.367698 198.41165 
L 355.775548 198.558556 
L 358.047448 198.439797 
L 364.635959 197.99294 
L 378.948931 197.572388 
L 396.442563 197.509584 
L 398.487273 197.509555 
L 398.487273 197.509555 
" style="fill:none;stroke:#0000ff;stroke-dasharray:5.55,2.4;stroke-dashoffset:0;stroke-width:1.5;"/>
   </g>
   <g id="line2d_17">
    <path clip-path="url(#pfa0fefa639)" d="M 316.926054 307.584 
L 316.926054 41.472 
" style="fill:none;stroke:#bf00bf;stroke-linecap:square;stroke-width:1.5;"/>
   </g>
   <g id="line2d_18">
    <path clip-path="url(#pfa0fefa639)" d="M 316.244484 307.584 
L 316.244484 41.472 
" style="fill:none;stroke:#bf00bf;stroke-linecap:square;stroke-width:1.5;"/>
   </g>
   <g id="line2d_19">
    <path clip-path="url(#pfa0fefa639)" d="M 318.516384 307.584 
L 318.516384 41.472 
" style="fill:none;stroke:#bf00bf;stroke-linecap:square;stroke-width:1.5;"/>
   </g>
   <g id="line2d_20">
    <path clip-path="url(#pfa0fefa639)" d="M 316.698864 307.584 
L 316.698864 41.472 
" style="fill:none;stroke:#bf00bf;stroke-linecap:square;stroke-width:1.5;"/>
   </g>
   <g id="line2d_21">
    <path clip-path="url(#pfa0fefa639)" d="M 329.194315 307.584 
L 329.194315 41.472 
" style="fill:none;stroke:#bf00bf;stroke-linecap:square;stroke-width:1.5;"/>
   </g>
   <g id="line2d_22">
    <path clip-path="url(#pfa0fefa639)" d="M 318.062004 307.584 
L 318.062004 41.472 
" style="fill:none;stroke:#bf00bf;stroke-linecap:square;stroke-width:1.5;"/>
   </g>
   <g id="line2d_23">
    <path clip-path="url(#pfa0fefa639)" d="M 316.698864 307.584 
L 316.698864 41.472 
" style="fill:none;stroke:#bf00bf;stroke-linecap:square;stroke-width:1.5;"/>
   </g>
   <g id="line2d_24">
    <path clip-path="url(#pfa0fefa639)" d="M 316.017294 307.584 
L 316.017294 41.472 
" style="fill:none;stroke:#bf00bf;stroke-linecap:square;stroke-width:1.5;"/>
   </g>
   <g id="line2d_25">
    <path clip-path="url(#pfa0fefa639)" d="M 323.287375 307.584 
L 323.287375 41.472 
" style="fill:none;stroke:#bf00bf;stroke-linecap:square;stroke-width:1.5;"/>
   </g>
   <g id="line2d_26">
    <path clip-path="url(#pfa0fefa639)" d="M 322.151424 307.584 
L 322.151424 41.472 
" style="fill:none;stroke:#bf00bf;stroke-linecap:square;stroke-width:1.5;"/>
   </g>
   <g id="line2d_27">
    <path clip-path="url(#pfa0fefa639)" d="M 335.782826 307.584 
L 335.782826 41.472 
" style="fill:none;stroke:#bf00bf;stroke-linecap:square;stroke-width:1.5;"/>
   </g>
   <g id="line2d_28">
    <path clip-path="url(#pfa0fefa639)" d="M 389.172482 307.584 
L 389.172482 41.472 
" style="fill:none;stroke:#00bfbf;stroke-linecap:square;stroke-width:1.5;"/>
   </g>
   <g id="line2d_29">
    <path clip-path="url(#pfa0fefa639)" d="M 388.718102 307.584 
L 388.718102 41.472 
" style="fill:none;stroke:#00bfbf;stroke-linecap:square;stroke-width:1.5;"/>
   </g>
   <g id="line2d_30">
    <path clip-path="url(#pfa0fefa639)" d="M 389.172482 307.584 
L 389.172482 41.472 
" style="fill:none;stroke:#00bfbf;stroke-linecap:square;stroke-width:1.5;"/>
   </g>
   <g id="line2d_31">
    <path clip-path="url(#pfa0fefa639)" d="M 354.866788 307.584 
L 354.866788 41.472 
" style="fill:none;stroke:#bfbf00;stroke-linecap:square;stroke-width:1.5;"/>
   </g>
   <g id="line2d_32">
    <path clip-path="url(#pfa0fefa639)" d="M 371.90604 307.584 
L 371.90604 41.472 
" style="fill:none;stroke:#bfbf00;stroke-linecap:square;stroke-width:1.5;"/>
   </g>
   <g id="line2d_33">
    <path clip-path="url(#pfa0fefa639)" d="M 363.045629 307.584 
L 363.045629 41.472 
" style="fill:none;stroke:#bfbf00;stroke-linecap:square;stroke-width:1.5;"/>
   </g>
   <g id="line2d_34">
    <path clip-path="url(#pfa0fefa639)" d="M 380.312071 307.584 
L 380.312071 41.472 
" style="fill:none;stroke:#bfbf00;stroke-linecap:square;stroke-width:1.5;"/>
   </g>
   <g id="line2d_35">
    <path clip-path="url(#pfa0fefa639)" d="M 365.999099 307.584 
L 365.999099 41.472 
" style="fill:none;stroke:#bfbf00;stroke-linecap:square;stroke-width:1.5;"/>
   </g>
   <g id="line2d_36">
    <path clip-path="url(#pfa0fefa639)" d="M 351.004558 307.584 
L 351.004558 41.472 
" style="fill:none;stroke:#bfbf00;stroke-linecap:square;stroke-width:1.5;"/>
   </g>
   <g id="line2d_37">
    <path clip-path="url(#pfa0fefa639)" d="M 358.501828 307.584 
L 358.501828 41.472 
" style="fill:none;stroke:#bfbf00;stroke-linecap:square;stroke-width:1.5;"/>
   </g>
   <g id="line2d_38">
    <path clip-path="url(#pfa0fefa639)" d="M 377.13141 307.584 
L 377.13141 41.472 
" style="fill:none;stroke:#bfbf00;stroke-linecap:square;stroke-width:1.5;"/>
   </g>
   <g id="line2d_39">
    <path clip-path="url(#pfa0fefa639)" d="M 368.043809 307.584 
L 368.043809 41.472 
" style="fill:none;stroke:#bfbf00;stroke-linecap:square;stroke-width:1.5;"/>
   </g>
   <g id="line2d_40">
    <path clip-path="url(#pfa0fefa639)" d="M 350.095797 307.584 
L 350.095797 41.472 
" style="fill:none;stroke:#bfbf00;stroke-linecap:square;stroke-width:1.5;"/>
   </g>
   <g id="line2d_41">
    <path clip-path="url(#pfa0fefa639)" d="M 98.82363 307.584 
L 98.82363 41.472 
" style="fill:none;stroke:#a3c2c2;stroke-linecap:square;stroke-width:1.5;"/>
   </g>
   <g id="line2d_42">
    <path clip-path="url(#pfa0fefa639)" d="M 76.104628 307.584 
L 76.104628 41.472 
" style="fill:none;stroke:#a3c2c2;stroke-linecap:square;stroke-width:1.5;"/>
   </g>
   <g id="line2d_43">
    <path clip-path="url(#pfa0fefa639)" d="M 78.149338 307.584 
L 78.149338 41.472 
" style="fill:none;stroke:#a3c2c2;stroke-linecap:square;stroke-width:1.5;"/>
   </g>
   <g id="line2d_44">
    <path clip-path="url(#pfa0fefa639)" d="M 90.190409 307.584 
L 90.190409 41.472 
" style="fill:none;stroke:#a3c2c2;stroke-linecap:square;stroke-width:1.5;"/>
   </g>
   <g id="line2d_45">
    <path clip-path="url(#pfa0fefa639)" d="M 114.726932 307.584 
L 114.726932 41.472 
" style="fill:none;stroke:#a3c2c2;stroke-linecap:square;stroke-width:1.5;"/>
   </g>
   <g id="line2d_46">
    <path clip-path="url(#pfa0fefa639)" d="M 106.775281 307.584 
L 106.775281 41.472 
" style="fill:none;stroke:#a3c2c2;stroke-linecap:square;stroke-width:1.5;"/>
   </g>
   <g id="line2d_47">
    <path clip-path="url(#pfa0fefa639)" d="M 91.553549 307.584 
L 91.553549 41.472 
" style="fill:none;stroke:#a3c2c2;stroke-linecap:square;stroke-width:1.5;"/>
   </g>
   <g id="line2d_48">
    <path clip-path="url(#pfa0fefa639)" d="M 76.104628 307.584 
L 76.104628 41.472 
" style="fill:none;stroke:#a3c2c2;stroke-linecap:square;stroke-width:1.5;"/>
   </g>
   <g id="line2d_49">
    <path clip-path="url(#pfa0fefa639)" d="M 83.147518 307.584 
L 83.147518 41.472 
" style="fill:none;stroke:#a3c2c2;stroke-linecap:square;stroke-width:1.5;"/>
   </g>
   <g id="line2d_50">
    <path clip-path="url(#pfa0fefa639)" d="M 79.739668 307.584 
L 79.739668 41.472 
" style="fill:none;stroke:#a3c2c2;stroke-linecap:square;stroke-width:1.5;"/>
   </g>
   <g id="line2d_51">
    <path clip-path="url(#pfa0fefa639)" d="M 87.009749 307.584 
L 87.009749 41.472 
" style="fill:none;stroke:#a3c2c2;stroke-linecap:square;stroke-width:1.5;"/>
   </g>
   <g id="line2d_52">
    <path clip-path="url(#pfa0fefa639)" d="M 102.68586 307.584 
L 102.68586 41.472 
" style="fill:none;stroke:#a3c2c2;stroke-linecap:square;stroke-width:1.5;"/>
   </g>
   <g id="line2d_53">
    <path clip-path="url(#pfa0fefa639)" d="M 96.77892 307.584 
L 96.77892 41.472 
" style="fill:none;stroke:#a3c2c2;stroke-linecap:square;stroke-width:1.5;"/>
   </g>
   <g id="line2d_54">
    <path clip-path="url(#pfa0fefa639)" d="M 76.104628 307.584 
L 76.104628 41.472 
" style="fill:none;stroke:#a3c2c2;stroke-linecap:square;stroke-width:1.5;"/>
   </g>
   <g id="line2d_55">
    <path clip-path="url(#pfa0fefa639)" d="M 81.784378 307.584 
L 81.784378 41.472 
" style="fill:none;stroke:#a3c2c2;stroke-linecap:square;stroke-width:1.5;"/>
   </g>
   <g id="line2d_56">
    <path clip-path="url(#pfa0fefa639)" d="M 87.236939 307.584 
L 87.236939 41.472 
" style="fill:none;stroke:#a3c2c2;stroke-linecap:square;stroke-width:1.5;"/>
   </g>
   <g id="line2d_57">
    <path clip-path="url(#pfa0fefa639)" d="M 198.787241 307.584 
L 198.787241 41.472 
" style="fill:none;stroke:#ff9933;stroke-linecap:square;stroke-width:1.5;"/>
   </g>
   <g id="line2d_58">
    <path clip-path="url(#pfa0fefa639)" d="M 215.372113 307.584 
L 215.372113 41.472 
" style="fill:none;stroke:#ff9933;stroke-linecap:square;stroke-width:1.5;"/>
   </g>
   <g id="line2d_59">
    <path clip-path="url(#pfa0fefa639)" d="M 195.833771 307.584 
L 195.833771 41.472 
" style="fill:none;stroke:#ff9933;stroke-linecap:square;stroke-width:1.5;"/>
   </g>
   <g id="line2d_60">
    <path clip-path="url(#pfa0fefa639)" d="M 185.83741 307.584 
L 185.83741 41.472 
" style="fill:none;stroke:#ff9933;stroke-linecap:square;stroke-width:1.5;"/>
   </g>
   <g id="line2d_61">
    <path clip-path="url(#pfa0fefa639)" d="M 211.055502 307.584 
L 211.055502 41.472 
" style="fill:none;stroke:#ff9933;stroke-linecap:square;stroke-width:1.5;"/>
   </g>
   <g id="line2d_62">
    <path clip-path="url(#pfa0fefa639)" d="M 178.340139 307.584 
L 178.340139 41.472 
" style="fill:none;stroke:#ff9933;stroke-linecap:square;stroke-width:1.5;"/>
   </g>
   <g id="line2d_63">
    <path clip-path="url(#pfa0fefa639)" d="M 177.204189 307.584 
L 177.204189 41.472 
" style="fill:none;stroke:#ff9933;stroke-linecap:square;stroke-width:1.5;"/>
   </g>
   <g id="line2d_64">
    <path clip-path="url(#pfa0fefa639)" d="M 196.060961 307.584 
L 196.060961 41.472 
" style="fill:none;stroke:#ff9933;stroke-linecap:square;stroke-width:1.5;"/>
   </g>
   <g id="line2d_65">
    <path clip-path="url(#pfa0fefa639)" d="M 186.74617 307.584 
L 186.74617 41.472 
" style="fill:none;stroke:#ff9933;stroke-linecap:square;stroke-width:1.5;"/>
   </g>
   <g id="line2d_66">
    <path clip-path="url(#pfa0fefa639)" d="M 182.883939 307.584 
L 182.883939 41.472 
" style="fill:none;stroke:#ff9933;stroke-linecap:square;stroke-width:1.5;"/>
   </g>
   <g id="line2d_67">
    <path clip-path="url(#pfa0fefa639)" d="M 191.28997 307.584 
L 191.28997 41.472 
" style="fill:none;stroke:#ff9933;stroke-linecap:square;stroke-width:1.5;"/>
   </g>
   <g id="line2d_68">
    <path clip-path="url(#pfa0fefa639)" d="M 204.012611 307.584 
L 204.012611 41.472 
" style="fill:none;stroke:#ff9933;stroke-linecap:square;stroke-width:1.5;"/>
   </g>
   <g id="line2d_69">
    <path clip-path="url(#pfa0fefa639)" d="M 212.418642 307.584 
L 212.418642 41.472 
" style="fill:none;stroke:#ff9933;stroke-linecap:square;stroke-width:1.5;"/>
   </g>
   <g id="line2d_70">
    <path clip-path="url(#pfa0fefa639)" d="M 136.082794 307.584 
L 136.082794 41.472 
" style="fill:none;stroke:#bf00bf;stroke-linecap:square;stroke-width:1.5;"/>
   </g>
   <g id="line2d_71">
    <path clip-path="url(#pfa0fefa639)" d="M 134.946844 307.584 
L 134.946844 41.472 
" style="fill:none;stroke:#bf00bf;stroke-linecap:square;stroke-width:1.5;"/>
   </g>
   <g id="line2d_72">
    <path clip-path="url(#pfa0fefa639)" d="M 137.445934 307.584 
L 137.445934 41.472 
" style="fill:none;stroke:#bf00bf;stroke-linecap:square;stroke-width:1.5;"/>
   </g>
   <g id="line2d_73">
    <path clip-path="url(#pfa0fefa639)" d="M 142.444115 307.584 
L 142.444115 41.472 
" style="fill:none;stroke:#bf00bf;stroke-linecap:square;stroke-width:1.5;"/>
   </g>
   <g id="line2d_74">
    <path clip-path="url(#pfa0fefa639)" d="M 135.401224 307.584 
L 135.401224 41.472 
" style="fill:none;stroke:#bf00bf;stroke-linecap:square;stroke-width:1.5;"/>
   </g>
   <g id="line2d_75">
    <path clip-path="url(#pfa0fefa639)" d="M 144.488825 307.584 
L 144.488825 41.472 
" style="fill:none;stroke:#bf00bf;stroke-linecap:square;stroke-width:1.5;"/>
   </g>
   <g id="line2d_76">
    <path clip-path="url(#pfa0fefa639)" d="M 152.667666 307.584 
L 152.667666 41.472 
" style="fill:none;stroke:#00bfbf;stroke-linecap:square;stroke-width:1.5;"/>
   </g>
   <g id="line2d_77">
    <path clip-path="url(#pfa0fefa639)" d="M 161.073697 307.584 
L 161.073697 41.472 
" style="fill:none;stroke:#bfbf00;stroke-linecap:square;stroke-width:1.5;"/>
   </g>
   <g id="line2d_78">
    <path clip-path="url(#pfa0fefa639)" d="M 316.017294 307.584 
L 316.017294 41.472 
" style="fill:none;stroke:#000000;stroke-linecap:square;stroke-width:1.5;"/>
   </g>
   <g id="line2d_79">
    <path clip-path="url(#pfa0fefa639)" d="M 350.095797 307.584 
L 350.095797 41.472 
" style="fill:none;stroke:#000000;stroke-linecap:square;stroke-width:1.5;"/>
   </g>
   <g id="line2d_80">
    <path clip-path="url(#pfa0fefa639)" d="M 76.104628 307.584 
L 76.104628 41.472 
" style="fill:none;stroke:#000000;stroke-linecap:square;stroke-width:1.5;"/>
   </g>
   <g id="line2d_81">
    <path clip-path="url(#pfa0fefa639)" d="M 177.204189 307.584 
L 177.204189 41.472 
" style="fill:none;stroke:#000000;stroke-linecap:square;stroke-width:1.5;"/>
   </g>
   <g id="line2d_82">
    <path clip-path="url(#pfa0fefa639)" d="M 134.946844 307.584 
L 134.946844 41.472 
" style="fill:none;stroke:#000000;stroke-linecap:square;stroke-width:1.5;"/>
   </g>
   <g id="patch_3">
    <path d="M 57.6 307.584 
L 57.6 41.472 
" style="fill:none;stroke:#000000;stroke-linecap:square;stroke-linejoin:miter;stroke-width:0.8;"/>
   </g>
   <g id="patch_4">
    <path d="M 414.72 307.584 
L 414.72 41.472 
" style="fill:none;stroke:#000000;stroke-linecap:square;stroke-linejoin:miter;stroke-width:0.8;"/>
   </g>
   <g id="patch_5">
    <path d="M 57.6 307.584 
L 414.72 307.584 
" style="fill:none;stroke:#000000;stroke-linecap:square;stroke-linejoin:miter;stroke-width:0.8;"/>
   </g>
   <g id="patch_6">
    <path d="M 57.6 41.472 
L 414.72 41.472 
" style="fill:none;stroke:#000000;stroke-linecap:square;stroke-linejoin:miter;stroke-width:0.8;"/>
   </g>
  </g>
 </g>
 <defs>
  <clipPath id="pfa0fefa639">
   <rect height="266.112" width="357.12" x="57.6" y="41.472"/>
  </clipPath>
 </defs>
</svg>
