<?xml version="1.0" encoding="utf-8" standalone="no"?>
<!DOCTYPE svg PUBLIC "-//W3C//DTD SVG 1.1//EN"
  "http://www.w3.org/Graphics/SVG/1.1/DTD/svg11.dtd">
<!-- Created with matplotlib (http://matplotlib.org/) -->
<svg height="345pt" version="1.1" viewBox="0 0 460 345" width="460pt" xmlns="http://www.w3.org/2000/svg" xmlns:xlink="http://www.w3.org/1999/xlink">
 <defs>
  <style type="text/css">
*{stroke-linecap:butt;stroke-linejoin:round;}
  </style>
 </defs>
 <g id="figure_1">
  <g id="patch_1">
   <path d="M 0 345.6 
L 460.8 345.6 
L 460.8 0 
L 0 0 
z
" style="fill:#ffffff;"/>
  </g>
  <g id="axes_1">
   <g id="patch_2">
    <path d="M 57.6 307.584 
L 414.72 307.584 
L 414.72 41.472 
L 57.6 41.472 
z
" style="fill:#ffffff;"/>
   </g>
   <g id="matplotlib.axis_1">
    <g id="xtick_1">
     <g id="line2d_1">
      <defs>
       <path d="M 0 0 
L 0 3.5 
" id="mc209386786" style="stroke:#000000;stroke-width:0.8;"/>
      </defs>
      <g>
       <use style="stroke:#000000;stroke-width:0.8;" x="73.832727" xlink:href="#mc209386786" y="307.584"/>
      </g>
     </g>
     <g id="text_1">
      <!-- 0 -->
      <defs>
       <path d="M 31.78125 66.40625 
Q 24.171875 66.40625 20.328125 58.90625 
Q 16.5 51.421875 16.5 36.375 
Q 16.5 21.390625 20.328125 13.890625 
Q 24.171875 6.390625 31.78125 6.390625 
Q 39.453125 6.390625 43.28125 13.890625 
Q 47.125 21.390625 47.125 36.375 
Q 47.125 51.421875 43.28125 58.90625 
Q 39.453125 66.40625 31.78125 66.40625 
z
M 31.78125 74.21875 
Q 44.046875 74.21875 50.515625 64.515625 
Q 56.984375 54.828125 56.984375 36.375 
Q 56.984375 17.96875 50.515625 8.265625 
Q 44.046875 -1.421875 31.78125 -1.421875 
Q 19.53125 -1.421875 13.0625 8.265625 
Q 6.59375 17.96875 6.59375 36.375 
Q 6.59375 54.828125 13.0625 64.515625 
Q 19.53125 74.21875 31.78125 74.21875 
z
" id="DejaVuSans-30"/>
      </defs>
      <g transform="translate(70.651477 322.182437)scale(0.1 -0.1)">
       <use xlink:href="#DejaVuSans-30"/>
      </g>
     </g>
    </g>
    <g id="xtick_2">
     <g id="line2d_2">
      <g>
       <use style="stroke:#000000;stroke-width:0.8;" x="126.880856" xlink:href="#mc209386786" y="307.584"/>
      </g>
     </g>
     <g id="text_2">
      <!-- 200 -->
      <defs>
       <path d="M 19.1875 8.296875 
L 53.609375 8.296875 
L 53.609375 0 
L 7.328125 0 
L 7.328125 8.296875 
Q 12.9375 14.109375 22.625 23.890625 
Q 32.328125 33.6875 34.8125 36.53125 
Q 39.546875 41.84375 41.421875 45.53125 
Q 43.3125 49.21875 43.3125 52.78125 
Q 43.3125 58.59375 39.234375 62.25 
Q 35.15625 65.921875 28.609375 65.921875 
Q 23.96875 65.921875 18.8125 64.3125 
Q 13.671875 62.703125 7.8125 59.421875 
L 7.8125 69.390625 
Q 13.765625 71.78125 18.9375 73 
Q 24.125 74.21875 28.421875 74.21875 
Q 39.75 74.21875 46.484375 68.546875 
Q 53.21875 62.890625 53.21875 53.421875 
Q 53.21875 48.921875 51.53125 44.890625 
Q 49.859375 40.875 45.40625 35.40625 
Q 44.1875 33.984375 37.640625 27.21875 
Q 31.109375 20.453125 19.1875 8.296875 
z
" id="DejaVuSans-32"/>
      </defs>
      <g transform="translate(117.337106 322.182437)scale(0.1 -0.1)">
       <use xlink:href="#DejaVuSans-32"/>
       <use x="63.623047" xlink:href="#DejaVuSans-30"/>
       <use x="127.246094" xlink:href="#DejaVuSans-30"/>
      </g>
     </g>
    </g>
    <g id="xtick_3">
     <g id="line2d_3">
      <g>
       <use style="stroke:#000000;stroke-width:0.8;" x="179.928984" xlink:href="#mc209386786" y="307.584"/>
      </g>
     </g>
     <g id="text_3">
      <!-- 400 -->
      <defs>
       <path d="M 37.796875 64.3125 
L 12.890625 25.390625 
L 37.796875 25.390625 
z
M 35.203125 72.90625 
L 47.609375 72.90625 
L 47.609375 25.390625 
L 58.015625 25.390625 
L 58.015625 17.1875 
L 47.609375 17.1875 
L 47.609375 0 
L 37.796875 0 
L 37.796875 17.1875 
L 4.890625 17.1875 
L 4.890625 26.703125 
z
" id="DejaVuSans-34"/>
      </defs>
      <g transform="translate(170.385234 322.182437)scale(0.1 -0.1)">
       <use xlink:href="#DejaVuSans-34"/>
       <use x="63.623047" xlink:href="#DejaVuSans-30"/>
       <use x="127.246094" xlink:href="#DejaVuSans-30"/>
      </g>
     </g>
    </g>
    <g id="xtick_4">
     <g id="line2d_4">
      <g>
       <use style="stroke:#000000;stroke-width:0.8;" x="232.977112" xlink:href="#mc209386786" y="307.584"/>
      </g>
     </g>
     <g id="text_4">
      <!-- 600 -->
      <defs>
       <path d="M 33.015625 40.375 
Q 26.375 40.375 22.484375 35.828125 
Q 18.609375 31.296875 18.609375 23.390625 
Q 18.609375 15.53125 22.484375 10.953125 
Q 26.375 6.390625 33.015625 6.390625 
Q 39.65625 6.390625 43.53125 10.953125 
Q 47.40625 15.53125 47.40625 23.390625 
Q 47.40625 31.296875 43.53125 35.828125 
Q 39.65625 40.375 33.015625 40.375 
z
M 52.59375 71.296875 
L 52.59375 62.3125 
Q 48.875 64.0625 45.09375 64.984375 
Q 41.3125 65.921875 37.59375 65.921875 
Q 27.828125 65.921875 22.671875 59.328125 
Q 17.53125 52.734375 16.796875 39.40625 
Q 19.671875 43.65625 24.015625 45.921875 
Q 28.375 48.1875 33.59375 48.1875 
Q 44.578125 48.1875 50.953125 41.515625 
Q 57.328125 34.859375 57.328125 23.390625 
Q 57.328125 12.15625 50.6875 5.359375 
Q 44.046875 -1.421875 33.015625 -1.421875 
Q 20.359375 -1.421875 13.671875 8.265625 
Q 6.984375 17.96875 6.984375 36.375 
Q 6.984375 53.65625 15.1875 63.9375 
Q 23.390625 74.21875 37.203125 74.21875 
Q 40.921875 74.21875 44.703125 73.484375 
Q 48.484375 72.75 52.59375 71.296875 
z
" id="DejaVuSans-36"/>
      </defs>
      <g transform="translate(223.433362 322.182437)scale(0.1 -0.1)">
       <use xlink:href="#DejaVuSans-36"/>
       <use x="63.623047" xlink:href="#DejaVuSans-30"/>
       <use x="127.246094" xlink:href="#DejaVuSans-30"/>
      </g>
     </g>
    </g>
    <g id="xtick_5">
     <g id="line2d_5">
      <g>
       <use style="stroke:#000000;stroke-width:0.8;" x="286.025241" xlink:href="#mc209386786" y="307.584"/>
      </g>
     </g>
     <g id="text_5">
      <!-- 800 -->
      <defs>
       <path d="M 31.78125 34.625 
Q 24.75 34.625 20.71875 30.859375 
Q 16.703125 27.09375 16.703125 20.515625 
Q 16.703125 13.921875 20.71875 10.15625 
Q 24.75 6.390625 31.78125 6.390625 
Q 38.8125 6.390625 42.859375 10.171875 
Q 46.921875 13.96875 46.921875 20.515625 
Q 46.921875 27.09375 42.890625 30.859375 
Q 38.875 34.625 31.78125 34.625 
z
M 21.921875 38.8125 
Q 15.578125 40.375 12.03125 44.71875 
Q 8.5 49.078125 8.5 55.328125 
Q 8.5 64.0625 14.71875 69.140625 
Q 20.953125 74.21875 31.78125 74.21875 
Q 42.671875 74.21875 48.875 69.140625 
Q 55.078125 64.0625 55.078125 55.328125 
Q 55.078125 49.078125 51.53125 44.71875 
Q 48 40.375 41.703125 38.8125 
Q 48.828125 37.15625 52.796875 32.3125 
Q 56.78125 27.484375 56.78125 20.515625 
Q 56.78125 9.90625 50.3125 4.234375 
Q 43.84375 -1.421875 31.78125 -1.421875 
Q 19.734375 -1.421875 13.25 4.234375 
Q 6.78125 9.90625 6.78125 20.515625 
Q 6.78125 27.484375 10.78125 32.3125 
Q 14.796875 37.15625 21.921875 38.8125 
z
M 18.3125 54.390625 
Q 18.3125 48.734375 21.84375 45.5625 
Q 25.390625 42.390625 31.78125 42.390625 
Q 38.140625 42.390625 41.71875 45.5625 
Q 45.3125 48.734375 45.3125 54.390625 
Q 45.3125 60.0625 41.71875 63.234375 
Q 38.140625 66.40625 31.78125 66.40625 
Q 25.390625 66.40625 21.84375 63.234375 
Q 18.3125 60.0625 18.3125 54.390625 
z
" id="DejaVuSans-38"/>
      </defs>
      <g transform="translate(276.481491 322.182437)scale(0.1 -0.1)">
       <use xlink:href="#DejaVuSans-38"/>
       <use x="63.623047" xlink:href="#DejaVuSans-30"/>
       <use x="127.246094" xlink:href="#DejaVuSans-30"/>
      </g>
     </g>
    </g>
    <g id="xtick_6">
     <g id="line2d_6">
      <g>
       <use style="stroke:#000000;stroke-width:0.8;" x="339.073369" xlink:href="#mc209386786" y="307.584"/>
      </g>
     </g>
     <g id="text_6">
      <!-- 1000 -->
      <defs>
       <path d="M 12.40625 8.296875 
L 28.515625 8.296875 
L 28.515625 63.921875 
L 10.984375 60.40625 
L 10.984375 69.390625 
L 28.421875 72.90625 
L 38.28125 72.90625 
L 38.28125 8.296875 
L 54.390625 8.296875 
L 54.390625 0 
L 12.40625 0 
z
" id="DejaVuSans-31"/>
      </defs>
      <g transform="translate(326.348369 322.182437)scale(0.1 -0.1)">
       <use xlink:href="#DejaVuSans-31"/>
       <use x="63.623047" xlink:href="#DejaVuSans-30"/>
       <use x="127.246094" xlink:href="#DejaVuSans-30"/>
       <use x="190.869141" xlink:href="#DejaVuSans-30"/>
      </g>
     </g>
    </g>
    <g id="xtick_7">
     <g id="line2d_7">
      <g>
       <use style="stroke:#000000;stroke-width:0.8;" x="392.121497" xlink:href="#mc209386786" y="307.584"/>
      </g>
     </g>
     <g id="text_7">
      <!-- 1200 -->
      <g transform="translate(379.396497 322.182437)scale(0.1 -0.1)">
       <use xlink:href="#DejaVuSans-31"/>
       <use x="63.623047" xlink:href="#DejaVuSans-32"/>
       <use x="127.246094" xlink:href="#DejaVuSans-30"/>
       <use x="190.869141" xlink:href="#DejaVuSans-30"/>
      </g>
     </g>
    </g>
   </g>
   <g id="matplotlib.axis_2">
    <g id="ytick_1">
     <g id="line2d_8">
      <defs>
       <path d="M 0 0 
L -3.5 0 
" id="m49f2e9cafe" style="stroke:#000000;stroke-width:0.8;"/>
      </defs>
      <g>
       <use style="stroke:#000000;stroke-width:0.8;" x="57.6" xlink:href="#m49f2e9cafe" y="260.610645"/>
      </g>
     </g>
     <g id="text_8">
      <!-- −0.2 -->
      <defs>
       <path d="M 10.59375 35.5 
L 73.1875 35.5 
L 73.1875 27.203125 
L 10.59375 27.203125 
z
" id="DejaVuSans-2212"/>
       <path d="M 10.6875 12.40625 
L 21 12.40625 
L 21 0 
L 10.6875 0 
z
" id="DejaVuSans-2e"/>
      </defs>
      <g transform="translate(26.317187 264.409864)scale(0.1 -0.1)">
       <use xlink:href="#DejaVuSans-2212"/>
       <use x="83.789062" xlink:href="#DejaVuSans-30"/>
       <use x="147.412109" xlink:href="#DejaVuSans-2e"/>
       <use x="179.199219" xlink:href="#DejaVuSans-32"/>
      </g>
     </g>
    </g>
    <g id="ytick_2">
     <g id="line2d_9">
      <g>
       <use style="stroke:#000000;stroke-width:0.8;" x="57.6" xlink:href="#m49f2e9cafe" y="212.496747"/>
      </g>
     </g>
     <g id="text_9">
      <!-- 0.0 -->
      <g transform="translate(34.696875 216.295966)scale(0.1 -0.1)">
       <use xlink:href="#DejaVuSans-30"/>
       <use x="63.623047" xlink:href="#DejaVuSans-2e"/>
       <use x="95.410156" xlink:href="#DejaVuSans-30"/>
      </g>
     </g>
    </g>
    <g id="ytick_3">
     <g id="line2d_10">
      <g>
       <use style="stroke:#000000;stroke-width:0.8;" x="57.6" xlink:href="#m49f2e9cafe" y="164.382849"/>
      </g>
     </g>
     <g id="text_10">
      <!-- 0.2 -->
      <g transform="translate(34.696875 168.182068)scale(0.1 -0.1)">
       <use xlink:href="#DejaVuSans-30"/>
       <use x="63.623047" xlink:href="#DejaVuSans-2e"/>
       <use x="95.410156" xlink:href="#DejaVuSans-32"/>
      </g>
     </g>
    </g>
    <g id="ytick_4">
     <g id="line2d_11">
      <g>
       <use style="stroke:#000000;stroke-width:0.8;" x="57.6" xlink:href="#m49f2e9cafe" y="116.268951"/>
      </g>
     </g>
     <g id="text_11">
      <!-- 0.4 -->
      <g transform="translate(34.696875 120.06817)scale(0.1 -0.1)">
       <use xlink:href="#DejaVuSans-30"/>
       <use x="63.623047" xlink:href="#DejaVuSans-2e"/>
       <use x="95.410156" xlink:href="#DejaVuSans-34"/>
      </g>
     </g>
    </g>
    <g id="ytick_5">
     <g id="line2d_12">
      <g>
       <use style="stroke:#000000;stroke-width:0.8;" x="57.6" xlink:href="#m49f2e9cafe" y="68.155054"/>
      </g>
     </g>
     <g id="text_12">
      <!-- 0.6 -->
      <g transform="translate(34.696875 71.954272)scale(0.1 -0.1)">
       <use xlink:href="#DejaVuSans-30"/>
       <use x="63.623047" xlink:href="#DejaVuSans-2e"/>
       <use x="95.410156" xlink:href="#DejaVuSans-36"/>
      </g>
     </g>
    </g>
   </g>
   <g id="line2d_13">
    <path clip-path="url(#p6a0d989dad)" d="M 73.832727 79.565964 
L 75.954652 79.565964 
L 76.219893 82.063258 
L 76.750374 94.570591 
L 77.280856 87.222081 
L 77.811337 70.065475 
L 78.076578 69.039275 
L 78.341818 61.273366 
L 78.607059 58.718408 
L 78.872299 59.184834 
L 79.13754 54.554604 
L 79.402781 55.634128 
L 79.668021 53.568 
L 80.198503 56.766102 
L 80.463743 56.854288 
L 80.728984 58.551202 
L 80.994225 58.547578 
L 81.259465 58.853924 
L 81.524706 58.380962 
L 82.055187 58.275196 
L 82.320428 57.92563 
L 82.585668 57.818789 
L 82.850909 58.265001 
L 83.11615 58.243212 
L 83.646631 58.919639 
L 85.238075 61.060399 
L 86.299037 62.078426 
L 87.625241 63.511217 
L 88.686203 64.916951 
L 88.951444 65.033938 
L 89.481925 65.703764 
L 90.277647 66.326682 
L 90.542888 66.717793 
L 91.073369 67.102746 
L 93.460535 69.141645 
L 93.991016 69.431226 
L 95.051979 70.120354 
L 96.112941 70.671863 
L 97.173904 71.177144 
L 100.091551 72.188299 
L 100.622032 72.36251 
L 103.009198 72.960262 
L 105.661604 73.396976 
L 108.04877 73.700023 
L 114.149305 74.129985 
L 117.332193 74.189457 
L 126.350374 74.187229 
L 134.307594 74.18722 
L 134.838075 75.725137 
L 135.103316 76.723518 
L 135.368556 76.941979 
L 135.899037 78.663379 
L 136.164278 78.687771 
L 136.429519 79.216718 
L 136.694759 80.108232 
L 136.96 80.13412 
L 137.225241 80.4926 
L 137.490481 81.090292 
L 138.551444 82.306982 
L 138.816684 82.275344 
L 139.081925 82.812075 
L 139.612406 83.221549 
L 139.877647 83.147802 
L 140.142888 83.561868 
L 141.734332 84.529504 
L 142.530053 84.793085 
L 142.795294 84.965531 
L 143.060535 84.982898 
L 143.591016 85.17135 
L 147.304385 85.876779 
L 147.834866 85.921159 
L 148.630588 85.992907 
L 151.017754 86.194052 
L 153.935401 86.280285 
L 167.462674 86.387992 
L 177.011337 86.395398 
L 177.276578 86.048015 
L 177.541818 84.348288 
L 177.807059 85.48671 
L 178.072299 82.87046 
L 178.602781 84.202282 
L 178.868021 81.912846 
L 179.133262 82.985351 
L 179.663743 81.858551 
L 179.928984 82.246112 
L 180.194225 81.626668 
L 180.459465 81.844883 
L 180.724706 81.410045 
L 181.255187 81.649662 
L 181.520428 81.128707 
L 181.785668 81.499188 
L 182.31615 81.267724 
L 182.58139 81.448499 
L 183.111872 81.400553 
L 183.377112 81.519566 
L 183.642353 81.413721 
L 183.907594 81.708341 
L 184.438075 81.582941 
L 184.703316 81.863856 
L 185.233797 81.86236 
L 185.499037 82.04645 
L 186.294759 82.239682 
L 186.825241 82.46027 
L 187.090481 82.48145 
L 187.620963 82.736784 
L 187.886203 82.738823 
L 188.416684 83.070047 
L 188.681925 82.973085 
L 189.212406 83.26843 
L 194.251979 84.764135 
L 195.312941 84.968497 
L 197.700107 85.395022 
L 199.291551 85.603814 
L 211.49262 85.694451 
L 280.189947 85.714881 
L 316.793155 85.712848 
L 317.058396 87.279668 
L 317.323636 85.118505 
L 317.588877 80.946779 
L 317.854118 84.037292 
L 318.119358 84.041633 
L 318.384599 80.678658 
L 318.64984 82.411919 
L 319.180321 80.715887 
L 319.445561 80.416831 
L 319.710802 81.234036 
L 319.976043 80.911381 
L 320.241283 79.875449 
L 320.506524 80.602534 
L 320.771765 80.918117 
L 321.037005 80.05858 
L 321.567487 80.57954 
L 322.097968 80.192781 
L 322.628449 80.726137 
L 322.89369 80.170927 
L 323.15893 80.811839 
L 323.689412 80.616821 
L 323.954652 80.992557 
L 324.219893 80.786711 
L 324.485134 81.089753 
L 325.015615 81.143869 
L 325.280856 81.370197 
L 325.546096 81.360232 
L 325.811337 81.654304 
L 326.076578 81.523638 
L 326.607059 81.952287 
L 326.872299 81.839463 
L 327.402781 82.211581 
L 327.668021 82.180238 
L 327.933262 82.388198 
L 328.463743 82.560463 
L 330.585668 83.391328 
L 330.850909 83.412186 
L 331.11615 83.578111 
L 331.646631 83.688964 
L 335.625241 84.742944 
L 335.890481 84.702268 
L 336.420963 84.861706 
L 337.747166 85.054296 
L 338.808128 85.24068 
L 346.765348 85.94596 
L 347.030588 85.740635 
L 347.295829 85.804679 
L 347.82631 84.952674 
L 348.091551 85.530096 
L 348.356791 84.746564 
L 348.622032 84.46155 
L 348.887273 84.791774 
L 349.152513 84.163605 
L 349.682995 83.919192 
L 349.948235 83.79294 
L 350.213476 83.400865 
L 350.743957 83.017738 
L 351.009198 82.593184 
L 351.274439 82.651149 
L 351.539679 82.489424 
L 351.80492 81.956163 
L 354.192086 80.428135 
L 354.987807 79.926664 
L 359.496898 77.616492 
L 364.005989 76.171012 
L 367.454118 75.554564 
L 368.780321 75.377483 
L 372.75893 75.002055 
L 377.268021 74.75978 
L 383.103316 74.597202 
L 389.469091 74.525781 
L 398.487273 74.526967 
L 398.487273 74.526967 
" style="fill:none;stroke:#ff0000;stroke-dasharray:5.55,2.4;stroke-dashoffset:0;stroke-width:1.5;"/>
   </g>
   <g id="line2d_14">
    <path clip-path="url(#p6a0d989dad)" d="M 73.832727 289.859027 
L 75.954652 289.859027 
L 76.219893 293.582316 
L 76.485134 295.488 
L 76.750374 284.844406 
L 77.015615 279.249436 
L 77.280856 278.017134 
L 77.546096 277.357858 
L 78.607059 248.382753 
L 79.13754 236.573401 
L 79.402781 232.187867 
L 79.668021 231.624553 
L 79.933262 229.93768 
L 80.198503 229.322602 
L 80.463743 229.435864 
L 80.994225 226.667739 
L 81.524706 222.697808 
L 82.585668 213.067937 
L 83.11615 209.588947 
L 83.911872 205.939881 
L 84.442353 204.222403 
L 86.299037 195.767883 
L 87.094759 192.905531 
L 89.216684 186.406141 
L 90.012406 184.579316 
L 93.725775 178.072156 
L 94.521497 177.129462 
L 95.847701 175.634547 
L 97.439144 174.308192 
L 99.56107 172.940323 
L 103.009198 171.341953 
L 106.987807 170.292445 
L 110.701176 169.694373 
L 115.475508 169.274569 
L 118.393155 169.281517 
L 134.307594 169.281012 
L 134.572834 169.350909 
L 135.103316 169.909125 
L 135.368556 170.908293 
L 135.633797 170.97115 
L 136.164278 171.902722 
L 136.429519 171.960194 
L 136.694759 172.24139 
L 136.96 172.339681 
L 137.225241 172.629004 
L 137.490481 172.571351 
L 137.755722 172.898163 
L 138.551444 173.345704 
L 138.816684 173.565876 
L 139.081925 173.620217 
L 139.347166 173.829528 
L 139.612406 173.883542 
L 139.877647 174.06911 
L 140.142888 174.052888 
L 140.93861 174.427604 
L 143.591016 175.146956 
L 144.386738 175.235067 
L 147.569626 175.597536 
L 148.895829 175.67572 
L 151.548235 175.821649 
L 153.139679 175.864451 
L 177.276578 176.016219 
L 177.541818 175.22054 
L 177.807059 175.131395 
L 178.072299 175.766125 
L 178.33754 175.097419 
L 178.602781 175.686968 
L 178.868021 175.701115 
L 179.133262 176.113277 
L 179.398503 175.751294 
L 179.928984 176.209128 
L 180.194225 175.461138 
L 180.459465 175.945814 
L 180.989947 175.565879 
L 181.255187 175.762689 
L 181.520428 175.527424 
L 181.785668 175.646225 
L 182.31615 175.486202 
L 182.58139 175.676468 
L 182.846631 175.457264 
L 183.377112 175.572672 
L 183.642353 175.400309 
L 184.172834 175.45633 
L 184.438075 175.344353 
L 184.703316 175.358129 
L 184.968556 175.254564 
L 185.499037 175.251327 
L 185.764278 175.190661 
L 186.029519 175.253712 
L 186.56 175.125265 
L 187.620963 175.036699 
L 189.742888 174.879333 
L 190.008128 174.776833 
L 190.273369 174.85911 
L 190.80385 174.768568 
L 194.78246 174.504395 
L 203.800642 174.246791 
L 204.065882 174.330324 
L 204.331123 174.240318 
L 204.861604 174.261028 
L 205.392086 174.266824 
L 205.922567 174.203392 
L 209.370695 174.229791 
L 209.901176 174.186361 
L 211.49262 174.160317 
L 212.023102 174.184084 
L 213.084064 174.162623 
L 214.410267 174.160708 
L 216.797433 174.131655 
L 217.062674 174.196444 
L 217.593155 174.146701 
L 218.654118 174.186403 
L 218.919358 174.120924 
L 219.184599 174.188283 
L 219.71508 174.188503 
L 220.245561 174.160068 
L 221.571765 174.198487 
L 222.102246 174.142303 
L 222.367487 174.204652 
L 222.897968 174.125275 
L 225.550374 174.168233 
L 226.346096 174.122763 
L 226.876578 174.143456 
L 228.202781 174.109678 
L 228.733262 174.16712 
L 230.059465 174.113356 
L 230.324706 174.203655 
L 230.855187 174.129705 
L 231.120428 174.188261 
L 231.91615 174.127478 
L 232.446631 174.180651 
L 232.711872 174.101989 
L 233.242353 174.150477 
L 256.84877 174.169381 
L 257.379251 174.151862 
L 258.440214 174.121891 
L 259.235936 174.123325 
L 316.793155 174.123951 
L 317.058396 173.634492 
L 317.323636 175.761746 
L 317.588877 175.459589 
L 317.854118 174.076139 
L 318.119358 174.170435 
L 318.64984 173.459622 
L 318.91508 172.408987 
L 319.180321 173.8612 
L 319.445561 173.312951 
L 319.710802 172.275059 
L 319.976043 173.343966 
L 320.506524 172.921054 
L 321.037005 172.986751 
L 321.302246 173.18918 
L 321.567487 172.737344 
L 322.097968 173.025356 
L 322.363209 172.596929 
L 322.628449 172.822943 
L 323.689412 172.780929 
L 323.954652 172.857414 
L 324.219893 172.737245 
L 324.485134 172.893726 
L 325.015615 172.833903 
L 325.280856 172.893112 
L 325.546096 172.809749 
L 326.076578 172.900436 
L 326.341818 172.830658 
L 326.607059 172.949108 
L 327.402781 172.927721 
L 329.259465 173.101251 
L 329.789947 173.099241 
L 330.585668 173.190424 
L 330.850909 173.134385 
L 331.38139 173.179545 
L 332.707594 173.278836 
L 332.972834 173.226924 
L 333.238075 173.330801 
L 333.768556 173.319852 
L 334.564278 173.377152 
L 340.134332 173.534581 
L 341.460535 173.575368 
L 346.765348 173.656957 
L 347.030588 173.855618 
L 347.295829 173.194164 
L 347.56107 173.945945 
L 347.82631 173.369564 
L 348.091551 173.336857 
L 348.356791 173.460696 
L 348.887273 173.188553 
L 349.152513 173.015413 
L 349.417754 173.092668 
L 349.682995 172.976706 
L 349.948235 172.655979 
L 350.213476 172.977721 
L 350.478717 172.544459 
L 350.743957 172.674621 
L 351.009198 172.386178 
L 351.274439 172.394949 
L 351.539679 172.214685 
L 351.80492 172.256842 
L 352.335401 171.934209 
L 352.600642 171.962287 
L 352.865882 171.767813 
L 353.396364 171.67897 
L 353.661604 171.530924 
L 353.926845 171.539974 
L 354.722567 171.22781 
L 354.987807 171.235113 
L 355.518289 171.071271 
L 360.823102 169.960623 
L 361.618824 169.890283 
L 362.414545 169.723911 
L 373.554652 169.032647 
L 379.124706 168.922063 
L 398.487273 168.851584 
L 398.487273 168.851584 
" style="fill:none;stroke:#008000;stroke-linecap:square;stroke-width:1.5;"/>
   </g>
   <g id="line2d_15">
    <path clip-path="url(#p6a0d989dad)" d="M 73.832727 230.535735 
L 75.954652 230.535735 
L 76.219893 229.504502 
L 77.015615 220.352329 
L 77.811337 203.185227 
L 78.341818 198.268933 
L 78.607059 199.884937 
L 78.872299 202.322715 
L 79.13754 201.55109 
L 79.402781 198.949526 
L 79.668021 197.50319 
L 79.933262 197.560087 
L 80.198503 197.402308 
L 80.463743 195.981664 
L 80.728984 195.595311 
L 80.994225 195.461926 
L 81.524706 194.512185 
L 81.789947 194.389405 
L 82.055187 194.14162 
L 82.320428 193.70898 
L 84.177112 192.651992 
L 85.768556 192.192098 
L 87.36 191.983046 
L 91.33861 192.063076 
L 100.356791 192.626018 
L 106.192086 192.804514 
L 116.536471 192.920509 
L 131.124706 192.919889 
L 134.307594 192.919887 
L 134.572834 192.581484 
L 134.838075 193.511902 
L 135.103316 193.786482 
L 135.368556 193.761826 
L 135.899037 194.308739 
L 136.164278 194.273474 
L 136.96 194.589677 
L 137.225241 194.567639 
L 137.755722 194.67348 
L 138.286203 194.632631 
L 138.816684 194.630561 
L 139.081925 194.522384 
L 139.347166 194.587927 
L 139.612406 194.43169 
L 139.877647 194.467503 
L 141.734332 193.952112 
L 147.304385 192.485329 
L 149.42631 192.049381 
L 150.752513 191.778207 
L 152.343957 191.519054 
L 159.240214 190.842715 
L 165.075508 190.584555 
L 174.35893 190.43162 
L 177.011337 190.413512 
L 177.276578 190.774289 
L 177.541818 194.577733 
L 178.602781 201.926096 
L 179.133262 204.646517 
L 179.398503 206.972998 
L 179.928984 209.568092 
L 180.194225 211.348215 
L 180.459465 212.137008 
L 181.255187 216.082752 
L 182.050909 219.516221 
L 183.907594 225.990525 
L 186.294759 232.384293 
L 187.355722 234.61816 
L 190.008128 239.136665 
L 191.864813 241.624641 
L 194.78246 244.220417 
L 197.700107 246.06022 
L 199.291551 246.696614 
L 202.209198 247.093956 
L 203.00492 247.178283 
L 203.800642 247.49404 
L 208.840214 247.508017 
L 216.532193 247.515933 
L 316.793155 247.503401 
L 317.854118 238.838608 
L 318.119358 237.475041 
L 318.384599 234.031452 
L 318.64984 233.008788 
L 319.445561 228.368008 
L 319.710802 227.647238 
L 320.241283 224.386955 
L 320.771765 222.344931 
L 322.097968 216.507414 
L 322.363209 215.889271 
L 323.954652 210.203712 
L 325.015615 207.321141 
L 326.341818 204.227219 
L 327.13754 202.663315 
L 327.668021 201.835717 
L 328.198503 200.906775 
L 329.789947 198.520924 
L 330.320428 197.8408 
L 331.11615 196.858329 
L 332.707594 195.446463 
L 334.033797 194.475415 
L 334.564278 194.051337 
L 335.36 193.476035 
L 336.420963 192.901942 
L 336.951444 192.631836 
L 338.012406 192.196038 
L 338.542888 191.915465 
L 341.195294 191.073293 
L 344.378182 190.397786 
L 346.765348 190.060417 
L 347.030588 190.815167 
L 347.295829 191.147265 
L 347.56107 191.134056 
L 348.091551 191.874304 
L 349.152513 192.666694 
L 349.417754 192.598872 
L 349.682995 192.988331 
L 350.213476 193.052969 
L 350.743957 193.415898 
L 351.274439 193.535597 
L 351.80492 193.673743 
L 352.07016 193.792726 
L 352.600642 193.774789 
L 353.926845 193.946928 
L 354.457326 193.954288 
L 360.29262 193.710115 
L 361.353583 193.617136 
L 362.679786 193.541999 
L 364.005989 193.454762 
L 385.490481 192.997178 
L 398.487273 192.986075 
L 398.487273 192.986075 
" style="fill:none;stroke:#0000ff;stroke-dasharray:5.55,2.4;stroke-dashoffset:0;stroke-width:1.5;"/>
   </g>
   <g id="line2d_16">
    <path clip-path="url(#p6a0d989dad)" d="M 355.253048 307.584 
L 355.253048 41.472 
" style="fill:none;stroke:#bf00bf;stroke-linecap:square;stroke-width:1.5;"/>
   </g>
   <g id="line2d_17">
    <path clip-path="url(#p6a0d989dad)" d="M 317.588877 307.584 
L 317.588877 41.472 
" style="fill:none;stroke:#bf00bf;stroke-linecap:square;stroke-width:1.5;"/>
   </g>
   <g id="line2d_18">
    <path clip-path="url(#p6a0d989dad)" d="M 316.793155 307.584 
L 316.793155 41.472 
" style="fill:none;stroke:#bf00bf;stroke-linecap:square;stroke-width:1.5;"/>
   </g>
   <g id="line2d_19">
    <path clip-path="url(#p6a0d989dad)" d="M 388.93861 307.584 
L 388.93861 41.472 
" style="fill:none;stroke:#bf00bf;stroke-linecap:square;stroke-width:1.5;"/>
   </g>
   <g id="line2d_20">
    <path clip-path="url(#p6a0d989dad)" d="M 371.432727 307.584 
L 371.432727 41.472 
" style="fill:none;stroke:#bf00bf;stroke-linecap:square;stroke-width:1.5;"/>
   </g>
   <g id="line2d_21">
    <path clip-path="url(#p6a0d989dad)" d="M 362.679786 307.584 
L 362.679786 41.472 
" style="fill:none;stroke:#bf00bf;stroke-linecap:square;stroke-width:1.5;"/>
   </g>
   <g id="line2d_22">
    <path clip-path="url(#p6a0d989dad)" d="M 365.066952 307.584 
L 365.066952 41.472 
" style="fill:none;stroke:#bf00bf;stroke-linecap:square;stroke-width:1.5;"/>
   </g>
   <g id="line2d_23">
    <path clip-path="url(#p6a0d989dad)" d="M 318.64984 307.584 
L 318.64984 41.472 
" style="fill:none;stroke:#bf00bf;stroke-linecap:square;stroke-width:1.5;"/>
   </g>
   <g id="line2d_24">
    <path clip-path="url(#p6a0d989dad)" d="M 317.058396 307.584 
L 317.058396 41.472 
" style="fill:none;stroke:#bf00bf;stroke-linecap:square;stroke-width:1.5;"/>
   </g>
   <g id="line2d_25">
    <path clip-path="url(#p6a0d989dad)" d="M 351.539679 307.584 
L 351.539679 41.472 
" style="fill:none;stroke:#bf00bf;stroke-linecap:square;stroke-width:1.5;"/>
   </g>
   <g id="line2d_26">
    <path clip-path="url(#p6a0d989dad)" d="M 388.93861 307.584 
L 388.93861 41.472 
" style="fill:none;stroke:#bf00bf;stroke-linecap:square;stroke-width:1.5;"/>
   </g>
   <g id="line2d_27">
    <path clip-path="url(#p6a0d989dad)" d="M 376.73754 307.584 
L 376.73754 41.472 
" style="fill:none;stroke:#bf00bf;stroke-linecap:square;stroke-width:1.5;"/>
   </g>
   <g id="line2d_28">
    <path clip-path="url(#p6a0d989dad)" d="M 332.442353 307.584 
L 332.442353 41.472 
" style="fill:none;stroke:#bf00bf;stroke-linecap:square;stroke-width:1.5;"/>
   </g>
   <g id="line2d_29">
    <path clip-path="url(#p6a0d989dad)" d="M 318.91508 307.584 
L 318.91508 41.472 
" style="fill:none;stroke:#bf00bf;stroke-linecap:square;stroke-width:1.5;"/>
   </g>
   <g id="line2d_30">
    <path clip-path="url(#p6a0d989dad)" d="M 317.058396 307.584 
L 317.058396 41.472 
" style="fill:none;stroke:#bf00bf;stroke-linecap:square;stroke-width:1.5;"/>
   </g>
   <g id="line2d_31">
    <path clip-path="url(#p6a0d989dad)" d="M 328.994225 307.584 
L 328.994225 41.472 
" style="fill:none;stroke:#bf00bf;stroke-linecap:square;stroke-width:1.5;"/>
   </g>
   <g id="line2d_32">
    <path clip-path="url(#p6a0d989dad)" d="M 323.954652 307.584 
L 323.954652 41.472 
" style="fill:none;stroke:#bf00bf;stroke-linecap:square;stroke-width:1.5;"/>
   </g>
   <g id="line2d_33">
    <path clip-path="url(#p6a0d989dad)" d="M 388.93861 307.584 
L 388.93861 41.472 
" style="fill:none;stroke:#bf00bf;stroke-linecap:square;stroke-width:1.5;"/>
   </g>
   <g id="line2d_34">
    <path clip-path="url(#p6a0d989dad)" d="M 369.576043 307.584 
L 369.576043 41.472 
" style="fill:none;stroke:#bf00bf;stroke-linecap:square;stroke-width:1.5;"/>
   </g>
   <g id="line2d_35">
    <path clip-path="url(#p6a0d989dad)" d="M 350.478717 307.584 
L 350.478717 41.472 
" style="fill:none;stroke:#bf00bf;stroke-linecap:square;stroke-width:1.5;"/>
   </g>
   <g id="line2d_36">
    <path clip-path="url(#p6a0d989dad)" d="M 101.152513 307.584 
L 101.152513 41.472 
" style="fill:none;stroke:#00bfbf;stroke-linecap:square;stroke-width:1.5;"/>
   </g>
   <g id="line2d_37">
    <path clip-path="url(#p6a0d989dad)" d="M 76.219893 307.584 
L 76.219893 41.472 
" style="fill:none;stroke:#00bfbf;stroke-linecap:square;stroke-width:1.5;"/>
   </g>
   <g id="line2d_38">
    <path clip-path="url(#p6a0d989dad)" d="M 92.664813 307.584 
L 92.664813 41.472 
" style="fill:none;stroke:#00bfbf;stroke-linecap:square;stroke-width:1.5;"/>
   </g>
   <g id="line2d_39">
    <path clip-path="url(#p6a0d989dad)" d="M 77.811337 307.584 
L 77.811337 41.472 
" style="fill:none;stroke:#00bfbf;stroke-linecap:square;stroke-width:1.5;"/>
   </g>
   <g id="line2d_40">
    <path clip-path="url(#p6a0d989dad)" d="M 93.195294 307.584 
L 93.195294 41.472 
" style="fill:none;stroke:#00bfbf;stroke-linecap:square;stroke-width:1.5;"/>
   </g>
   <g id="line2d_41">
    <path clip-path="url(#p6a0d989dad)" d="M 76.219893 307.584 
L 76.219893 41.472 
" style="fill:none;stroke:#00bfbf;stroke-linecap:square;stroke-width:1.5;"/>
   </g>
   <g id="line2d_42">
    <path clip-path="url(#p6a0d989dad)" d="M 84.972834 307.584 
L 84.972834 41.472 
" style="fill:none;stroke:#00bfbf;stroke-linecap:square;stroke-width:1.5;"/>
   </g>
   <g id="line2d_43">
    <path clip-path="url(#p6a0d989dad)" d="M 80.994225 307.584 
L 80.994225 41.472 
" style="fill:none;stroke:#00bfbf;stroke-linecap:square;stroke-width:1.5;"/>
   </g>
   <g id="line2d_44">
    <path clip-path="url(#p6a0d989dad)" d="M 79.13754 307.584 
L 79.13754 41.472 
" style="fill:none;stroke:#00bfbf;stroke-linecap:square;stroke-width:1.5;"/>
   </g>
   <g id="line2d_45">
    <path clip-path="url(#p6a0d989dad)" d="M 88.951444 307.584 
L 88.951444 41.472 
" style="fill:none;stroke:#00bfbf;stroke-linecap:square;stroke-width:1.5;"/>
   </g>
   <g id="line2d_46">
    <path clip-path="url(#p6a0d989dad)" d="M 104.07016 307.584 
L 104.07016 41.472 
" style="fill:none;stroke:#00bfbf;stroke-linecap:square;stroke-width:1.5;"/>
   </g>
   <g id="line2d_47">
    <path clip-path="url(#p6a0d989dad)" d="M 76.219893 307.584 
L 76.219893 41.472 
" style="fill:none;stroke:#00bfbf;stroke-linecap:square;stroke-width:1.5;"/>
   </g>
   <g id="line2d_48">
    <path clip-path="url(#p6a0d989dad)" d="M 79.668021 307.584 
L 79.668021 41.472 
" style="fill:none;stroke:#00bfbf;stroke-linecap:square;stroke-width:1.5;"/>
   </g>
   <g id="line2d_49">
    <path clip-path="url(#p6a0d989dad)" d="M 135.899037 307.584 
L 135.899037 41.472 
" style="fill:none;stroke:#bfbf00;stroke-linecap:square;stroke-width:1.5;"/>
   </g>
   <g id="line2d_50">
    <path clip-path="url(#p6a0d989dad)" d="M 137.225241 307.584 
L 137.225241 41.472 
" style="fill:none;stroke:#bfbf00;stroke-linecap:square;stroke-width:1.5;"/>
   </g>
   <g id="line2d_51">
    <path clip-path="url(#p6a0d989dad)" d="M 141.999572 307.584 
L 141.999572 41.472 
" style="fill:none;stroke:#bfbf00;stroke-linecap:square;stroke-width:1.5;"/>
   </g>
   <g id="line2d_52">
    <path clip-path="url(#p6a0d989dad)" d="M 151.282995 307.584 
L 151.282995 41.472 
" style="fill:none;stroke:#bfbf00;stroke-linecap:square;stroke-width:1.5;"/>
   </g>
   <g id="line2d_53">
    <path clip-path="url(#p6a0d989dad)" d="M 316.793155 307.584 
L 316.793155 41.472 
" style="fill:none;stroke:#000000;stroke-linecap:square;stroke-width:1.5;"/>
   </g>
   <g id="line2d_54">
    <path clip-path="url(#p6a0d989dad)" d="M 388.93861 307.584 
L 388.93861 41.472 
" style="fill:none;stroke:#000000;stroke-linecap:square;stroke-width:1.5;"/>
   </g>
   <g id="line2d_55">
    <path clip-path="url(#p6a0d989dad)" d="M 348.051765 307.584 
L 348.051765 41.472 
" style="fill:none;stroke:#000000;stroke-linecap:square;stroke-width:1.5;"/>
   </g>
   <g id="line2d_56">
    <path clip-path="url(#p6a0d989dad)" d="M 76.219893 307.584 
L 76.219893 41.472 
" style="fill:none;stroke:#000000;stroke-linecap:square;stroke-width:1.5;"/>
   </g>
   <g id="line2d_57">
    <path clip-path="url(#p6a0d989dad)" d="M 104.07016 307.584 
L 104.07016 41.472 
" style="fill:none;stroke:#000000;stroke-linecap:square;stroke-width:1.5;"/>
   </g>
   <g id="line2d_58">
    <path clip-path="url(#p6a0d989dad)" d="M 85.482912 307.584 
L 85.482912 41.472 
" style="fill:none;stroke:#000000;stroke-linecap:square;stroke-width:1.5;"/>
   </g>
   <g id="line2d_59">
    <path clip-path="url(#p6a0d989dad)" d="M 177.807059 307.584 
L 177.807059 41.472 
" style="fill:none;stroke:#000000;stroke-linecap:square;stroke-width:1.5;"/>
   </g>
   <g id="line2d_60">
    <path clip-path="url(#p6a0d989dad)" d="M 234.038075 307.584 
L 234.038075 41.472 
" style="fill:none;stroke:#000000;stroke-linecap:square;stroke-width:1.5;"/>
   </g>
   <g id="line2d_61">
    <path clip-path="url(#p6a0d989dad)" d="M 198.04696 307.584 
L 198.04696 41.472 
" style="fill:none;stroke:#000000;stroke-linecap:square;stroke-width:1.5;"/>
   </g>
   <g id="patch_3">
    <path d="M 57.6 307.584 
L 57.6 41.472 
" style="fill:none;stroke:#000000;stroke-linecap:square;stroke-linejoin:miter;stroke-width:0.8;"/>
   </g>
   <g id="patch_4">
    <path d="M 414.72 307.584 
L 414.72 41.472 
" style="fill:none;stroke:#000000;stroke-linecap:square;stroke-linejoin:miter;stroke-width:0.8;"/>
   </g>
   <g id="patch_5">
    <path d="M 57.6 307.584 
L 414.72 307.584 
" style="fill:none;stroke:#000000;stroke-linecap:square;stroke-linejoin:miter;stroke-width:0.8;"/>
   </g>
   <g id="patch_6">
    <path d="M 57.6 41.472 
L 414.72 41.472 
" style="fill:none;stroke:#000000;stroke-linecap:square;stroke-linejoin:miter;stroke-width:0.8;"/>
   </g>
  </g>
 </g>
 <defs>
  <clipPath id="p6a0d989dad">
   <rect height="266.112" width="357.12" x="57.6" y="41.472"/>
  </clipPath>
 </defs>
</svg>
