<?xml version="1.0" encoding="utf-8" standalone="no"?>
<!DOCTYPE svg PUBLIC "-//W3C//DTD SVG 1.1//EN"
  "http://www.w3.org/Graphics/SVG/1.1/DTD/svg11.dtd">
<!-- Created with matplotlib (http://matplotlib.org/) -->
<svg height="432pt" version="1.1" viewBox="0 0 576 432" width="576pt" xmlns="http://www.w3.org/2000/svg" xmlns:xlink="http://www.w3.org/1999/xlink">
 <defs>
  <style type="text/css">
*{stroke-linecap:butt;stroke-linejoin:round;stroke-miterlimit:100000;}
  </style>
 </defs>
 <g id="figure_1">
  <g id="patch_1">
   <path d="M 0 432 
L 576 432 
L 576 0 
L 0 0 
z
" style="fill:#ffffff;"/>
  </g>
  <g id="axes_1">
   <g id="patch_2">
    <path d="M 72 388.8 
L 518.4 388.8 
L 518.4 43.2 
L 72 43.2 
z
" style="fill:#ffffff;"/>
   </g>
   <g id="line2d_1">
    <path clip-path="url(#pc04e2aa8a7)" d="M 72 54.817321 
L 85.95 54.817324 
L 86.229 53.715263 
L 86.508 53.58669 
L 87.066 53.605233 
L 87.624 53.61212 
L 94.041 53.599412 
L 99.342 53.600188 
L 99.9 55.641256 
L 100.179 57.467318 
L 100.458 58.358475 
L 100.737 58.629757 
L 101.016 59.531181 
L 101.295 61.306223 
L 101.574 62.138721 
L 101.853 62.149047 
L 102.132 62.80658 
L 102.411 64.162367 
L 102.69 64.74524 
L 102.969 64.816789 
L 103.248 65.206587 
L 103.527 66.383201 
L 104.364 67.261979 
L 104.643 68.135475 
L 104.922 68.490905 
L 105.201 68.641868 
L 106.317 70.022902 
L 106.875 70.606787 
L 107.154 71.135781 
L 107.433 71.138741 
L 109.107 72.458608 
L 109.944 72.929632 
L 110.781 73.441084 
L 111.06 73.486297 
L 111.339 73.715297 
L 111.618 73.694745 
L 111.897 73.979614 
L 112.176 73.935518 
L 112.734 74.171836 
L 113.292 74.372576 
L 113.85 74.522711 
L 115.524 74.889592 
L 121.662 75.600319 
L 130.59 75.89314 
L 131.985 75.900195 
L 140.076 75.946491 
L 147.609 75.958776 
L 159.048 75.964586 
L 159.327 74.922091 
L 159.606 72.132993 
L 160.164 74.27323 
L 160.443 70.09941 
L 160.722 68.962125 
L 161.001 72.151639 
L 161.28 71.123524 
L 161.559 67.834487 
L 161.838 68.635246 
L 162.117 70.204309 
L 162.396 69.281216 
L 162.675 67.870266 
L 162.954 67.858781 
L 163.233 68.07246 
L 163.512 67.938515 
L 163.791 67.982819 
L 164.349 66.63895 
L 164.628 67.099342 
L 164.907 67.84262 
L 165.186 67.202366 
L 165.465 66.249604 
L 166.023 67.510493 
L 166.581 66.642343 
L 167.139 67.198539 
L 167.418 67.163606 
L 167.697 67.002187 
L 167.976 67.047217 
L 168.534 67.501587 
L 169.092 67.330359 
L 169.65 67.80637 
L 170.208 67.84277 
L 171.324 68.40732 
L 171.603 68.336997 
L 171.882 68.490642 
L 172.161 68.828312 
L 172.44 68.953896 
L 172.719 68.793249 
L 172.998 68.924044 
L 173.277 69.298561 
L 174.393 69.67346 
L 174.672 69.861145 
L 174.951 69.870036 
L 176.625 70.626794 
L 181.647 72.456598 
L 183.6 73.006369 
L 185.274 73.479306 
L 186.39 73.736372 
L 191.691 74.570134 
L 214.29 74.731261 
L 309.987 74.754869 
L 363.276 74.755244 
L 363.555 74.592732 
L 363.834 77.198629 
L 364.113 74.142692 
L 364.392 67.118507 
L 364.671 68.27214 
L 364.95 73.195912 
L 365.229 70.607788 
L 365.508 66.455433 
L 365.787 66.679993 
L 366.066 68.502401 
L 366.345 68.45102 
L 366.624 67.16574 
L 366.903 65.329016 
L 367.182 65.16445 
L 367.461 66.898417 
L 367.74 67.331605 
L 368.019 65.208894 
L 368.298 64.220803 
L 368.577 66.186451 
L 368.856 66.342203 
L 369.135 64.828028 
L 369.414 64.864939 
L 369.693 65.425476 
L 369.972 65.499838 
L 370.251 65.366398 
L 370.53 65.007842 
L 370.809 65.003738 
L 371.088 65.615959 
L 371.367 65.688843 
L 371.646 65.218505 
L 371.925 65.220196 
L 372.204 65.917233 
L 372.762 65.575806 
L 373.041 65.954226 
L 373.32 66.07796 
L 373.599 66.07421 
L 373.878 66.329575 
L 374.436 66.32527 
L 374.994 66.893481 
L 375.273 66.743526 
L 375.552 66.870098 
L 375.831 67.376124 
L 376.389 67.235744 
L 376.947 67.900321 
L 377.226 67.78528 
L 378.621 68.629785 
L 379.179 68.821703 
L 379.737 69.166753 
L 380.016 69.211965 
L 381.69 70.050684 
L 381.969 70.117682 
L 382.527 70.38065 
L 382.806 70.467204 
L 383.085 70.694299 
L 383.643 70.774644 
L 383.922 71.06994 
L 384.201 71.190896 
L 384.48 71.120801 
L 385.317 71.530907 
L 385.596 71.541596 
L 386.154 71.850386 
L 386.433 71.879501 
L 386.991 72.104103 
L 388.386 72.508037 
L 388.665 72.658203 
L 389.223 72.706421 
L 389.781 72.950067 
L 390.339 73.032809 
L 390.897 73.197168 
L 391.455 73.297614 
L 393.129 73.671266 
L 394.803 73.968536 
L 398.709 74.532946 
L 403.173 74.948731 
L 405.684 75.136793 
L 405.963 74.858895 
L 406.521 74.870874 
L 407.079 73.490726 
L 407.358 74.37812 
L 407.637 73.787329 
L 407.916 72.623422 
L 408.474 73.119279 
L 408.753 72.681799 
L 409.032 71.614126 
L 409.311 71.949587 
L 409.59 71.830755 
L 410.148 70.928026 
L 411.264 69.900729 
L 411.543 69.356821 
L 411.822 69.354419 
L 412.101 69.175198 
L 412.38 68.528964 
L 413.217 67.913742 
L 413.496 67.412392 
L 413.775 67.353991 
L 414.612 66.386889 
L 415.17 65.997754 
L 416.007 65.149036 
L 416.286 64.994985 
L 417.123 64.186699 
L 417.402 64.082377 
L 418.239 63.307336 
L 418.518 63.240317 
L 420.192 62.01067 
L 422.703 60.640067 
L 423.54 60.212841 
L 425.214 59.370418 
L 426.33 58.92553 
L 429.12 57.985823 
L 433.584 56.806933 
L 436.095 56.327398 
L 439.722 55.803958 
L 444.186 55.352978 
L 455.346 54.816126 
L 464.553 54.649504 
L 472.923 54.643627 
L 478.224 54.643412 
L 478.224 54.643412 
" style="fill:none;stroke:#ff0000;stroke-dasharray:6.000000,6.000000;stroke-dashoffset:0.0;"/>
   </g>
   <g id="line2d_2">
    <path clip-path="url(#pc04e2aa8a7)" d="M 72 228.222352 
L 85.95 228.222362 
L 86.229 224.345051 
L 86.508 223.845531 
L 86.787 223.983003 
L 87.345 223.799925 
L 87.903 223.90612 
L 88.182 223.824342 
L 88.74 223.9151 
L 89.298 223.905613 
L 91.53 223.885514 
L 99.342 223.892934 
L 99.621 223.816356 
L 99.9 224.675626 
L 100.179 224.376787 
L 100.458 225.109003 
L 100.737 226.456348 
L 101.016 227.232466 
L 101.295 227.313714 
L 101.574 228.504361 
L 101.853 229.041296 
L 102.132 229.106051 
L 102.411 229.566959 
L 102.69 229.727219 
L 102.969 230.097185 
L 104.085 230.810493 
L 104.364 231.457784 
L 104.643 231.294123 
L 105.201 232.040852 
L 106.038 232.563912 
L 106.317 232.835854 
L 106.596 232.939375 
L 106.875 233.216806 
L 107.154 233.247702 
L 107.991 233.765198 
L 108.549 233.956987 
L 108.828 234.172161 
L 109.386 234.334343 
L 110.223 234.654933 
L 111.339 235.04541 
L 113.571 235.58683 
L 114.408 235.717343 
L 115.245 235.841672 
L 116.361 236.016121 
L 119.43 236.31141 
L 120.825 236.418422 
L 131.427 236.744126 
L 144.819 236.817305 
L 151.236 236.830755 
L 159.048 236.837359 
L 159.327 236.98567 
L 159.606 236.910585 
L 159.885 234.220431 
L 160.443 236.860624 
L 160.722 235.489301 
L 161.001 235.501329 
L 161.28 236.485889 
L 161.559 236.382681 
L 161.838 237.162676 
L 162.117 237.091025 
L 162.396 235.987552 
L 162.675 236.674569 
L 162.954 237.699249 
L 163.512 235.820885 
L 164.07 237.000306 
L 164.628 235.858882 
L 165.186 236.337695 
L 165.465 236.164027 
L 166.023 236.0797 
L 166.302 235.9342 
L 166.86 236.353229 
L 167.139 235.93468 
L 167.418 235.911177 
L 167.697 236.166625 
L 168.255 235.759444 
L 169.092 235.76534 
L 169.929 235.583483 
L 170.766 235.506851 
L 171.045 235.355428 
L 171.603 235.507841 
L 171.882 235.313973 
L 172.44 235.322653 
L 172.719 235.334614 
L 173.277 235.146549 
L 174.393 235.144943 
L 174.672 234.924492 
L 174.951 235.031764 
L 176.067 234.869204 
L 176.904 234.789521 
L 177.183 234.698682 
L 177.741 234.729442 
L 178.578 234.580076 
L 179.136 234.566862 
L 187.506 233.961752 
L 189.18 233.903894 
L 190.017 233.865847 
L 200.898 233.654896 
L 201.735 233.777913 
L 203.13 233.603098 
L 205.083 233.622721 
L 206.199 233.607509 
L 207.036 233.606096 
L 209.268 233.569622 
L 210.105 233.628094 
L 211.5 233.649349 
L 213.174 233.634479 
L 213.732 233.548263 
L 214.848 233.526537 
L 216.243 233.509992 
L 220.707 233.542436 
L 221.823 233.623955 
L 222.102 233.5085 
L 223.497 233.581441 
L 224.055 233.574986 
L 226.845 233.481901 
L 227.961 233.552259 
L 229.077 233.553613 
L 230.751 233.553944 
L 233.541 233.493409 
L 234.099 233.619612 
L 234.657 233.51446 
L 235.215 233.563673 
L 235.773 233.509624 
L 236.331 233.50042 
L 237.726 233.544995 
L 240.795 233.516438 
L 241.353 233.506834 
L 241.632 233.608381 
L 242.469 233.516188 
L 243.027 233.575164 
L 245.817 233.543782 
L 246.375 233.520453 
L 250.839 233.530846 
L 251.676 233.518057 
L 252.513 233.538886 
L 253.071 233.556921 
L 253.629 233.529665 
L 254.745 233.592915 
L 256.977 233.601133 
L 257.535 233.548949 
L 257.814 233.604842 
L 258.372 233.521374 
L 262.278 233.479242 
L 263.394 233.488786 
L 267.021 233.588324 
L 268.695 233.487887 
L 271.764 233.523213 
L 272.601 233.554226 
L 273.717 233.564912 
L 274.275 233.562896 
L 275.112 233.503864 
L 275.949 233.492247 
L 276.507 233.576273 
L 280.134 233.522562 
L 281.808 233.505682 
L 282.366 233.542254 
L 286.272 233.516542 
L 286.83 233.584404 
L 288.504 233.511112 
L 363.555 233.497296 
L 363.834 232.401331 
L 364.113 235.841196 
L 364.392 236.677483 
L 364.671 233.798964 
L 364.95 233.4247 
L 365.229 233.301308 
L 365.508 232.905908 
L 365.787 233.646958 
L 366.345 230.035425 
L 366.903 232.978097 
L 367.461 230.323894 
L 367.74 231.495507 
L 368.019 232.108054 
L 368.298 231.570148 
L 368.856 231.554335 
L 369.135 231.301842 
L 369.414 231.891523 
L 369.693 231.783794 
L 369.972 230.867097 
L 370.53 231.767656 
L 370.809 231.131892 
L 371.088 230.905688 
L 371.367 231.28435 
L 372.762 231.08287 
L 373.041 231.325311 
L 373.32 231.257233 
L 373.599 231.04476 
L 374.157 231.449233 
L 374.436 231.184174 
L 374.715 231.107507 
L 374.994 231.400463 
L 375.552 231.210114 
L 376.11 231.353568 
L 376.668 231.339635 
L 376.947 231.421031 
L 377.226 231.333452 
L 377.784 231.516311 
L 378.063 231.402817 
L 378.342 231.426992 
L 378.621 231.57323 
L 379.458 231.573254 
L 380.016 231.579375 
L 382.527 231.866068 
L 383.085 231.793594 
L 383.364 231.923242 
L 383.643 231.843582 
L 385.038 231.98286 
L 387.549 232.132804 
L 388.107 232.151688 
L 390.06 232.275706 
L 405.684 232.694368 
L 405.963 233.118826 
L 406.242 232.15538 
L 406.521 232.44365 
L 406.8 233.287111 
L 407.358 231.910708 
L 407.637 232.569244 
L 407.916 232.046002 
L 408.195 232.092825 
L 408.753 231.621312 
L 409.032 231.884847 
L 409.311 231.569032 
L 409.59 231.462738 
L 409.869 231.161246 
L 410.148 231.30979 
L 410.427 231.153658 
L 410.706 230.830046 
L 411.543 230.59516 
L 411.822 230.367961 
L 412.38 230.210025 
L 414.333 229.253676 
L 414.612 229.219956 
L 415.449 228.793573 
L 416.007 228.603784 
L 418.518 227.710581 
L 419.076 227.565687 
L 420.75 227.084309 
L 426.33 225.858541 
L 427.446 225.695542 
L 428.283 225.542771 
L 428.841 225.503278 
L 431.073 225.193667 
L 431.631 225.167157 
L 432.468 225.072087 
L 440.838 224.458381 
L 444.186 224.330035 
L 456.183 224.091616 
L 463.995 224.03042 
L 478.224 224.024963 
L 478.224 224.024963 
" style="fill:none;stroke:#008000;stroke-linecap:square;"/>
   </g>
   <g id="line2d_3">
    <path clip-path="url(#pc04e2aa8a7)" d="M 72 268.122132 
L 99.342 268.035006 
L 99.621 267.368499 
L 100.179 269.414869 
L 100.458 269.645659 
L 100.737 269.407999 
L 101.574 270.601795 
L 101.853 270.360409 
L 102.132 270.51283 
L 102.411 270.879447 
L 102.69 271.015755 
L 102.969 270.825886 
L 103.248 270.863889 
L 103.806 271.186995 
L 104.085 270.979013 
L 104.643 270.944692 
L 104.922 271.057081 
L 105.48 270.744321 
L 105.759 270.817849 
L 109.665 269.461773 
L 111.339 268.707237 
L 111.618 268.665629 
L 111.897 268.479608 
L 112.176 268.441261 
L 112.734 268.187849 
L 113.85 267.732189 
L 120.546 265.611499 
L 126.405 264.451039 
L 136.449 263.356247 
L 144.819 262.984229 
L 159.048 262.749121 
L 159.327 263.867513 
L 159.885 272.26156 
L 160.722 278.888419 
L 161.559 285.777553 
L 161.838 287.595649 
L 162.396 292.919747 
L 162.954 295.372076 
L 163.791 301.676695 
L 164.07 302.784841 
L 166.302 315.950617 
L 167.139 319.901767 
L 167.697 322.65437 
L 167.976 323.698151 
L 168.534 326.624566 
L 169.371 329.800452 
L 170.208 332.760301 
L 171.045 335.639486 
L 171.324 336.273225 
L 172.161 338.944251 
L 173.277 341.88008 
L 173.835 343.420637 
L 175.788 347.696657 
L 178.299 352.29448 
L 181.647 356.741189 
L 183.879 359.035556 
L 185.553 360.56205 
L 188.064 362.337084 
L 188.901 362.858867 
L 190.854 363.806986 
L 191.97 364.016712 
L 195.876 364.604082 
L 196.713 364.775901 
L 197.829 365.249831 
L 199.224 365.24819 
L 211.779 365.274745 
L 219.033 365.278506 
L 227.124 365.277786 
L 230.193 365.279189 
L 233.82 365.277868 
L 238.005 365.280999 
L 243.027 365.279858 
L 248.886 365.290601 
L 251.676 365.280297 
L 255.861 365.284826 
L 259.209 365.289759 
L 303.012 365.283261 
L 308.592 365.279875 
L 316.404 365.290036 
L 326.727 365.277291 
L 340.398 365.288201 
L 343.188 365.277895 
L 346.257 365.289857 
L 363.276 365.29019 
L 363.555 364.443286 
L 363.834 361.731462 
L 364.392 352.351115 
L 364.671 350.383503 
L 364.95 349.561767 
L 365.229 347.1096 
L 365.787 340.227617 
L 366.066 339.486456 
L 366.345 338.087127 
L 366.903 332.098169 
L 367.461 330.052472 
L 368.577 322.05352 
L 368.856 320.900165 
L 369.414 316.678147 
L 369.972 314.116244 
L 370.53 310.75746 
L 373.32 298.573803 
L 373.878 296.608163 
L 375.273 291.939746 
L 375.831 290.270048 
L 376.947 287.075895 
L 379.179 281.863917 
L 380.574 279.186711 
L 381.411 277.691022 
L 383.643 274.30977 
L 384.201 273.50685 
L 386.991 270.362513 
L 387.549 269.837603 
L 390.618 267.426512 
L 392.292 266.425836 
L 393.687 265.65005 
L 397.872 263.949155 
L 400.662 263.165099 
L 404.847 262.297048 
L 405.684 262.168802 
L 406.242 264.028734 
L 406.521 264.187311 
L 406.8 264.152783 
L 407.358 265.460366 
L 408.195 266.129879 
L 408.474 266.668583 
L 409.311 267.022782 
L 409.59 267.529761 
L 409.869 267.700761 
L 410.148 267.650819 
L 410.427 267.826548 
L 410.706 268.173924 
L 410.985 268.294562 
L 411.264 268.232562 
L 411.822 268.539291 
L 413.217 269.001548 
L 413.775 268.971923 
L 414.054 269.136662 
L 416.286 269.277299 
L 417.123 269.282455 
L 420.75 269.098029 
L 423.54 268.871738 
L 425.772 268.644927 
L 428.283 268.440665 
L 429.957 268.307123 
L 434.7 267.983495 
L 439.443 267.762935 
L 445.86 267.56569 
L 471.249 267.366184 
L 478.224 267.36629 
L 478.224 267.36629 
" style="fill:none;stroke:#0000ff;stroke-dasharray:6.000000,6.000000;stroke-dashoffset:0.0;"/>
   </g>
   <g id="line2d_4">
    <path clip-path="url(#pc04e2aa8a7)" d="M 427.167 388.8 
L 427.167 43.2 
" style="fill:none;stroke:#bf00bf;stroke-linecap:square;"/>
   </g>
   <g id="line2d_5">
    <path clip-path="url(#pc04e2aa8a7)" d="M 364.392 388.8 
L 364.392 43.2 
" style="fill:none;stroke:#bf00bf;stroke-linecap:square;"/>
   </g>
   <g id="line2d_6">
    <path clip-path="url(#pc04e2aa8a7)" d="M 363.555 388.8 
L 363.555 43.2 
" style="fill:none;stroke:#bf00bf;stroke-linecap:square;"/>
   </g>
   <g id="line2d_7">
    <path clip-path="url(#pc04e2aa8a7)" d="M 416.007 388.8 
L 416.007 43.2 
" style="fill:none;stroke:#bf00bf;stroke-linecap:square;"/>
   </g>
   <g id="line2d_8">
    <path clip-path="url(#pc04e2aa8a7)" d="M 380.574 388.8 
L 380.574 43.2 
" style="fill:none;stroke:#bf00bf;stroke-linecap:square;"/>
   </g>
   <g id="line2d_9">
    <path clip-path="url(#pc04e2aa8a7)" d="M 464.832 388.8 
L 464.832 43.2 
" style="fill:none;stroke:#bf00bf;stroke-linecap:square;"/>
   </g>
   <g id="line2d_10">
    <path clip-path="url(#pc04e2aa8a7)" d="M 445.581 388.8 
L 445.581 43.2 
" style="fill:none;stroke:#bf00bf;stroke-linecap:square;"/>
   </g>
   <g id="line2d_11">
    <path clip-path="url(#pc04e2aa8a7)" d="M 436.095 388.8 
L 436.095 43.2 
" style="fill:none;stroke:#bf00bf;stroke-linecap:square;"/>
   </g>
   <g id="line2d_12">
    <path clip-path="url(#pc04e2aa8a7)" d="M 427.446 388.8 
L 427.446 43.2 
" style="fill:none;stroke:#bf00bf;stroke-linecap:square;"/>
   </g>
   <g id="line2d_13">
    <path clip-path="url(#pc04e2aa8a7)" d="M 366.066 388.8 
L 366.066 43.2 
" style="fill:none;stroke:#bf00bf;stroke-linecap:square;"/>
   </g>
   <g id="line2d_14">
    <path clip-path="url(#pc04e2aa8a7)" d="M 363.834 388.8 
L 363.834 43.2 
" style="fill:none;stroke:#bf00bf;stroke-linecap:square;"/>
   </g>
   <g id="line2d_15">
    <path clip-path="url(#pc04e2aa8a7)" d="M 411.822 388.8 
L 411.822 43.2 
" style="fill:none;stroke:#bf00bf;stroke-linecap:square;"/>
   </g>
   <g id="line2d_16">
    <path clip-path="url(#pc04e2aa8a7)" d="M 419.355 388.8 
L 419.355 43.2 
" style="fill:none;stroke:#bf00bf;stroke-linecap:square;"/>
   </g>
   <g id="line2d_17">
    <path clip-path="url(#pc04e2aa8a7)" d="M 464.274 388.8 
L 464.274 43.2 
" style="fill:none;stroke:#bf00bf;stroke-linecap:square;"/>
   </g>
   <g id="line2d_18">
    <path clip-path="url(#pc04e2aa8a7)" d="M 445.302 388.8 
L 445.302 43.2 
" style="fill:none;stroke:#bf00bf;stroke-linecap:square;"/>
   </g>
   <g id="line2d_19">
    <path clip-path="url(#pc04e2aa8a7)" d="M 385.317 388.8 
L 385.317 43.2 
" style="fill:none;stroke:#bf00bf;stroke-linecap:square;"/>
   </g>
   <g id="line2d_20">
    <path clip-path="url(#pc04e2aa8a7)" d="M 367.461 388.8 
L 367.461 43.2 
" style="fill:none;stroke:#bf00bf;stroke-linecap:square;"/>
   </g>
   <g id="line2d_21">
    <path clip-path="url(#pc04e2aa8a7)" d="M 363.834 388.8 
L 363.834 43.2 
" style="fill:none;stroke:#bf00bf;stroke-linecap:square;"/>
   </g>
   <g id="line2d_22">
    <path clip-path="url(#pc04e2aa8a7)" d="M 362.997 388.8 
L 362.997 43.2 
" style="fill:none;stroke:#bf00bf;stroke-linecap:square;"/>
   </g>
   <g id="line2d_23">
    <path clip-path="url(#pc04e2aa8a7)" d="M 378.621 388.8 
L 378.621 43.2 
" style="fill:none;stroke:#bf00bf;stroke-linecap:square;"/>
   </g>
   <g id="line2d_24">
    <path clip-path="url(#pc04e2aa8a7)" d="M 372.762 388.8 
L 372.762 43.2 
" style="fill:none;stroke:#bf00bf;stroke-linecap:square;"/>
   </g>
   <g id="line2d_25">
    <path clip-path="url(#pc04e2aa8a7)" d="M 464.832 388.8 
L 464.832 43.2 
" style="fill:none;stroke:#bf00bf;stroke-linecap:square;"/>
   </g>
   <g id="line2d_26">
    <path clip-path="url(#pc04e2aa8a7)" d="M 438.606 388.8 
L 438.606 43.2 
" style="fill:none;stroke:#bf00bf;stroke-linecap:square;"/>
   </g>
   <g id="line2d_27">
    <path clip-path="url(#pc04e2aa8a7)" d="M 409.869 388.8 
L 409.869 43.2 
" style="fill:none;stroke:#bf00bf;stroke-linecap:square;"/>
   </g>
   <g id="line2d_28">
    <path clip-path="url(#pc04e2aa8a7)" d="M 392.013 388.8 
L 392.013 43.2 
" style="fill:none;stroke:#bf00bf;stroke-linecap:square;"/>
   </g>
   <g id="line2d_29">
    <path clip-path="url(#pc04e2aa8a7)" d="M 190.575 388.8 
L 190.575 43.2 
" style="fill:none;stroke:#00bfbf;stroke-linecap:square;"/>
   </g>
   <g id="line2d_30">
    <path clip-path="url(#pc04e2aa8a7)" d="M 159.606 388.8 
L 159.606 43.2 
" style="fill:none;stroke:#00bfbf;stroke-linecap:square;"/>
   </g>
   <g id="line2d_31">
    <path clip-path="url(#pc04e2aa8a7)" d="M 179.415 388.8 
L 179.415 43.2 
" style="fill:none;stroke:#00bfbf;stroke-linecap:square;"/>
   </g>
   <g id="line2d_32">
    <path clip-path="url(#pc04e2aa8a7)" d="M 218.754 388.8 
L 218.754 43.2 
" style="fill:none;stroke:#00bfbf;stroke-linecap:square;"/>
   </g>
   <g id="line2d_33">
    <path clip-path="url(#pc04e2aa8a7)" d="M 205.083 388.8 
L 205.083 43.2 
" style="fill:none;stroke:#00bfbf;stroke-linecap:square;"/>
   </g>
   <g id="line2d_34">
    <path clip-path="url(#pc04e2aa8a7)" d="M 187.227 388.8 
L 187.227 43.2 
" style="fill:none;stroke:#00bfbf;stroke-linecap:square;"/>
   </g>
   <g id="line2d_35">
    <path clip-path="url(#pc04e2aa8a7)" d="M 171.882 388.8 
L 171.882 43.2 
" style="fill:none;stroke:#00bfbf;stroke-linecap:square;"/>
   </g>
   <g id="line2d_36">
    <path clip-path="url(#pc04e2aa8a7)" d="M 213.453 388.8 
L 213.453 43.2 
" style="fill:none;stroke:#00bfbf;stroke-linecap:square;"/>
   </g>
   <g id="line2d_37">
    <path clip-path="url(#pc04e2aa8a7)" d="M 160.722 388.8 
L 160.722 43.2 
" style="fill:none;stroke:#00bfbf;stroke-linecap:square;"/>
   </g>
   <g id="line2d_38">
    <path clip-path="url(#pc04e2aa8a7)" d="M 159.606 388.8 
L 159.606 43.2 
" style="fill:none;stroke:#00bfbf;stroke-linecap:square;"/>
   </g>
   <g id="line2d_39">
    <path clip-path="url(#pc04e2aa8a7)" d="M 181.926 388.8 
L 181.926 43.2 
" style="fill:none;stroke:#00bfbf;stroke-linecap:square;"/>
   </g>
   <g id="line2d_40">
    <path clip-path="url(#pc04e2aa8a7)" d="M 167.697 388.8 
L 167.697 43.2 
" style="fill:none;stroke:#00bfbf;stroke-linecap:square;"/>
   </g>
   <g id="line2d_41">
    <path clip-path="url(#pc04e2aa8a7)" d="M 174.672 388.8 
L 174.672 43.2 
" style="fill:none;stroke:#00bfbf;stroke-linecap:square;"/>
   </g>
   <g id="line2d_42">
    <path clip-path="url(#pc04e2aa8a7)" d="M 197.55 388.8 
L 197.55 43.2 
" style="fill:none;stroke:#00bfbf;stroke-linecap:square;"/>
   </g>
   <g id="line2d_43">
    <path clip-path="url(#pc04e2aa8a7)" d="M 189.738 388.8 
L 189.738 43.2 
" style="fill:none;stroke:#00bfbf;stroke-linecap:square;"/>
   </g>
   <g id="line2d_44">
    <path clip-path="url(#pc04e2aa8a7)" d="M 211.779 388.8 
L 211.779 43.2 
" style="fill:none;stroke:#00bfbf;stroke-linecap:square;"/>
   </g>
   <g id="line2d_45">
    <path clip-path="url(#pc04e2aa8a7)" d="M 86.229 388.8 
L 86.229 43.2 
" style="fill:none;stroke:#bfbf00;stroke-linecap:square;"/>
   </g>
   <g id="line2d_46">
    <path clip-path="url(#pc04e2aa8a7)" d="M 99.621 388.8 
L 99.621 43.2 
" style="fill:none;stroke:#bfbf00;stroke-linecap:square;"/>
   </g>
   <g id="line2d_47">
    <path clip-path="url(#pc04e2aa8a7)" d="M 105.48 388.8 
L 105.48 43.2 
" style="fill:none;stroke:#bfbf00;stroke-linecap:square;"/>
   </g>
   <g id="line2d_48">
    <path clip-path="url(#pc04e2aa8a7)" d="M 121.383 388.8 
L 121.383 43.2 
" style="fill:none;stroke:#bfbf00;stroke-linecap:square;"/>
   </g>
   <g id="line2d_49">
    <path clip-path="url(#pc04e2aa8a7)" d="M 113.013 388.8 
L 113.013 43.2 
" style="fill:none;stroke:#bfbf00;stroke-linecap:square;"/>
   </g>
   <g id="line2d_50">
    <path clip-path="url(#pc04e2aa8a7)" d="M 86.229 388.8 
L 86.229 43.2 
" style="fill:none;stroke:#bfbf00;stroke-linecap:square;"/>
   </g>
   <g id="line2d_51">
    <path clip-path="url(#pc04e2aa8a7)" d="M 99.9 388.8 
L 99.9 43.2 
" style="fill:none;stroke:#bfbf00;stroke-linecap:square;"/>
   </g>
   <g id="line2d_52">
    <path clip-path="url(#pc04e2aa8a7)" d="M 109.386 388.8 
L 109.386 43.2 
" style="fill:none;stroke:#bfbf00;stroke-linecap:square;"/>
   </g>
   <g id="line2d_53">
    <path clip-path="url(#pc04e2aa8a7)" d="M 86.229 388.8 
L 86.229 43.2 
" style="fill:none;stroke:#bfbf00;stroke-linecap:square;"/>
   </g>
   <g id="line2d_54">
    <path clip-path="url(#pc04e2aa8a7)" d="M 99.621 388.8 
L 99.621 43.2 
" style="fill:none;stroke:#bfbf00;stroke-linecap:square;"/>
   </g>
   <g id="line2d_55">
    <path clip-path="url(#pc04e2aa8a7)" d="M 115.245 388.8 
L 115.245 43.2 
" style="fill:none;stroke:#bfbf00;stroke-linecap:square;"/>
   </g>
   <g id="line2d_56">
    <path clip-path="url(#pc04e2aa8a7)" d="M 134.217 388.8 
L 134.217 43.2 
" style="fill:none;stroke:#bfbf00;stroke-linecap:square;"/>
   </g>
   <g id="line2d_57">
    <path clip-path="url(#pc04e2aa8a7)" d="M 125.289 388.8 
L 125.289 43.2 
" style="fill:none;stroke:#bfbf00;stroke-linecap:square;"/>
   </g>
   <g id="line2d_58">
    <path clip-path="url(#pc04e2aa8a7)" d="M 362.997 388.8 
L 362.997 43.2 
" style="fill:none;stroke:#000000;stroke-linecap:square;"/>
   </g>
   <g id="line2d_59">
    <path clip-path="url(#pc04e2aa8a7)" d="M 464.832 388.8 
L 464.832 43.2 
" style="fill:none;stroke:#000000;stroke-linecap:square;"/>
   </g>
   <g id="line2d_60">
    <path clip-path="url(#pc04e2aa8a7)" d="M 405.30456 388.8 
L 405.30456 43.2 
" style="fill:none;stroke:#000000;stroke-linecap:square;"/>
   </g>
   <g id="line2d_61">
    <path clip-path="url(#pc04e2aa8a7)" d="M 159.606 388.8 
L 159.606 43.2 
" style="fill:none;stroke:#000000;stroke-linecap:square;"/>
   </g>
   <g id="line2d_62">
    <path clip-path="url(#pc04e2aa8a7)" d="M 218.754 388.8 
L 218.754 43.2 
" style="fill:none;stroke:#000000;stroke-linecap:square;"/>
   </g>
   <g id="line2d_63">
    <path clip-path="url(#pc04e2aa8a7)" d="M 185.605312 388.8 
L 185.605312 43.2 
" style="fill:none;stroke:#000000;stroke-linecap:square;"/>
   </g>
   <g id="line2d_64">
    <path clip-path="url(#pc04e2aa8a7)" d="M 86.229 388.8 
L 86.229 43.2 
" style="fill:none;stroke:#000000;stroke-linecap:square;"/>
   </g>
   <g id="line2d_65">
    <path clip-path="url(#pc04e2aa8a7)" d="M 134.217 388.8 
L 134.217 43.2 
" style="fill:none;stroke:#000000;stroke-linecap:square;"/>
   </g>
   <g id="line2d_66">
    <path clip-path="url(#pc04e2aa8a7)" d="M 106.295538 388.8 
L 106.295538 43.2 
" style="fill:none;stroke:#000000;stroke-linecap:square;"/>
   </g>
   <g id="patch_3">
    <path d="M 72 43.2 
L 518.4 43.2 
" style="fill:none;stroke:#000000;stroke-linecap:square;stroke-linejoin:miter;"/>
   </g>
   <g id="patch_4">
    <path d="M 518.4 388.8 
L 518.4 43.2 
" style="fill:none;stroke:#000000;stroke-linecap:square;stroke-linejoin:miter;"/>
   </g>
   <g id="patch_5">
    <path d="M 72 388.8 
L 518.4 388.8 
" style="fill:none;stroke:#000000;stroke-linecap:square;stroke-linejoin:miter;"/>
   </g>
   <g id="patch_6">
    <path d="M 72 388.8 
L 72 43.2 
" style="fill:none;stroke:#000000;stroke-linecap:square;stroke-linejoin:miter;"/>
   </g>
   <g id="matplotlib.axis_1">
    <g id="xtick_1">
     <g id="line2d_67">
      <defs>
       <path d="M 0 0 
L 0 -4 
" id="m81ee772fc4" style="stroke:#000000;stroke-width:0.5;"/>
      </defs>
      <g>
       <use style="stroke:#000000;stroke-width:0.5;" x="72.0" xlink:href="#m81ee772fc4" y="388.8"/>
      </g>
     </g>
     <g id="line2d_68">
      <defs>
       <path d="M 0 0 
L 0 4 
" id="m860ae9f655" style="stroke:#000000;stroke-width:0.5;"/>
      </defs>
      <g>
       <use style="stroke:#000000;stroke-width:0.5;" x="72.0" xlink:href="#m860ae9f655" y="43.19999999999999"/>
      </g>
     </g>
     <g id="text_1">
      <!-- 0 -->
      <defs>
       <path d="M 31.78125 66.40625 
Q 24.171875 66.40625 20.328125 58.90625 
Q 16.5 51.421875 16.5 36.375 
Q 16.5 21.390625 20.328125 13.890625 
Q 24.171875 6.390625 31.78125 6.390625 
Q 39.453125 6.390625 43.28125 13.890625 
Q 47.125 21.390625 47.125 36.375 
Q 47.125 51.421875 43.28125 58.90625 
Q 39.453125 66.40625 31.78125 66.40625 
M 31.78125 74.21875 
Q 44.046875 74.21875 50.515625 64.515625 
Q 56.984375 54.828125 56.984375 36.375 
Q 56.984375 17.96875 50.515625 8.265625 
Q 44.046875 -1.421875 31.78125 -1.421875 
Q 19.53125 -1.421875 13.0625 8.265625 
Q 6.59375 17.96875 6.59375 36.375 
Q 6.59375 54.828125 13.0625 64.515625 
Q 19.53125 74.21875 31.78125 74.21875 
" id="BitstreamVeraSans-Roman-30"/>
      </defs>
      <g transform="translate(68.1825 401.91812500000003)scale(0.12 -0.12)">
       <use xlink:href="#BitstreamVeraSans-Roman-30"/>
      </g>
     </g>
    </g>
    <g id="xtick_2">
     <g id="line2d_69">
      <g>
       <use style="stroke:#000000;stroke-width:0.5;" x="127.8" xlink:href="#m81ee772fc4" y="388.8"/>
      </g>
     </g>
     <g id="line2d_70">
      <g>
       <use style="stroke:#000000;stroke-width:0.5;" x="127.8" xlink:href="#m860ae9f655" y="43.19999999999999"/>
      </g>
     </g>
     <g id="text_2">
      <!-- 200 -->
      <defs>
       <path d="M 19.1875 8.296875 
L 53.609375 8.296875 
L 53.609375 0 
L 7.328125 0 
L 7.328125 8.296875 
Q 12.9375 14.109375 22.625 23.890625 
Q 32.328125 33.6875 34.8125 36.53125 
Q 39.546875 41.84375 41.421875 45.53125 
Q 43.3125 49.21875 43.3125 52.78125 
Q 43.3125 58.59375 39.234375 62.25 
Q 35.15625 65.921875 28.609375 65.921875 
Q 23.96875 65.921875 18.8125 64.3125 
Q 13.671875 62.703125 7.8125 59.421875 
L 7.8125 69.390625 
Q 13.765625 71.78125 18.9375 73 
Q 24.125 74.21875 28.421875 74.21875 
Q 39.75 74.21875 46.484375 68.546875 
Q 53.21875 62.890625 53.21875 53.421875 
Q 53.21875 48.921875 51.53125 44.890625 
Q 49.859375 40.875 45.40625 35.40625 
Q 44.1875 33.984375 37.640625 27.21875 
Q 31.109375 20.453125 19.1875 8.296875 
" id="BitstreamVeraSans-Roman-32"/>
      </defs>
      <g transform="translate(116.3475 401.91812500000003)scale(0.12 -0.12)">
       <use xlink:href="#BitstreamVeraSans-Roman-32"/>
       <use x="63.623046875" xlink:href="#BitstreamVeraSans-Roman-30"/>
       <use x="127.24609375" xlink:href="#BitstreamVeraSans-Roman-30"/>
      </g>
     </g>
    </g>
    <g id="xtick_3">
     <g id="line2d_71">
      <g>
       <use style="stroke:#000000;stroke-width:0.5;" x="183.6" xlink:href="#m81ee772fc4" y="388.8"/>
      </g>
     </g>
     <g id="line2d_72">
      <g>
       <use style="stroke:#000000;stroke-width:0.5;" x="183.6" xlink:href="#m860ae9f655" y="43.19999999999999"/>
      </g>
     </g>
     <g id="text_3">
      <!-- 400 -->
      <defs>
       <path d="M 37.796875 64.3125 
L 12.890625 25.390625 
L 37.796875 25.390625 
z
M 35.203125 72.90625 
L 47.609375 72.90625 
L 47.609375 25.390625 
L 58.015625 25.390625 
L 58.015625 17.1875 
L 47.609375 17.1875 
L 47.609375 0 
L 37.796875 0 
L 37.796875 17.1875 
L 4.890625 17.1875 
L 4.890625 26.703125 
z
" id="BitstreamVeraSans-Roman-34"/>
      </defs>
      <g transform="translate(172.1475 401.91812500000003)scale(0.12 -0.12)">
       <use xlink:href="#BitstreamVeraSans-Roman-34"/>
       <use x="63.623046875" xlink:href="#BitstreamVeraSans-Roman-30"/>
       <use x="127.24609375" xlink:href="#BitstreamVeraSans-Roman-30"/>
      </g>
     </g>
    </g>
    <g id="xtick_4">
     <g id="line2d_73">
      <g>
       <use style="stroke:#000000;stroke-width:0.5;" x="239.39999999999998" xlink:href="#m81ee772fc4" y="388.8"/>
      </g>
     </g>
     <g id="line2d_74">
      <g>
       <use style="stroke:#000000;stroke-width:0.5;" x="239.39999999999998" xlink:href="#m860ae9f655" y="43.19999999999999"/>
      </g>
     </g>
     <g id="text_4">
      <!-- 600 -->
      <defs>
       <path d="M 33.015625 40.375 
Q 26.375 40.375 22.484375 35.828125 
Q 18.609375 31.296875 18.609375 23.390625 
Q 18.609375 15.53125 22.484375 10.953125 
Q 26.375 6.390625 33.015625 6.390625 
Q 39.65625 6.390625 43.53125 10.953125 
Q 47.40625 15.53125 47.40625 23.390625 
Q 47.40625 31.296875 43.53125 35.828125 
Q 39.65625 40.375 33.015625 40.375 
M 52.59375 71.296875 
L 52.59375 62.3125 
Q 48.875 64.0625 45.09375 64.984375 
Q 41.3125 65.921875 37.59375 65.921875 
Q 27.828125 65.921875 22.671875 59.328125 
Q 17.53125 52.734375 16.796875 39.40625 
Q 19.671875 43.65625 24.015625 45.921875 
Q 28.375 48.1875 33.59375 48.1875 
Q 44.578125 48.1875 50.953125 41.515625 
Q 57.328125 34.859375 57.328125 23.390625 
Q 57.328125 12.15625 50.6875 5.359375 
Q 44.046875 -1.421875 33.015625 -1.421875 
Q 20.359375 -1.421875 13.671875 8.265625 
Q 6.984375 17.96875 6.984375 36.375 
Q 6.984375 53.65625 15.1875 63.9375 
Q 23.390625 74.21875 37.203125 74.21875 
Q 40.921875 74.21875 44.703125 73.484375 
Q 48.484375 72.75 52.59375 71.296875 
" id="BitstreamVeraSans-Roman-36"/>
      </defs>
      <g transform="translate(227.9475 401.91812500000003)scale(0.12 -0.12)">
       <use xlink:href="#BitstreamVeraSans-Roman-36"/>
       <use x="63.623046875" xlink:href="#BitstreamVeraSans-Roman-30"/>
       <use x="127.24609375" xlink:href="#BitstreamVeraSans-Roman-30"/>
      </g>
     </g>
    </g>
    <g id="xtick_5">
     <g id="line2d_75">
      <g>
       <use style="stroke:#000000;stroke-width:0.5;" x="295.2" xlink:href="#m81ee772fc4" y="388.8"/>
      </g>
     </g>
     <g id="line2d_76">
      <g>
       <use style="stroke:#000000;stroke-width:0.5;" x="295.2" xlink:href="#m860ae9f655" y="43.19999999999999"/>
      </g>
     </g>
     <g id="text_5">
      <!-- 800 -->
      <defs>
       <path d="M 31.78125 34.625 
Q 24.75 34.625 20.71875 30.859375 
Q 16.703125 27.09375 16.703125 20.515625 
Q 16.703125 13.921875 20.71875 10.15625 
Q 24.75 6.390625 31.78125 6.390625 
Q 38.8125 6.390625 42.859375 10.171875 
Q 46.921875 13.96875 46.921875 20.515625 
Q 46.921875 27.09375 42.890625 30.859375 
Q 38.875 34.625 31.78125 34.625 
M 21.921875 38.8125 
Q 15.578125 40.375 12.03125 44.71875 
Q 8.5 49.078125 8.5 55.328125 
Q 8.5 64.0625 14.71875 69.140625 
Q 20.953125 74.21875 31.78125 74.21875 
Q 42.671875 74.21875 48.875 69.140625 
Q 55.078125 64.0625 55.078125 55.328125 
Q 55.078125 49.078125 51.53125 44.71875 
Q 48 40.375 41.703125 38.8125 
Q 48.828125 37.15625 52.796875 32.3125 
Q 56.78125 27.484375 56.78125 20.515625 
Q 56.78125 9.90625 50.3125 4.234375 
Q 43.84375 -1.421875 31.78125 -1.421875 
Q 19.734375 -1.421875 13.25 4.234375 
Q 6.78125 9.90625 6.78125 20.515625 
Q 6.78125 27.484375 10.78125 32.3125 
Q 14.796875 37.15625 21.921875 38.8125 
M 18.3125 54.390625 
Q 18.3125 48.734375 21.84375 45.5625 
Q 25.390625 42.390625 31.78125 42.390625 
Q 38.140625 42.390625 41.71875 45.5625 
Q 45.3125 48.734375 45.3125 54.390625 
Q 45.3125 60.0625 41.71875 63.234375 
Q 38.140625 66.40625 31.78125 66.40625 
Q 25.390625 66.40625 21.84375 63.234375 
Q 18.3125 60.0625 18.3125 54.390625 
" id="BitstreamVeraSans-Roman-38"/>
      </defs>
      <g transform="translate(283.7475 401.91812500000003)scale(0.12 -0.12)">
       <use xlink:href="#BitstreamVeraSans-Roman-38"/>
       <use x="63.623046875" xlink:href="#BitstreamVeraSans-Roman-30"/>
       <use x="127.24609375" xlink:href="#BitstreamVeraSans-Roman-30"/>
      </g>
     </g>
    </g>
    <g id="xtick_6">
     <g id="line2d_77">
      <g>
       <use style="stroke:#000000;stroke-width:0.5;" x="350.99999999999994" xlink:href="#m81ee772fc4" y="388.8"/>
      </g>
     </g>
     <g id="line2d_78">
      <g>
       <use style="stroke:#000000;stroke-width:0.5;" x="350.99999999999994" xlink:href="#m860ae9f655" y="43.19999999999999"/>
      </g>
     </g>
     <g id="text_6">
      <!-- 1000 -->
      <defs>
       <path d="M 12.40625 8.296875 
L 28.515625 8.296875 
L 28.515625 63.921875 
L 10.984375 60.40625 
L 10.984375 69.390625 
L 28.421875 72.90625 
L 38.28125 72.90625 
L 38.28125 8.296875 
L 54.390625 8.296875 
L 54.390625 0 
L 12.40625 0 
z
" id="BitstreamVeraSans-Roman-31"/>
      </defs>
      <g transform="translate(335.72999999999996 401.91812500000003)scale(0.12 -0.12)">
       <use xlink:href="#BitstreamVeraSans-Roman-31"/>
       <use x="63.623046875" xlink:href="#BitstreamVeraSans-Roman-30"/>
       <use x="127.24609375" xlink:href="#BitstreamVeraSans-Roman-30"/>
       <use x="190.869140625" xlink:href="#BitstreamVeraSans-Roman-30"/>
      </g>
     </g>
    </g>
    <g id="xtick_7">
     <g id="line2d_79">
      <g>
       <use style="stroke:#000000;stroke-width:0.5;" x="406.79999999999995" xlink:href="#m81ee772fc4" y="388.8"/>
      </g>
     </g>
     <g id="line2d_80">
      <g>
       <use style="stroke:#000000;stroke-width:0.5;" x="406.79999999999995" xlink:href="#m860ae9f655" y="43.19999999999999"/>
      </g>
     </g>
     <g id="text_7">
      <!-- 1200 -->
      <g transform="translate(391.53 401.91812500000003)scale(0.12 -0.12)">
       <use xlink:href="#BitstreamVeraSans-Roman-31"/>
       <use x="63.623046875" xlink:href="#BitstreamVeraSans-Roman-32"/>
       <use x="127.24609375" xlink:href="#BitstreamVeraSans-Roman-30"/>
       <use x="190.869140625" xlink:href="#BitstreamVeraSans-Roman-30"/>
      </g>
     </g>
    </g>
    <g id="xtick_8">
     <g id="line2d_81">
      <g>
       <use style="stroke:#000000;stroke-width:0.5;" x="462.59999999999997" xlink:href="#m81ee772fc4" y="388.8"/>
      </g>
     </g>
     <g id="line2d_82">
      <g>
       <use style="stroke:#000000;stroke-width:0.5;" x="462.59999999999997" xlink:href="#m860ae9f655" y="43.19999999999999"/>
      </g>
     </g>
     <g id="text_8">
      <!-- 1400 -->
      <g transform="translate(447.33 401.91812500000003)scale(0.12 -0.12)">
       <use xlink:href="#BitstreamVeraSans-Roman-31"/>
       <use x="63.623046875" xlink:href="#BitstreamVeraSans-Roman-34"/>
       <use x="127.24609375" xlink:href="#BitstreamVeraSans-Roman-30"/>
       <use x="190.869140625" xlink:href="#BitstreamVeraSans-Roman-30"/>
      </g>
     </g>
    </g>
    <g id="xtick_9">
     <g id="line2d_83">
      <g>
       <use style="stroke:#000000;stroke-width:0.5;" x="518.4" xlink:href="#m81ee772fc4" y="388.8"/>
      </g>
     </g>
     <g id="line2d_84">
      <g>
       <use style="stroke:#000000;stroke-width:0.5;" x="518.4" xlink:href="#m860ae9f655" y="43.19999999999999"/>
      </g>
     </g>
     <g id="text_9">
      <!-- 1600 -->
      <g transform="translate(503.13 401.91812500000003)scale(0.12 -0.12)">
       <use xlink:href="#BitstreamVeraSans-Roman-31"/>
       <use x="63.623046875" xlink:href="#BitstreamVeraSans-Roman-36"/>
       <use x="127.24609375" xlink:href="#BitstreamVeraSans-Roman-30"/>
       <use x="190.869140625" xlink:href="#BitstreamVeraSans-Roman-30"/>
      </g>
     </g>
    </g>
   </g>
   <g id="matplotlib.axis_2">
    <g id="ytick_1">
     <g id="line2d_85">
      <defs>
       <path d="M 0 0 
L 4 0 
" id="m7ee94f85d3" style="stroke:#000000;stroke-width:0.5;"/>
      </defs>
      <g>
       <use style="stroke:#000000;stroke-width:0.5;" x="72.0" xlink:href="#m7ee94f85d3" y="388.79999999999995"/>
      </g>
     </g>
     <g id="line2d_86">
      <defs>
       <path d="M 0 0 
L -4 0 
" id="m8e36296d74" style="stroke:#000000;stroke-width:0.5;"/>
      </defs>
      <g>
       <use style="stroke:#000000;stroke-width:0.5;" x="518.4" xlink:href="#m8e36296d74" y="388.79999999999995"/>
      </g>
     </g>
     <g id="text_10">
      <!-- −0.2 -->
      <defs>
       <path d="M 10.59375 35.5 
L 73.1875 35.5 
L 73.1875 27.203125 
L 10.59375 27.203125 
z
" id="BitstreamVeraSans-Roman-2212"/>
       <path d="M 10.6875 12.40625 
L 21 12.40625 
L 21 0 
L 10.6875 0 
z
" id="BitstreamVeraSans-Roman-2e"/>
      </defs>
      <g transform="translate(38.860625 392.11125000000004)scale(0.12 -0.12)">
       <use xlink:href="#BitstreamVeraSans-Roman-2212"/>
       <use x="83.7890625" xlink:href="#BitstreamVeraSans-Roman-30"/>
       <use x="147.412109375" xlink:href="#BitstreamVeraSans-Roman-2e"/>
       <use x="179.19921875" xlink:href="#BitstreamVeraSans-Roman-32"/>
      </g>
     </g>
    </g>
    <g id="ytick_2">
     <g id="line2d_87">
      <g>
       <use style="stroke:#000000;stroke-width:0.5;" x="72.0" xlink:href="#m7ee94f85d3" y="345.59999999999997"/>
      </g>
     </g>
     <g id="line2d_88">
      <g>
       <use style="stroke:#000000;stroke-width:0.5;" x="518.4" xlink:href="#m8e36296d74" y="345.59999999999997"/>
      </g>
     </g>
     <g id="text_11">
      <!-- −0.1 -->
      <g transform="translate(38.860625 348.91125)scale(0.12 -0.12)">
       <use xlink:href="#BitstreamVeraSans-Roman-2212"/>
       <use x="83.7890625" xlink:href="#BitstreamVeraSans-Roman-30"/>
       <use x="147.412109375" xlink:href="#BitstreamVeraSans-Roman-2e"/>
       <use x="179.19921875" xlink:href="#BitstreamVeraSans-Roman-31"/>
      </g>
     </g>
    </g>
    <g id="ytick_3">
     <g id="line2d_89">
      <g>
       <use style="stroke:#000000;stroke-width:0.5;" x="72.0" xlink:href="#m7ee94f85d3" y="302.4"/>
      </g>
     </g>
     <g id="line2d_90">
      <g>
       <use style="stroke:#000000;stroke-width:0.5;" x="518.4" xlink:href="#m8e36296d74" y="302.4"/>
      </g>
     </g>
     <g id="text_12">
      <!-- 0.0 -->
      <g transform="translate(48.916250000000005 305.71125)scale(0.12 -0.12)">
       <use xlink:href="#BitstreamVeraSans-Roman-30"/>
       <use x="63.623046875" xlink:href="#BitstreamVeraSans-Roman-2e"/>
       <use x="95.41015625" xlink:href="#BitstreamVeraSans-Roman-30"/>
      </g>
     </g>
    </g>
    <g id="ytick_4">
     <g id="line2d_91">
      <g>
       <use style="stroke:#000000;stroke-width:0.5;" x="72.0" xlink:href="#m7ee94f85d3" y="259.19999999999993"/>
      </g>
     </g>
     <g id="line2d_92">
      <g>
       <use style="stroke:#000000;stroke-width:0.5;" x="518.4" xlink:href="#m8e36296d74" y="259.19999999999993"/>
      </g>
     </g>
     <g id="text_13">
      <!-- 0.1 -->
      <g transform="translate(48.916250000000005 262.51125)scale(0.12 -0.12)">
       <use xlink:href="#BitstreamVeraSans-Roman-30"/>
       <use x="63.623046875" xlink:href="#BitstreamVeraSans-Roman-2e"/>
       <use x="95.41015625" xlink:href="#BitstreamVeraSans-Roman-31"/>
      </g>
     </g>
    </g>
    <g id="ytick_5">
     <g id="line2d_93">
      <g>
       <use style="stroke:#000000;stroke-width:0.5;" x="72.0" xlink:href="#m7ee94f85d3" y="215.99999999999997"/>
      </g>
     </g>
     <g id="line2d_94">
      <g>
       <use style="stroke:#000000;stroke-width:0.5;" x="518.4" xlink:href="#m8e36296d74" y="215.99999999999997"/>
      </g>
     </g>
     <g id="text_14">
      <!-- 0.2 -->
      <g transform="translate(48.916250000000005 219.31125)scale(0.12 -0.12)">
       <use xlink:href="#BitstreamVeraSans-Roman-30"/>
       <use x="63.623046875" xlink:href="#BitstreamVeraSans-Roman-2e"/>
       <use x="95.41015625" xlink:href="#BitstreamVeraSans-Roman-32"/>
      </g>
     </g>
    </g>
    <g id="ytick_6">
     <g id="line2d_95">
      <g>
       <use style="stroke:#000000;stroke-width:0.5;" x="72.0" xlink:href="#m7ee94f85d3" y="172.79999999999998"/>
      </g>
     </g>
     <g id="line2d_96">
      <g>
       <use style="stroke:#000000;stroke-width:0.5;" x="518.4" xlink:href="#m8e36296d74" y="172.79999999999998"/>
      </g>
     </g>
     <g id="text_15">
      <!-- 0.3 -->
      <defs>
       <path d="M 40.578125 39.3125 
Q 47.65625 37.796875 51.625 33 
Q 55.609375 28.21875 55.609375 21.1875 
Q 55.609375 10.40625 48.1875 4.484375 
Q 40.765625 -1.421875 27.09375 -1.421875 
Q 22.515625 -1.421875 17.65625 -0.515625 
Q 12.796875 0.390625 7.625 2.203125 
L 7.625 11.71875 
Q 11.71875 9.328125 16.59375 8.109375 
Q 21.484375 6.890625 26.8125 6.890625 
Q 36.078125 6.890625 40.9375 10.546875 
Q 45.796875 14.203125 45.796875 21.1875 
Q 45.796875 27.640625 41.28125 31.265625 
Q 36.765625 34.90625 28.71875 34.90625 
L 20.21875 34.90625 
L 20.21875 43.015625 
L 29.109375 43.015625 
Q 36.375 43.015625 40.234375 45.921875 
Q 44.09375 48.828125 44.09375 54.296875 
Q 44.09375 59.90625 40.109375 62.90625 
Q 36.140625 65.921875 28.71875 65.921875 
Q 24.65625 65.921875 20.015625 65.03125 
Q 15.375 64.15625 9.8125 62.3125 
L 9.8125 71.09375 
Q 15.4375 72.65625 20.34375 73.4375 
Q 25.25 74.21875 29.59375 74.21875 
Q 40.828125 74.21875 47.359375 69.109375 
Q 53.90625 64.015625 53.90625 55.328125 
Q 53.90625 49.265625 50.4375 45.09375 
Q 46.96875 40.921875 40.578125 39.3125 
" id="BitstreamVeraSans-Roman-33"/>
      </defs>
      <g transform="translate(48.916250000000005 176.11125)scale(0.12 -0.12)">
       <use xlink:href="#BitstreamVeraSans-Roman-30"/>
       <use x="63.623046875" xlink:href="#BitstreamVeraSans-Roman-2e"/>
       <use x="95.41015625" xlink:href="#BitstreamVeraSans-Roman-33"/>
      </g>
     </g>
    </g>
    <g id="ytick_7">
     <g id="line2d_97">
      <g>
       <use style="stroke:#000000;stroke-width:0.5;" x="72.0" xlink:href="#m7ee94f85d3" y="129.59999999999994"/>
      </g>
     </g>
     <g id="line2d_98">
      <g>
       <use style="stroke:#000000;stroke-width:0.5;" x="518.4" xlink:href="#m8e36296d74" y="129.59999999999994"/>
      </g>
     </g>
     <g id="text_16">
      <!-- 0.4 -->
      <g transform="translate(48.916250000000005 132.91124999999994)scale(0.12 -0.12)">
       <use xlink:href="#BitstreamVeraSans-Roman-30"/>
       <use x="63.623046875" xlink:href="#BitstreamVeraSans-Roman-2e"/>
       <use x="95.41015625" xlink:href="#BitstreamVeraSans-Roman-34"/>
      </g>
     </g>
    </g>
    <g id="ytick_8">
     <g id="line2d_99">
      <g>
       <use style="stroke:#000000;stroke-width:0.5;" x="72.0" xlink:href="#m7ee94f85d3" y="86.39999999999998"/>
      </g>
     </g>
     <g id="line2d_100">
      <g>
       <use style="stroke:#000000;stroke-width:0.5;" x="518.4" xlink:href="#m8e36296d74" y="86.39999999999998"/>
      </g>
     </g>
     <g id="text_17">
      <!-- 0.5 -->
      <defs>
       <path d="M 10.796875 72.90625 
L 49.515625 72.90625 
L 49.515625 64.59375 
L 19.828125 64.59375 
L 19.828125 46.734375 
Q 21.96875 47.46875 24.109375 47.828125 
Q 26.265625 48.1875 28.421875 48.1875 
Q 40.625 48.1875 47.75 41.5 
Q 54.890625 34.8125 54.890625 23.390625 
Q 54.890625 11.625 47.5625 5.09375 
Q 40.234375 -1.421875 26.90625 -1.421875 
Q 22.3125 -1.421875 17.546875 -0.640625 
Q 12.796875 0.140625 7.71875 1.703125 
L 7.71875 11.625 
Q 12.109375 9.234375 16.796875 8.0625 
Q 21.484375 6.890625 26.703125 6.890625 
Q 35.15625 6.890625 40.078125 11.328125 
Q 45.015625 15.765625 45.015625 23.390625 
Q 45.015625 31 40.078125 35.4375 
Q 35.15625 39.890625 26.703125 39.890625 
Q 22.75 39.890625 18.8125 39.015625 
Q 14.890625 38.140625 10.796875 36.28125 
z
" id="BitstreamVeraSans-Roman-35"/>
      </defs>
      <g transform="translate(48.916250000000005 89.71124999999995)scale(0.12 -0.12)">
       <use xlink:href="#BitstreamVeraSans-Roman-30"/>
       <use x="63.623046875" xlink:href="#BitstreamVeraSans-Roman-2e"/>
       <use x="95.41015625" xlink:href="#BitstreamVeraSans-Roman-35"/>
      </g>
     </g>
    </g>
    <g id="ytick_9">
     <g id="line2d_101">
      <g>
       <use style="stroke:#000000;stroke-width:0.5;" x="72.0" xlink:href="#m7ee94f85d3" y="43.19999999999993"/>
      </g>
     </g>
     <g id="line2d_102">
      <g>
       <use style="stroke:#000000;stroke-width:0.5;" x="518.4" xlink:href="#m8e36296d74" y="43.19999999999993"/>
      </g>
     </g>
     <g id="text_18">
      <!-- 0.6 -->
      <g transform="translate(48.916250000000005 46.511249999999905)scale(0.12 -0.12)">
       <use xlink:href="#BitstreamVeraSans-Roman-30"/>
       <use x="63.623046875" xlink:href="#BitstreamVeraSans-Roman-2e"/>
       <use x="95.41015625" xlink:href="#BitstreamVeraSans-Roman-36"/>
      </g>
     </g>
    </g>
   </g>
  </g>
 </g>
 <defs>
  <clipPath id="pc04e2aa8a7">
   <rect height="345.6" width="446.4" x="72.0" y="43.19999999999999"/>
  </clipPath>
 </defs>
</svg>
